<svg xmlns="http://www.w3.org/2000/svg" xmlns:xlink="http://www.w3.org/1999/xlink" width="500" zoomAndPan="magnify" viewBox="0 0 375 374.999991" height="500" preserveAspectRatio="xMidYMid meet" version="1.0"><defs><clipPath id="04f98115fc"><path d="M 173 176.082031 L 353.667969 176.082031 L 353.667969 356.746094 L 173 356.746094 Z M 173 176.082031 " clip-rule="nonzero"/></clipPath><clipPath id="3f2e81fc3c"><path d="M 19.507812 16.246094 L 218.523438 16.246094 L 218.523438 356.746094 L 19.507812 356.746094 Z M 19.507812 16.246094 " clip-rule="nonzero"/></clipPath></defs><g clip-path="url(#04f98115fc)"><path fill="#ededeb" d="M 353.667969 266.609375 C 353.667969 316.480469 313.238281 356.902344 263.371094 356.902344 C 213.503906 356.902344 173.078125 316.480469 173.078125 266.609375 C 173.078125 216.742188 213.503906 176.316406 263.371094 176.316406 C 313.238281 176.316406 353.667969 216.742188 353.667969 266.609375 " fill-opacity="1" fill-rule="nonzero"/><path fill="#0cc0df" d="M 263.371094 176.316406 C 213.503906 176.316406 173.078125 216.742188 173.078125 266.609375 C 173.078125 316.480469 213.503906 356.902344 263.371094 356.902344 C 313.238281 356.902344 353.667969 316.480469 353.667969 266.609375 C 353.667969 216.742188 313.238281 176.316406 263.371094 176.316406 M 263.371094 194.414062 C 273.128906 194.414062 282.582031 196.320312 291.46875 200.082031 C 300.0625 203.714844 307.785156 208.921875 314.421875 215.5625 C 321.058594 222.195312 326.265625 229.917969 329.902344 238.511719 C 333.660156 247.402344 335.570312 256.855469 335.570312 266.609375 C 335.570312 276.363281 333.660156 285.816406 329.902344 294.707031 C 326.265625 303.300781 321.058594 311.023438 314.421875 317.660156 C 307.785156 324.296875 300.0625 329.503906 291.46875 333.140625 C 282.582031 336.898438 273.128906 338.804688 263.371094 338.804688 C 253.617188 338.804688 244.164062 336.898438 235.277344 333.140625 C 226.679688 329.503906 218.957031 324.296875 212.320312 317.660156 C 205.6875 311.023438 200.476562 303.300781 196.84375 294.707031 C 193.082031 285.816406 191.175781 276.363281 191.175781 266.609375 C 191.175781 256.855469 193.082031 247.402344 196.84375 238.511719 C 200.476562 229.917969 205.6875 222.195312 212.320312 215.5625 C 218.957031 208.921875 226.679688 203.714844 235.277344 200.082031 C 244.164062 196.320312 253.617188 194.414062 263.371094 194.414062 " fill-opacity="1" fill-rule="nonzero"/></g><path fill="#0cc0df" d="M 271.511719 179.996094 L 255.105469 179.996094 L 255.105469 160.835938 L 271.511719 160.835938 L 271.511719 179.996094 " fill-opacity="1" fill-rule="nonzero"/><path fill="#0cc0df" d="M 277.570312 169.039062 L 249.050781 169.039062 C 246.40625 169.039062 244.261719 166.894531 244.261719 164.25 L 244.261719 158.878906 C 244.261719 156.234375 246.40625 154.089844 249.050781 154.089844 L 277.570312 154.089844 C 280.214844 154.089844 282.363281 156.234375 282.363281 158.878906 L 282.363281 164.25 C 282.363281 166.894531 280.214844 169.039062 277.570312 169.039062 " fill-opacity="1" fill-rule="nonzero"/><path fill="#0cc0df" d="M 315.265625 193.527344 L 310.070312 190.367188 L 314.480469 183.125 L 319.675781 186.289062 L 315.265625 193.527344 " fill-opacity="1" fill-rule="nonzero"/><path fill="#0cc0df" d="M 316.984375 189.910156 L 312.386719 187.109375 C 310.296875 185.835938 309.632812 183.109375 310.90625 181.015625 L 313.671875 176.476562 C 314.945312 174.382812 317.675781 173.71875 319.765625 174.996094 L 324.363281 177.792969 C 326.453125 179.066406 327.117188 181.796875 325.84375 183.886719 L 323.078125 188.429688 C 321.804688 190.519531 319.074219 191.183594 316.984375 189.910156 " fill-opacity="1" fill-rule="nonzero"/><path fill="#0cc0df" d="M 237.515625 246.828125 L 268.578125 268.417969 C 271.761719 271.238281 272.054688 276.105469 269.234375 279.289062 C 266.417969 282.472656 261.550781 282.765625 258.367188 279.949219 L 233.179688 251.722656 C 232.175781 250.59375 232.171875 248.890625 233.175781 247.753906 L 233.574219 247.300781 C 234.578125 246.167969 236.273438 245.964844 237.515625 246.828125 " fill-opacity="1" fill-rule="nonzero"/><path fill="#0cc0df" d="M 305.367188 238.367188 L 271.195312 281.679688 C 266.808594 286.066406 259.695312 286.066406 255.3125 281.679688 C 250.925781 277.292969 250.925781 270.183594 255.3125 265.796875 L 298.625 231.625 C 300.355469 230.257812 302.839844 230.402344 304.402344 231.964844 L 305.027344 232.585938 C 306.585938 234.148438 306.734375 236.632812 305.367188 238.367188 " fill-opacity="1" fill-rule="nonzero"/><path fill="#ededeb" d="M 256.003906 266.570312 C 252.070312 270.550781 252.082031 276.984375 256.042969 280.945312 C 260.003906 284.90625 266.441406 284.921875 270.417969 280.988281 L 304.550781 237.726562 C 305.59375 236.402344 305.484375 234.511719 304.292969 233.320312 L 303.667969 232.695312 C 302.480469 231.507812 300.585938 231.394531 299.265625 232.4375 Z M 263.253906 285.996094 C 260.113281 285.996094 256.96875 284.804688 254.578125 282.410156 C 249.796875 277.628906 249.796875 269.84375 254.578125 265.0625 L 254.667969 264.980469 L 297.980469 230.8125 C 300.125 229.117188 303.203125 229.296875 305.136719 231.230469 L 305.757812 231.855469 C 307.691406 233.785156 307.871094 236.863281 306.179688 239.007812 L 271.972656 282.367188 L 271.929688 282.410156 C 269.535156 284.804688 266.394531 285.996094 263.253906 285.996094 " fill-opacity="1" fill-rule="nonzero"/><path fill="#ededeb" d="M 266.71875 270.59375 C 268.550781 272.425781 268.550781 275.398438 266.71875 277.230469 C 264.886719 279.066406 261.914062 279.066406 260.078125 277.230469 C 258.246094 275.398438 258.246094 272.425781 260.078125 270.59375 C 261.914062 268.757812 264.886719 268.757812 266.71875 270.59375 " fill-opacity="1" fill-rule="nonzero"/><g clip-path="url(#3f2e81fc3c)"><path fill="#0cc0df" d="M 218.285156 331.585938 L 218.285156 41.53125 C 218.285156 27.566406 206.964844 16.246094 193 16.246094 L 44.792969 16.246094 C 30.828125 16.246094 19.507812 27.566406 19.507812 41.53125 L 19.507812 331.585938 C 19.507812 345.550781 30.828125 356.871094 44.792969 356.871094 L 193 356.871094 C 206.964844 356.871094 218.285156 345.550781 218.285156 331.585938 " fill-opacity="1" fill-rule="nonzero"/></g><path fill="#ffffff" d="M 207.550781 328.359375 L 207.550781 44.449219 C 207.550781 34.769531 199.703125 26.925781 190.023438 26.925781 L 47.972656 26.925781 C 38.292969 26.925781 30.445312 34.769531 30.445312 44.449219 L 30.445312 328.359375 C 30.445312 338.039062 38.292969 345.886719 47.972656 345.886719 L 190.023438 345.886719 C 199.703125 345.886719 207.550781 338.039062 207.550781 328.359375 " fill-opacity="1" fill-rule="nonzero"/><path fill="#0cc0df" d="M 211.445312 212.421875 L 27.914062 212.421875 L 27.914062 157.703125 L 211.445312 157.703125 L 211.445312 212.421875 " fill-opacity="1" fill-rule="nonzero"/><path fill="#0cc0df" d="M 66.386719 76.304688 C 59.765625 82.929688 54.5625 90.640625 50.929688 99.230469 C 47.167969 108.125 45.261719 117.574219 45.261719 127.308594 C 45.261719 128.1875 45.277344 129.0625 45.308594 129.933594 L 58.824219 129.933594 C 58.785156 129.0625 58.765625 128.1875 58.765625 127.308594 C 58.765625 109.195312 67.023438 92.972656 79.972656 82.210938 L 70.371094 72.605469 C 69.003906 73.785156 67.671875 75.019531 66.386719 76.304688 " fill-opacity="1" fill-rule="nonzero"/><path fill="#0cc0df" d="M 185.894531 99.0625 C 182.261719 90.46875 177.0625 82.757812 170.441406 76.136719 C 169.644531 75.339844 168.835938 74.566406 168.007812 73.8125 L 158.425781 83.398438 C 170.464844 94.140625 178.0625 109.765625 178.0625 127.136719 C 178.0625 128.015625 178.039062 128.890625 178 129.761719 L 191.519531 129.761719 C 191.550781 128.890625 191.566406 128.015625 191.566406 127.136719 C 191.566406 117.402344 189.660156 107.957031 185.894531 99.0625 " fill-opacity="1" fill-rule="nonzero"/><path fill="#0cc0df" d="M 146.492188 59.65625 C 137.59375 55.890625 128.148438 53.984375 118.414062 53.984375 C 108.679688 53.984375 99.230469 55.890625 90.335938 59.65625 C 83.417969 62.582031 77.066406 66.527344 71.398438 71.410156 L 81 81.015625 C 91.15625 72.570312 104.203125 67.488281 118.414062 67.488281 C 133.367188 67.488281 147.03125 73.121094 157.398438 82.371094 L 166.980469 72.789062 C 160.929688 67.261719 154.050781 62.851562 146.492188 59.65625 " fill-opacity="1" fill-rule="nonzero"/><path fill="#0cc0df" d="M 114.488281 116.59375 C 113.394531 114.164062 114.65625 111.324219 117.191406 110.507812 L 155.480469 98.160156 L 120.835938 118.609375 C 118.542969 119.964844 115.582031 119.023438 114.488281 116.59375 " fill-opacity="1" fill-rule="nonzero"/><path fill="#ffffff" d="M 119.160156 115.894531 C 118.554688 116.167969 117.839844 115.898438 117.566406 115.289062 C 117.296875 114.683594 117.566406 113.96875 118.171875 113.699219 C 118.777344 113.421875 119.492188 113.695312 119.765625 114.300781 C 120.035156 114.910156 119.765625 115.621094 119.160156 115.894531 " fill-opacity="1" fill-rule="nonzero"/><path fill="#ffffff" d="M 83.078125 176.570312 C 82.699219 176.949219 82.511719 177.460938 82.511719 178.109375 L 82.511719 182.292969 C 82.511719 183.007812 82.679688 183.539062 83.011719 183.882812 C 83.347656 184.230469 83.828125 184.402344 84.453125 184.402344 C 85.167969 184.402344 85.722656 184.195312 86.125 183.785156 C 86.527344 183.371094 86.726562 182.796875 86.726562 182.058594 L 86.726562 178.109375 C 86.726562 177.460938 86.539062 176.949219 86.160156 176.570312 C 85.78125 176.191406 85.253906 176 84.585938 176 C 83.960938 176 83.460938 176.191406 83.078125 176.570312 Z M 88.703125 174.210938 C 89.75 175.246094 90.277344 176.605469 90.277344 178.277344 L 90.277344 191.128906 C 90.277344 192.804688 89.761719 194.160156 88.738281 195.195312 C 87.710938 196.234375 86.359375 196.753906 84.6875 196.753906 C 83.011719 196.753906 81.667969 196.234375 80.652344 195.195312 C 79.636719 194.160156 79.132812 192.804688 79.132812 191.128906 L 79.132812 190.359375 L 82.542969 190.359375 L 82.542969 191.296875 C 82.542969 191.921875 82.738281 192.429688 83.128906 192.820312 C 83.519531 193.210938 84.027344 193.40625 84.652344 193.40625 C 85.277344 193.40625 85.78125 193.214844 86.160156 192.835938 C 86.539062 192.457031 86.726562 191.945312 86.726562 191.296875 L 86.726562 185.941406 C 86.4375 186.410156 85.996094 186.804688 85.40625 187.128906 C 84.816406 187.453125 84.105469 187.617188 83.28125 187.617188 C 81.941406 187.617188 80.886719 187.1875 80.117188 186.328125 C 79.347656 185.46875 78.964844 184.300781 78.964844 182.828125 L 78.964844 178.277344 C 78.964844 176.605469 79.480469 175.246094 80.519531 174.210938 C 81.558594 173.171875 82.914062 172.65625 84.585938 172.65625 C 86.28125 172.65625 87.652344 173.171875 88.703125 174.210938 " fill-opacity="1" fill-rule="nonzero"/><path fill="#ffffff" d="M 101.019531 192.804688 C 101.398438 192.402344 101.589844 191.832031 101.589844 191.097656 L 101.589844 178.3125 C 101.589844 177.574219 101.398438 177.003906 101.019531 176.605469 C 100.640625 176.203125 100.117188 176 99.445312 176 C 98.777344 176 98.253906 176.203125 97.871094 176.605469 C 97.492188 177.003906 97.304688 177.574219 97.304688 178.3125 L 97.304688 191.097656 C 97.304688 191.832031 97.492188 192.402344 97.871094 192.804688 C 98.253906 193.203125 98.777344 193.40625 99.445312 193.40625 C 100.117188 193.40625 100.640625 193.203125 101.019531 192.804688 Z M 95.328125 195.195312 C 94.28125 194.160156 93.757812 192.792969 93.757812 191.097656 L 93.757812 178.3125 C 93.757812 176.613281 94.28125 175.246094 95.328125 174.210938 C 96.378906 173.171875 97.75 172.65625 99.445312 172.65625 C 101.140625 172.65625 102.515625 173.171875 103.5625 174.210938 C 104.609375 175.246094 105.136719 176.613281 105.136719 178.3125 L 105.136719 191.097656 C 105.136719 192.792969 104.609375 194.160156 103.5625 195.195312 C 102.515625 196.234375 101.140625 196.753906 99.445312 196.753906 C 97.75 196.753906 96.378906 196.234375 95.328125 195.195312 " fill-opacity="1" fill-rule="nonzero"/><path fill="#ffffff" d="M 118.121094 172.875 L 121 172.875 L 113.234375 198.511719 L 110.355469 198.511719 L 118.121094 172.875 " fill-opacity="1" fill-rule="nonzero"/><path fill="#ffffff" d="M 130.371094 178.042969 L 126.355469 178.042969 L 126.355469 175.566406 C 127.648438 175.476562 128.726562 175.199219 129.585938 174.730469 C 130.445312 174.261719 131.0625 173.679688 131.441406 172.988281 L 133.917969 172.988281 L 133.917969 196.417969 L 130.371094 196.417969 L 130.371094 178.042969 " fill-opacity="1" fill-rule="nonzero"/><path fill="#ffffff" d="M 144.628906 192.804688 C 145.007812 192.402344 145.199219 191.832031 145.199219 191.097656 L 145.199219 178.3125 C 145.199219 177.574219 145.007812 177.003906 144.628906 176.605469 C 144.25 176.203125 143.726562 176 143.054688 176 C 142.386719 176 141.863281 176.203125 141.484375 176.605469 C 141.105469 177.003906 140.914062 177.574219 140.914062 178.3125 L 140.914062 191.097656 C 140.914062 191.832031 141.105469 192.402344 141.484375 192.804688 C 141.863281 193.203125 142.386719 193.40625 143.054688 193.40625 C 143.726562 193.40625 144.25 193.203125 144.628906 192.804688 Z M 138.941406 195.195312 C 137.890625 194.160156 137.367188 192.792969 137.367188 191.097656 L 137.367188 178.3125 C 137.367188 176.613281 137.890625 175.246094 138.941406 174.210938 C 139.988281 173.171875 141.359375 172.65625 143.054688 172.65625 C 144.753906 172.65625 146.125 173.171875 147.171875 174.210938 C 148.222656 175.246094 148.746094 176.613281 148.746094 178.3125 L 148.746094 191.097656 C 148.746094 192.792969 148.222656 194.160156 147.171875 195.195312 C 146.125 196.234375 144.753906 196.753906 143.054688 196.753906 C 141.359375 196.753906 139.988281 196.234375 138.941406 195.195312 " fill-opacity="1" fill-rule="nonzero"/><path fill="#ffffff" d="M 159.15625 192.804688 C 159.535156 192.402344 159.722656 191.832031 159.722656 191.097656 L 159.722656 178.3125 C 159.722656 177.574219 159.535156 177.003906 159.15625 176.605469 C 158.777344 176.203125 158.25 176 157.582031 176 C 156.914062 176 156.386719 176.203125 156.007812 176.605469 C 155.628906 177.003906 155.441406 177.574219 155.441406 178.3125 L 155.441406 191.097656 C 155.441406 191.832031 155.628906 192.402344 156.007812 192.804688 C 156.386719 193.203125 156.914062 193.40625 157.582031 193.40625 C 158.25 193.40625 158.777344 193.203125 159.15625 192.804688 Z M 153.464844 195.195312 C 152.417969 194.160156 151.890625 192.792969 151.890625 191.097656 L 151.890625 178.3125 C 151.890625 176.613281 152.417969 175.246094 153.464844 174.210938 C 154.511719 173.171875 155.886719 172.65625 157.582031 172.65625 C 159.277344 172.65625 160.648438 173.171875 161.699219 174.210938 C 162.746094 175.246094 163.273438 176.613281 163.273438 178.3125 L 163.273438 191.097656 C 163.273438 192.792969 162.746094 194.160156 161.699219 195.195312 C 160.648438 196.234375 159.277344 196.753906 157.582031 196.753906 C 155.886719 196.753906 154.511719 196.234375 153.464844 195.195312 " fill-opacity="1" fill-rule="nonzero"/><path fill="#5ce1e6" d="M 51.261719 278.277344 L 50.945312 277.652344 L 108.679688 248.609375 L 108.992188 249.234375 L 51.261719 278.277344 " fill-opacity="1" fill-rule="nonzero"/><path fill="#0cc0df" d="M 53.25 294.277344 L 53.25 318.453125 L 45.257812 318.453125 L 45.257812 294.277344 L 53.25 294.277344 " fill-opacity="1" fill-rule="nonzero"/><path fill="#0cc0df" d="M 72.90625 286.785156 L 72.90625 318.453125 L 64.917969 318.453125 L 64.917969 286.785156 L 72.90625 286.785156 " fill-opacity="1" fill-rule="nonzero"/><path fill="#0cc0df" d="M 92.566406 288.878906 L 92.566406 318.453125 L 84.574219 318.453125 L 84.574219 288.878906 L 92.566406 288.878906 " fill-opacity="1" fill-rule="nonzero"/><path fill="#0cc0df" d="M 112.226562 275.5625 L 112.226562 318.453125 L 104.234375 318.453125 L 104.234375 275.5625 L 112.226562 275.5625 " fill-opacity="1" fill-rule="nonzero"/><path fill="#0cc0df" d="M 131.882812 295.582031 L 131.882812 318.453125 L 123.894531 318.453125 L 123.894531 295.582031 L 131.882812 295.582031 " fill-opacity="1" fill-rule="nonzero"/><path fill="#0cc0df" d="M 151.542969 282.578125 L 151.542969 318.453125 L 143.550781 318.453125 L 143.550781 282.578125 L 151.542969 282.578125 " fill-opacity="1" fill-rule="nonzero"/><path fill="#0cc0df" d="M 171.203125 284.242188 L 171.203125 318.453125 L 163.210938 318.453125 L 163.210938 284.242188 L 171.203125 284.242188 " fill-opacity="1" fill-rule="nonzero"/><path fill="#5ce1e6" d="M 148.253906 265.546875 L 110.398438 249.246094 L 110.675781 248.601562 L 148.371094 264.835938 L 148.21875 264.917969 L 148.390625 265.226562 L 148.253906 265.546875 " fill-opacity="1" fill-rule="nonzero"/><path fill="#0cc0df" d="M 191.332031 264.902344 L 191.332031 318.453125 L 183.34375 318.453125 L 183.34375 264.902344 L 191.332031 264.902344 " fill-opacity="1" fill-rule="nonzero"/><path fill="#0cc0df" d="M 53.550781 278.738281 C 53.550781 281.148438 51.597656 283.101562 49.1875 283.101562 C 46.78125 283.101562 44.828125 281.148438 44.828125 278.738281 C 44.828125 276.332031 46.78125 274.378906 49.1875 274.378906 C 51.597656 274.378906 53.550781 276.332031 53.550781 278.738281 " fill-opacity="1" fill-rule="nonzero"/><path fill="#5ce1e6" d="M 148.558594 265.535156 L 148.390625 265.226562 L 148.53125 264.90625 L 148.371094 264.835938 L 188.253906 242.84375 L 188.59375 243.460938 L 148.558594 265.535156 " fill-opacity="1" fill-rule="nonzero"/><path fill="#5ce1e6" d="M 148.390625 265.226562 L 148.21875 264.917969 L 148.371094 264.835938 L 148.53125 264.90625 L 148.390625 265.226562 " fill-opacity="1" fill-rule="nonzero"/><path fill="#0cc0df" d="M 112.722656 248.921875 C 112.722656 251.332031 110.773438 253.285156 108.363281 253.285156 C 105.953125 253.285156 104.003906 251.332031 104.003906 248.921875 C 104.003906 246.515625 105.953125 244.5625 108.363281 244.5625 C 110.773438 244.5625 112.722656 246.515625 112.722656 248.921875 " fill-opacity="1" fill-rule="nonzero"/><path fill="#0cc0df" d="M 151.804688 264.910156 C 151.804688 267.320312 149.855469 269.269531 147.445312 269.269531 C 145.039062 269.269531 143.085938 267.320312 143.085938 264.910156 C 143.085938 262.503906 145.039062 260.550781 147.445312 260.550781 C 149.855469 260.550781 151.804688 262.503906 151.804688 264.910156 " fill-opacity="1" fill-rule="nonzero"/><path fill="#0cc0df" d="M 191.925781 242.679688 C 191.925781 245.085938 189.972656 247.039062 187.566406 247.039062 C 185.15625 247.039062 183.203125 245.085938 183.203125 242.679688 C 183.203125 240.269531 185.15625 238.316406 187.566406 238.316406 C 189.972656 238.316406 191.925781 240.269531 191.925781 242.679688 " fill-opacity="1" fill-rule="nonzero"/></svg>