<svg xmlns="http://www.w3.org/2000/svg" xmlns:xlink="http://www.w3.org/1999/xlink" width="500" zoomAndPan="magnify" viewBox="0 0 375 374.999991" height="500" preserveAspectRatio="xMidYMid meet" version="1.0"><defs><clipPath id="a7df259862"><path d="M 26.003906 26.003906 L 348.804688 26.003906 L 348.804688 334 L 26.003906 334 Z M 26.003906 26.003906 " clip-rule="nonzero"/></clipPath><clipPath id="e5ed9a1499"><path d="M 118 231 L 257 231 L 257 348.804688 L 118 348.804688 Z M 118 231 " clip-rule="nonzero"/></clipPath></defs><g clip-path="url(#a7df259862)"><path fill="#0cc0df" d="M 344.386719 67.082031 L 307.699219 67.082031 L 307.699219 30.394531 L 344.386719 30.394531 Z M 303.308594 67.082031 L 30.394531 67.082031 L 30.394531 30.394531 L 303.308594 30.394531 Z M 346.582031 26.003906 L 28.199219 26.003906 C 26.980469 26.003906 26.003906 26.980469 26.003906 28.199219 L 26.003906 331.1875 C 26.003906 332.40625 26.980469 333.382812 28.199219 333.382812 L 120.589844 333.382812 C 121.78125 333.382812 122.757812 332.40625 122.757812 331.1875 L 122.785156 331.1875 C 122.785156 329.972656 121.78125 328.992188 120.589844 328.992188 L 30.394531 328.992188 L 30.394531 71.472656 L 344.386719 71.472656 L 344.386719 328.992188 L 254.085938 328.992188 C 252.867188 328.992188 251.890625 329.972656 251.890625 331.1875 C 251.890625 332.40625 252.894531 333.382812 254.085938 333.382812 L 346.582031 333.382812 C 347.800781 333.382812 348.777344 332.40625 348.777344 331.1875 L 348.777344 28.199219 C 348.777344 26.980469 347.800781 26.003906 346.582031 26.003906 " fill-opacity="1" fill-rule="nonzero"/></g><path fill="#0cc0df" d="M 48.75 50.945312 C 49.941406 50.945312 50.945312 49.941406 50.945312 48.75 C 50.945312 47.535156 49.941406 46.554688 48.75 46.554688 C 47.535156 46.554688 46.554688 47.535156 46.554688 48.75 C 46.554688 49.941406 47.535156 50.945312 48.75 50.945312 " fill-opacity="1" fill-rule="nonzero"/><path fill="#0cc0df" d="M 57.53125 50.945312 C 58.75 50.945312 59.726562 49.941406 59.726562 48.75 C 59.726562 47.535156 58.75 46.554688 57.53125 46.554688 C 56.316406 46.554688 55.335938 47.535156 55.335938 48.75 C 55.335938 49.941406 56.316406 50.945312 57.53125 50.945312 " fill-opacity="1" fill-rule="nonzero"/><path fill="#0cc0df" d="M 75.121094 50.945312 C 76.3125 50.945312 77.316406 49.941406 77.316406 48.75 C 77.316406 47.535156 76.3125 46.554688 75.121094 46.554688 C 73.878906 46.554688 72.925781 47.535156 72.925781 48.75 C 72.925781 49.941406 73.878906 50.945312 75.121094 50.945312 " fill-opacity="1" fill-rule="nonzero"/><path fill="#0cc0df" d="M 83.902344 50.945312 C 85.121094 50.945312 86.097656 49.941406 86.097656 48.75 C 86.097656 47.535156 85.121094 46.554688 83.902344 46.554688 C 82.710938 46.554688 81.707031 47.535156 81.707031 48.75 C 81.707031 49.941406 82.710938 50.945312 83.902344 50.945312 " fill-opacity="1" fill-rule="nonzero"/><path fill="#0cc0df" d="M 66.3125 50.945312 C 67.53125 50.945312 68.535156 49.941406 68.535156 48.75 C 68.535156 47.535156 67.53125 46.554688 66.3125 46.554688 C 65.097656 46.554688 64.117188 47.535156 64.117188 48.75 C 64.117188 49.941406 65.097656 50.945312 66.3125 50.945312 " fill-opacity="1" fill-rule="nonzero"/><path fill="#0cc0df" d="M 56.101562 141.222656 C 56.101562 116.964844 75.863281 97.207031 100.144531 97.207031 C 124.398438 97.207031 144.15625 116.964844 144.15625 141.222656 C 144.15625 149.078125 142.066406 156.457031 138.445312 162.859375 C 135.71875 155.558594 128.472656 151.933594 119.027344 147.941406 L 114.558594 146.0625 C 116.277344 143.097656 117.308594 139.582031 117.308594 135.796875 C 117.308594 125.296875 109.585938 116.753906 100.144531 116.753906 C 90.675781 116.753906 82.976562 125.296875 82.976562 135.796875 C 82.976562 139.632812 84.007812 143.203125 85.78125 146.195312 L 81.628906 147.941406 C 71.683594 152.011719 64.488281 155.503906 61.789062 162.804688 C 58.191406 156.429688 56.101562 149.078125 56.101562 141.222656 Z M 87.367188 135.796875 C 87.367188 127.730469 93.082031 121.171875 100.144531 121.171875 C 107.179688 121.171875 112.894531 127.730469 112.894531 135.796875 C 112.894531 138.972656 111.992188 141.933594 110.484375 144.34375 C 110.089844 144.976562 109.640625 145.585938 109.136719 146.167969 C 108.609375 146.777344 108.027344 147.304688 107.417969 147.808594 C 105.355469 149.445312 102.839844 150.425781 100.144531 150.425781 C 97.5 150.425781 95.066406 149.527344 93.027344 147.941406 C 92.394531 147.464844 91.8125 146.90625 91.257812 146.300781 C 90.753906 145.746094 90.304688 145.136719 89.878906 144.5 C 88.320312 142.066406 87.367188 139.050781 87.367188 135.796875 Z M 105.378906 184.917969 C 105.300781 184.945312 105.222656 184.945312 105.144531 184.945312 C 104.453125 185.023438 103.742188 185.101562 103.027344 185.128906 C 102.867188 185.15625 102.734375 185.15625 102.601562 185.183594 C 101.785156 185.207031 100.964844 185.234375 100.144531 185.234375 C 99.324219 185.234375 98.476562 185.207031 97.65625 185.183594 C 97.523438 185.15625 97.394531 185.15625 97.261719 185.15625 C 96.546875 185.101562 95.832031 185.023438 95.117188 184.945312 C 95.039062 184.945312 94.984375 184.945312 94.90625 184.917969 C 83.1875 183.488281 72.371094 177.351562 65.125 167.832031 C 65.996094 159.921875 71.710938 156.746094 83.320312 151.988281 L 88.558594 149.816406 C 91.601562 152.914062 95.671875 154.84375 100.144531 154.84375 C 104.667969 154.84375 108.765625 152.859375 111.835938 149.683594 L 117.308594 151.988281 C 129.082031 156.960938 134.292969 160.34375 135.136719 167.832031 C 127.917969 177.351562 117.097656 183.488281 105.378906 184.917969 Z M 63.21875 172.460938 C 63.746094 173.09375 64.304688 173.703125 64.886719 174.3125 C 65.335938 174.8125 65.8125 175.289062 66.285156 175.765625 C 66.738281 176.1875 67.1875 176.613281 67.636719 177.035156 C 68.296875 177.644531 68.957031 178.226562 69.671875 178.78125 C 70.175781 179.203125 70.730469 179.601562 71.257812 179.996094 C 71.628906 180.289062 72 180.554688 72.371094 180.816406 C 73.269531 181.453125 74.222656 182.0625 75.175781 182.617188 C 75.492188 182.828125 75.835938 183.039062 76.179688 183.222656 C 77.15625 183.78125 78.164062 184.308594 79.195312 184.8125 C 79.566406 184.996094 79.960938 185.183594 80.332031 185.367188 C 80.96875 185.632812 81.601562 185.921875 82.261719 186.160156 C 83.082031 186.503906 83.929688 186.820312 84.800781 187.113281 C 85.332031 187.296875 85.859375 187.457031 86.414062 187.617188 C 87.421875 187.90625 88.425781 188.195312 89.457031 188.433594 C 89.773438 188.488281 90.117188 188.566406 90.460938 188.621094 C 91.707031 188.886719 92.976562 189.121094 94.246094 189.28125 C 94.351562 189.28125 94.429688 189.308594 94.535156 189.308594 C 95.328125 189.414062 96.097656 189.46875 96.890625 189.519531 C 97.050781 189.519531 97.207031 189.546875 97.394531 189.574219 C 98.292969 189.625 99.21875 189.652344 100.144531 189.652344 C 101.042969 189.652344 101.96875 189.625 102.894531 189.574219 C 103.054688 189.546875 103.210938 189.519531 103.398438 189.519531 C 104.164062 189.46875 104.957031 189.414062 105.726562 189.308594 C 105.832031 189.308594 105.9375 189.28125 106.042969 189.28125 C 107.285156 189.121094 108.554688 188.886719 109.796875 188.648438 C 110.140625 188.566406 110.484375 188.515625 110.804688 188.433594 C 111.835938 188.195312 112.839844 187.90625 113.84375 187.617188 C 114.402344 187.457031 114.929688 187.296875 115.484375 187.113281 C 116.332031 186.820312 117.175781 186.503906 117.996094 186.1875 C 118.660156 185.921875 119.292969 185.632812 119.929688 185.367188 C 120.300781 185.183594 120.695312 184.996094 121.066406 184.8125 C 122.097656 184.308594 123.101562 183.78125 124.082031 183.222656 C 124.425781 183.039062 124.769531 182.828125 125.113281 182.617188 C 126.066406 182.0625 126.964844 181.453125 127.890625 180.816406 C 128.261719 180.554688 128.628906 180.289062 129 179.996094 C 129.554688 179.601562 130.085938 179.203125 130.613281 178.78125 C 131.300781 178.226562 131.964844 177.644531 132.625 177.035156 C 133.074219 176.636719 133.523438 176.214844 133.972656 175.765625 C 134.476562 175.289062 134.953125 174.785156 135.429688 174.257812 C 135.984375 173.675781 136.511719 173.09375 137.042969 172.484375 C 137.4375 172.007812 137.808594 171.535156 138.207031 171.058594 C 144.660156 162.832031 148.546875 152.488281 148.546875 141.222656 C 148.546875 114.53125 126.832031 92.816406 100.144531 92.816406 C 73.429688 92.816406 51.710938 114.53125 51.710938 141.222656 C 51.710938 152.488281 55.628906 162.832031 62.082031 171.058594 C 62.453125 171.535156 62.820312 171.984375 63.21875 172.460938 " fill-opacity="1" fill-rule="nonzero"/><path fill="#0cc0df" d="M 202.878906 158.785156 L 229.25 158.785156 C 230.464844 158.785156 231.445312 157.804688 231.445312 156.589844 C 231.445312 155.371094 230.464844 154.394531 229.25 154.394531 L 202.878906 154.394531 C 201.660156 154.394531 200.683594 155.371094 200.683594 156.589844 C 200.683594 157.804688 201.660156 158.785156 202.878906 158.785156 " fill-opacity="1" fill-rule="nonzero"/><path fill="#0cc0df" d="M 177.113281 158.785156 L 194.070312 158.785156 C 195.285156 158.785156 196.265625 157.804688 196.265625 156.589844 C 196.265625 155.371094 195.285156 154.394531 194.070312 154.394531 L 177.113281 154.394531 C 175.898438 154.394531 174.894531 155.371094 174.894531 156.589844 C 174.894531 157.804688 175.898438 158.785156 177.113281 158.785156 " fill-opacity="1" fill-rule="nonzero"/><path fill="#0cc0df" d="M 235.835938 156.589844 C 235.835938 157.804688 236.8125 158.785156 238.03125 158.785156 L 264.402344 158.785156 C 265.617188 158.785156 266.597656 157.804688 266.597656 156.589844 C 266.597656 155.371094 265.617188 154.394531 264.402344 154.394531 L 238.03125 154.394531 C 236.8125 154.394531 235.835938 155.371094 235.835938 156.589844 " fill-opacity="1" fill-rule="nonzero"/><path fill="#0cc0df" d="M 323.09375 115.511719 C 323.09375 114.292969 322.117188 113.316406 320.898438 113.316406 L 308.96875 113.316406 C 307.753906 113.316406 306.773438 114.292969 306.773438 115.511719 C 306.773438 116.726562 307.753906 117.707031 308.96875 117.707031 L 320.898438 117.707031 C 322.117188 117.707031 323.09375 116.726562 323.09375 115.511719 " fill-opacity="1" fill-rule="nonzero"/><path fill="#0cc0df" d="M 177.113281 117.707031 L 212.265625 117.707031 C 213.484375 117.707031 214.460938 116.726562 214.460938 115.511719 C 214.460938 114.292969 213.484375 113.316406 212.265625 113.316406 L 177.113281 113.316406 C 175.898438 113.316406 174.894531 114.292969 174.894531 115.511719 C 174.894531 116.726562 175.898438 117.707031 177.113281 117.707031 " fill-opacity="1" fill-rule="nonzero"/><path fill="#0cc0df" d="M 218.851562 115.511719 C 218.851562 116.726562 219.859375 117.707031 221.046875 117.707031 L 256.226562 117.707031 C 257.445312 117.707031 258.421875 116.726562 258.421875 115.511719 C 258.421875 114.292969 257.445312 113.316406 256.226562 113.316406 L 221.046875 113.316406 C 219.859375 113.316406 218.851562 114.292969 218.851562 115.511719 " fill-opacity="1" fill-rule="nonzero"/><path fill="#0cc0df" d="M 262.8125 115.511719 C 262.8125 116.726562 263.792969 117.707031 265.007812 117.707031 L 300.1875 117.707031 C 301.40625 117.707031 302.382812 116.726562 302.382812 115.511719 C 302.382812 114.292969 301.40625 113.316406 300.1875 113.316406 L 265.007812 113.316406 C 263.792969 113.316406 262.8125 114.292969 262.8125 115.511719 " fill-opacity="1" fill-rule="nonzero"/><path fill="#0cc0df" d="M 232.976562 92.765625 L 197.824219 92.765625 C 196.609375 92.765625 195.628906 93.742188 195.628906 94.960938 C 195.628906 96.175781 196.609375 97.15625 197.824219 97.15625 L 232.976562 97.15625 C 234.195312 97.15625 235.171875 96.175781 235.171875 94.960938 C 235.171875 93.742188 234.195312 92.765625 232.976562 92.765625 " fill-opacity="1" fill-rule="nonzero"/><path fill="#0cc0df" d="M 177.113281 97.15625 L 189.015625 97.15625 C 190.234375 97.15625 191.238281 96.175781 191.238281 94.960938 C 191.238281 93.742188 190.234375 92.765625 189.015625 92.765625 L 177.113281 92.765625 C 175.898438 92.765625 174.894531 93.742188 174.894531 94.960938 C 174.894531 96.175781 175.898438 97.15625 177.113281 97.15625 " fill-opacity="1" fill-rule="nonzero"/><path fill="#0cc0df" d="M 276.9375 92.765625 L 241.785156 92.765625 C 240.570312 92.765625 239.5625 93.742188 239.5625 94.960938 C 239.5625 96.175781 240.570312 97.15625 241.785156 97.15625 L 276.9375 97.15625 C 278.15625 97.15625 279.132812 96.175781 279.132812 94.960938 C 279.132812 93.742188 278.15625 92.765625 276.9375 92.765625 " fill-opacity="1" fill-rule="nonzero"/><path fill="#0cc0df" d="M 320.898438 92.765625 L 285.71875 92.765625 C 284.503906 92.765625 283.523438 93.742188 283.523438 94.960938 C 283.523438 96.175781 284.503906 97.15625 285.71875 97.15625 L 320.898438 97.15625 C 322.117188 97.15625 323.09375 96.175781 323.09375 94.960938 C 323.09375 93.742188 322.117188 92.765625 320.898438 92.765625 " fill-opacity="1" fill-rule="nonzero"/><path fill="#0cc0df" d="M 228.535156 138.230469 C 229.75 138.230469 230.730469 137.253906 230.730469 136.035156 C 230.730469 134.820312 229.75 133.839844 228.535156 133.839844 L 224.144531 133.839844 C 222.925781 133.839844 221.949219 134.820312 221.949219 136.035156 C 221.949219 137.253906 222.925781 138.230469 224.144531 138.230469 L 228.535156 138.230469 " fill-opacity="1" fill-rule="nonzero"/><path fill="#0cc0df" d="M 177.113281 138.230469 L 177.988281 138.230469 C 179.203125 138.230469 180.210938 137.253906 180.210938 136.035156 C 180.210938 134.820312 179.203125 133.839844 177.988281 133.839844 L 177.113281 133.839844 C 175.898438 133.839844 174.894531 134.820312 174.894531 136.035156 C 174.894531 137.253906 175.898438 138.230469 177.113281 138.230469 " fill-opacity="1" fill-rule="nonzero"/><path fill="#0cc0df" d="M 186.796875 133.839844 C 185.578125 133.839844 184.601562 134.820312 184.601562 136.035156 C 184.601562 137.253906 185.578125 138.230469 186.796875 138.230469 L 191.1875 138.230469 C 192.402344 138.230469 193.382812 137.253906 193.382812 136.035156 C 193.382812 134.820312 192.402344 133.839844 191.1875 133.839844 L 186.796875 133.839844 " fill-opacity="1" fill-rule="nonzero"/><path fill="#0cc0df" d="M 265.910156 138.230469 C 267.125 138.230469 268.105469 137.253906 268.105469 136.035156 C 268.105469 134.820312 267.125 133.839844 265.910156 133.839844 L 261.519531 133.839844 C 260.300781 133.839844 259.324219 134.820312 259.324219 136.035156 C 259.324219 137.253906 260.300781 138.230469 261.519531 138.230469 L 265.910156 138.230469 " fill-opacity="1" fill-rule="nonzero"/><path fill="#0cc0df" d="M 217.558594 136.035156 C 217.558594 134.820312 216.578125 133.839844 215.363281 133.839844 L 199.96875 133.839844 C 198.75 133.839844 197.773438 134.820312 197.773438 136.035156 C 197.773438 137.253906 198.75 138.230469 199.96875 138.230469 L 215.363281 138.230469 C 216.578125 138.230469 217.558594 137.253906 217.558594 136.035156 " fill-opacity="1" fill-rule="nonzero"/><path fill="#0cc0df" d="M 290.085938 138.230469 C 291.300781 138.230469 292.28125 137.253906 292.28125 136.035156 C 292.28125 134.820312 291.300781 133.839844 290.085938 133.839844 L 274.691406 133.839844 C 273.472656 133.839844 272.496094 134.820312 272.496094 136.035156 C 272.496094 137.253906 273.472656 138.230469 274.691406 138.230469 L 290.085938 138.230469 " fill-opacity="1" fill-rule="nonzero"/><path fill="#0cc0df" d="M 252.710938 133.839844 L 237.34375 133.839844 C 236.125 133.839844 235.148438 134.820312 235.148438 136.035156 C 235.148438 137.253906 236.125 138.230469 237.34375 138.230469 L 252.710938 138.230469 C 253.925781 138.230469 254.90625 137.253906 254.90625 136.035156 C 254.90625 134.820312 253.925781 133.839844 252.710938 133.839844 " fill-opacity="1" fill-rule="nonzero"/><path fill="#0cc0df" d="M 262.945312 292.304688 C 264.136719 292.304688 265.140625 291.300781 265.140625 290.109375 C 265.140625 288.894531 264.136719 287.914062 262.945312 287.914062 C 261.730469 287.914062 260.75 288.894531 260.75 290.109375 C 260.75 291.300781 261.730469 292.304688 262.945312 292.304688 " fill-opacity="1" fill-rule="nonzero"/><path fill="#0cc0df" d="M 315.769531 252.84375 C 314.550781 252.84375 313.574219 253.820312 313.574219 255.039062 C 313.574219 256.226562 314.550781 257.234375 315.769531 257.234375 C 316.984375 257.234375 317.964844 256.226562 317.964844 255.039062 C 317.964844 253.820312 316.984375 252.84375 315.769531 252.84375 " fill-opacity="1" fill-rule="nonzero"/><path fill="#0cc0df" d="M 315.769531 261.625 C 314.550781 261.625 313.574219 262.601562 313.574219 263.820312 C 313.574219 265.035156 314.550781 266.015625 315.769531 266.015625 C 316.984375 266.015625 317.964844 265.035156 317.964844 263.820312 C 317.964844 262.601562 316.984375 261.625 315.769531 261.625 " fill-opacity="1" fill-rule="nonzero"/><path fill="#0cc0df" d="M 315.769531 235.253906 C 314.550781 235.253906 313.574219 236.203125 313.574219 237.449219 C 313.574219 238.664062 314.550781 239.644531 315.769531 239.644531 C 316.984375 239.644531 317.964844 238.664062 317.964844 237.449219 C 317.964844 236.203125 316.984375 235.253906 315.769531 235.253906 " fill-opacity="1" fill-rule="nonzero"/><path fill="#0cc0df" d="M 315.769531 226.472656 C 314.550781 226.472656 313.574219 227.449219 313.574219 228.667969 C 313.574219 229.855469 314.550781 230.863281 315.769531 230.863281 C 316.984375 230.863281 317.964844 229.855469 317.964844 228.667969 C 317.964844 227.449219 316.984375 226.472656 315.769531 226.472656 " fill-opacity="1" fill-rule="nonzero"/><path fill="#0cc0df" d="M 315.769531 270.40625 C 314.550781 270.40625 313.574219 271.410156 313.574219 272.601562 C 313.574219 273.816406 314.550781 274.796875 315.769531 274.796875 C 316.984375 274.796875 317.964844 273.816406 317.964844 272.601562 C 317.964844 271.410156 316.984375 270.40625 315.769531 270.40625 " fill-opacity="1" fill-rule="nonzero"/><path fill="#0cc0df" d="M 315.769531 244.035156 C 314.550781 244.035156 313.574219 245.039062 313.574219 246.230469 C 313.574219 247.445312 314.550781 248.425781 315.769531 248.425781 C 316.984375 248.425781 317.964844 247.445312 317.964844 246.230469 C 317.964844 245.039062 316.984375 244.035156 315.769531 244.035156 " fill-opacity="1" fill-rule="nonzero"/><path fill="#0cc0df" d="M 315.6875 287.914062 C 314.472656 287.914062 313.492188 288.894531 313.492188 290.109375 C 313.492188 291.300781 314.472656 292.304688 315.6875 292.304688 C 316.90625 292.304688 317.882812 291.300781 317.882812 290.109375 C 317.882812 288.894531 316.90625 287.914062 315.6875 287.914062 " fill-opacity="1" fill-rule="nonzero"/><path fill="#0cc0df" d="M 315.769531 279.214844 C 314.550781 279.214844 313.574219 280.191406 313.574219 281.410156 C 313.574219 282.597656 314.550781 283.605469 315.769531 283.605469 C 316.984375 283.605469 317.964844 282.597656 317.964844 281.410156 C 317.964844 280.191406 316.984375 279.214844 315.769531 279.214844 " fill-opacity="1" fill-rule="nonzero"/><path fill="#0cc0df" d="M 306.878906 287.914062 C 305.691406 287.914062 304.683594 288.894531 304.683594 290.109375 C 304.683594 291.300781 305.691406 292.304688 306.878906 292.304688 C 308.097656 292.304688 309.101562 291.300781 309.101562 290.109375 C 309.101562 288.894531 308.097656 287.914062 306.878906 287.914062 " fill-opacity="1" fill-rule="nonzero"/><path fill="#0cc0df" d="M 287.121094 290.109375 C 287.121094 291.300781 288.101562 292.304688 289.316406 292.304688 C 290.507812 292.304688 291.511719 291.300781 291.511719 290.109375 C 291.511719 288.894531 290.507812 287.914062 289.316406 287.914062 C 288.101562 287.914062 287.121094 288.894531 287.121094 290.109375 " fill-opacity="1" fill-rule="nonzero"/><path fill="#0cc0df" d="M 298.097656 292.304688 C 299.316406 292.304688 300.292969 291.300781 300.292969 290.109375 C 300.292969 288.894531 299.316406 287.914062 298.097656 287.914062 C 296.882812 287.914062 295.902344 288.894531 295.902344 290.109375 C 295.902344 291.300781 296.882812 292.304688 298.097656 292.304688 " fill-opacity="1" fill-rule="nonzero"/><path fill="#0cc0df" d="M 278.3125 290.109375 C 278.3125 291.300781 279.320312 292.304688 280.507812 292.304688 C 281.726562 292.304688 282.703125 291.300781 282.703125 290.109375 C 282.703125 288.894531 281.726562 287.914062 280.507812 287.914062 C 279.320312 287.914062 278.3125 288.894531 278.3125 290.109375 " fill-opacity="1" fill-rule="nonzero"/><path fill="#0cc0df" d="M 315.769531 217.664062 C 314.550781 217.664062 313.574219 218.640625 313.574219 219.859375 C 313.574219 221.074219 314.550781 222.054688 315.769531 222.054688 C 316.984375 222.054688 317.964844 221.074219 317.964844 219.859375 C 317.964844 218.640625 316.984375 217.664062 315.769531 217.664062 " fill-opacity="1" fill-rule="nonzero"/><path fill="#0cc0df" d="M 269.53125 290.109375 C 269.53125 291.300781 270.511719 292.304688 271.726562 292.304688 C 272.945312 292.304688 273.921875 291.300781 273.921875 290.109375 C 273.921875 288.894531 272.945312 287.914062 271.726562 287.914062 C 270.511719 287.914062 269.53125 288.894531 269.53125 290.109375 " fill-opacity="1" fill-rule="nonzero"/><path fill="#0cc0df" d="M 315.769531 191.292969 C 314.550781 191.292969 313.574219 192.269531 313.574219 193.488281 C 313.574219 194.703125 314.550781 195.683594 315.769531 195.683594 C 316.984375 195.683594 317.964844 194.703125 317.964844 193.488281 C 317.964844 192.269531 316.984375 191.292969 315.769531 191.292969 " fill-opacity="1" fill-rule="nonzero"/><path fill="#0cc0df" d="M 315.769531 208.882812 C 314.550781 208.882812 313.574219 209.859375 313.574219 211.078125 C 313.574219 212.292969 314.550781 213.273438 315.769531 213.273438 C 316.984375 213.273438 317.964844 212.292969 317.964844 211.078125 C 317.964844 209.859375 316.984375 208.882812 315.769531 208.882812 " fill-opacity="1" fill-rule="nonzero"/><path fill="#0cc0df" d="M 315.769531 200.074219 C 314.550781 200.074219 313.574219 201.078125 313.574219 202.296875 C 313.574219 203.484375 314.550781 204.492188 315.769531 204.492188 C 316.984375 204.492188 317.964844 203.484375 317.964844 202.296875 C 317.964844 201.078125 316.984375 200.074219 315.769531 200.074219 " fill-opacity="1" fill-rule="nonzero"/><path fill="#0cc0df" d="M 88.375 223.878906 C 88.824219 224.671875 89.75 225.09375 90.675781 224.9375 C 95.460938 224.039062 99.640625 224.039062 104.429688 224.9375 C 105.355469 225.09375 106.253906 224.671875 106.730469 223.878906 L 111.226562 216.101562 L 130.429688 227.183594 L 125.960938 234.933594 C 125.351562 235.992188 125.722656 237.34375 126.753906 237.949219 C 126.832031 237.976562 126.886719 237.976562 126.9375 238.003906 C 127.96875 238.480469 129.1875 238.136719 129.769531 237.128906 L 135.347656 227.476562 C 135.640625 226.972656 135.71875 226.367188 135.5625 225.808594 C 135.429688 225.253906 135.058594 224.777344 134.554688 224.488281 L 111.515625 211.210938 C 110.460938 210.601562 109.109375 210.972656 108.5 212.003906 L 103.6875 220.359375 C 99.480469 219.726562 95.621094 219.726562 91.414062 220.359375 L 86.574219 212.003906 C 85.964844 210.972656 84.644531 210.601562 83.585938 211.210938 L 60.546875 224.488281 C 60.042969 224.777344 59.675781 225.253906 59.515625 225.808594 C 59.382812 226.367188 59.4375 226.972656 59.753906 227.476562 L 64.566406 235.808594 C 62.027344 239.035156 59.964844 242.578125 58.457031 246.414062 L 48.777344 246.414062 C 47.558594 246.414062 46.582031 247.394531 46.582031 248.609375 L 46.582031 275.140625 C 46.582031 276.355469 47.558594 277.335938 48.777344 277.335938 L 58.457031 277.335938 C 59.964844 281.171875 62.027344 284.742188 64.566406 287.941406 L 59.753906 296.273438 C 59.460938 296.777344 59.382812 297.386719 59.515625 297.941406 C 59.675781 298.523438 60.042969 299 60.546875 299.289062 L 83.585938 312.539062 C 83.929688 312.753906 84.300781 312.832031 84.671875 312.832031 C 85.4375 312.832031 86.175781 312.460938 86.574219 311.746094 L 91.414062 303.414062 C 93.503906 303.734375 95.542969 303.890625 97.550781 303.890625 C 98.769531 303.890625 99.746094 302.886719 99.746094 301.695312 C 99.746094 300.796875 99.21875 300.054688 98.476562 299.710938 C 98.1875 299.582031 97.867188 299.472656 97.550781 299.472656 C 95.328125 299.472656 93.082031 299.261719 90.675781 298.839844 C 89.75 298.65625 88.824219 299.078125 88.375 299.898438 L 83.875 307.648438 L 64.648438 296.566406 L 69.144531 288.816406 C 69.59375 288.019531 69.515625 286.988281 68.90625 286.300781 C 65.917969 282.785156 63.589844 278.789062 62.027344 274.425781 C 61.738281 273.527344 60.890625 272.945312 59.964844 272.945312 L 50.972656 272.945312 L 50.972656 250.804688 L 59.964844 250.804688 C 60.890625 250.804688 61.738281 250.222656 62.027344 249.351562 C 63.589844 244.960938 65.917969 240.964844 68.90625 237.472656 C 69.515625 236.761719 69.59375 235.753906 69.144531 234.933594 L 64.648438 227.183594 L 83.875 216.101562 L 88.375 223.878906 " fill-opacity="1" fill-rule="nonzero"/><g clip-path="url(#e5ed9a1499)"><path fill="#0cc0df" d="M 251.890625 306.617188 C 251.890625 307.621094 251.070312 308.441406 250.066406 308.441406 L 206.765625 308.441406 C 205.761719 308.441406 204.941406 307.621094 204.941406 306.617188 L 204.941406 302.570312 L 208.617188 302.570312 C 212.242188 302.570312 215.203125 299.605469 215.203125 295.984375 L 215.203125 292.304688 L 233.558594 292.304688 C 234.777344 292.304688 235.753906 291.328125 235.753906 290.109375 C 235.753906 288.894531 234.777344 287.914062 233.558594 287.914062 L 215.203125 287.914062 L 215.203125 284.238281 C 215.203125 280.589844 212.242188 277.625 208.617188 277.625 L 204.941406 277.625 L 204.941406 273.605469 C 204.941406 272.574219 205.761719 271.753906 206.765625 271.753906 L 250.066406 271.753906 C 251.070312 271.753906 251.890625 272.574219 251.890625 273.605469 Z M 222.769531 331.1875 C 213.246094 339.414062 200.867188 344.386719 187.324219 344.386719 C 173.808594 344.386719 161.429688 339.414062 151.90625 331.1875 C 146.0625 326.164062 141.328125 319.921875 138.046875 312.832031 L 167.910156 312.832031 C 171.320312 312.832031 174.125 310.054688 174.125 306.617188 L 174.125 302.570312 L 200.550781 302.570312 L 200.550781 306.617188 C 200.550781 310.054688 203.328125 312.832031 206.765625 312.832031 L 236.601562 312.832031 C 233.347656 319.921875 228.585938 326.164062 222.769531 331.1875 Z M 133.894531 308.441406 L 124.609375 308.441406 C 123.605469 308.441406 122.785156 307.621094 122.785156 306.617188 L 122.785156 273.605469 C 122.785156 272.574219 123.605469 271.753906 124.609375 271.753906 L 167.910156 271.753906 C 168.914062 271.753906 169.734375 272.574219 169.734375 273.605469 L 169.734375 277.625 L 166.058594 277.625 C 162.40625 277.625 159.472656 280.589844 159.472656 284.238281 L 159.472656 287.914062 L 141.117188 287.914062 C 139.898438 287.914062 138.921875 288.894531 138.921875 290.109375 C 138.921875 291.328125 139.898438 292.304688 141.117188 292.304688 L 159.472656 292.304688 L 159.472656 295.984375 C 159.472656 299.605469 162.40625 302.570312 166.058594 302.570312 L 169.734375 302.570312 L 169.734375 306.617188 C 169.734375 307.621094 168.914062 308.441406 167.910156 308.441406 Z M 204.941406 282.042969 L 208.617188 282.042969 C 209.832031 282.042969 210.8125 283.023438 210.8125 284.238281 L 210.8125 295.984375 C 210.8125 297.199219 209.832031 298.179688 208.617188 298.179688 L 166.058594 298.179688 C 164.839844 298.179688 163.863281 297.199219 163.863281 295.984375 L 163.863281 284.238281 C 163.863281 283.023438 164.839844 282.042969 166.058594 282.042969 Z M 187.324219 235.808594 C 209.144531 235.808594 228.003906 248.769531 236.601562 267.363281 L 206.765625 267.363281 C 203.328125 267.363281 200.550781 270.167969 200.550781 273.605469 L 200.550781 277.625 L 174.125 277.625 L 174.125 273.605469 C 174.125 270.167969 171.320312 267.363281 167.910156 267.363281 L 138.046875 267.363281 C 146.671875 248.769531 165.503906 235.808594 187.324219 235.808594 Z M 256.308594 306.617188 L 256.308594 290.347656 C 256.308594 290.269531 256.332031 290.191406 256.332031 290.109375 C 256.332031 290.003906 256.308594 289.925781 256.308594 289.847656 L 256.308594 273.605469 C 256.308594 270.167969 253.503906 267.363281 250.066406 267.363281 L 241.441406 267.363281 C 232.527344 246.257812 211.632812 231.417969 187.324219 231.417969 C 163.042969 231.417969 142.148438 246.257812 133.234375 267.363281 L 124.609375 267.363281 C 121.171875 267.363281 118.367188 270.167969 118.367188 273.605469 L 118.367188 306.617188 C 118.367188 310.054688 121.171875 312.832031 124.609375 312.832031 L 133.234375 312.832031 C 136.144531 319.734375 140.320312 325.925781 145.480469 331.1875 C 156.140625 342.035156 170.953125 348.804688 187.324219 348.804688 C 203.695312 348.804688 218.535156 342.035156 229.195312 331.1875 C 234.351562 325.925781 238.53125 319.734375 241.441406 312.832031 L 250.066406 312.832031 C 253.503906 312.832031 256.308594 310.054688 256.308594 306.617188 " fill-opacity="1" fill-rule="nonzero"/></g><path fill="#0cc0df" d="M 297.386719 192.535156 C 297.386719 182.828125 289.476562 174.917969 279.769531 174.917969 L 228.429688 174.917969 C 218.722656 174.917969 210.8125 182.828125 210.8125 192.535156 C 210.8125 202.242188 218.722656 210.125 228.429688 210.125 C 229.644531 210.125 230.625 209.144531 230.625 207.929688 C 230.625 206.710938 229.644531 205.734375 228.429688 205.734375 C 221.128906 205.734375 215.203125 199.808594 215.203125 192.535156 C 215.203125 185.261719 221.128906 179.335938 228.429688 179.335938 L 279.769531 179.335938 C 287.042969 179.335938 292.96875 185.261719 292.96875 192.535156 C 292.96875 199.808594 287.042969 205.734375 279.769531 205.734375 C 278.550781 205.734375 277.574219 206.710938 277.574219 207.929688 C 277.574219 209.144531 278.550781 210.125 279.769531 210.125 C 289.476562 210.125 297.386719 202.242188 297.386719 192.535156 " fill-opacity="1" fill-rule="nonzero"/><path fill="#0cc0df" d="M 256.835938 207.164062 C 258 207.507812 259.214844 206.871094 259.585938 205.707031 C 259.929688 204.542969 259.296875 203.328125 258.132812 202.957031 L 246.363281 199.332031 C 245.566406 199.09375 244.722656 199.304688 244.140625 199.863281 C 243.585938 200.445312 243.371094 201.289062 243.609375 202.082031 L 245.410156 207.929688 L 247.234375 213.855469 C 247.527344 214.804688 248.398438 215.414062 249.324219 215.414062 C 249.5625 215.414062 249.773438 215.363281 249.984375 215.308594 C 251.148438 214.9375 251.785156 213.722656 251.441406 212.558594 L 251.097656 211.445312 L 250.011719 207.929688 L 249.035156 204.753906 L 255.726562 206.820312 L 256.835938 207.164062 " fill-opacity="1" fill-rule="nonzero"/><path fill="#0cc0df" d="M 260.9375 219.753906 C 261.359375 220.203125 261.914062 220.414062 262.46875 220.414062 C 263.050781 220.414062 263.609375 220.203125 264.03125 219.753906 C 264.902344 218.90625 264.902344 217.503906 264.03125 216.65625 L 256.785156 209.382812 C 255.910156 208.539062 254.535156 208.539062 253.664062 209.382812 C 252.816406 210.257812 252.816406 211.632812 253.664062 212.503906 L 260.9375 219.753906 " fill-opacity="1" fill-rule="nonzero"/></svg>