<svg xmlns="http://www.w3.org/2000/svg" xmlns:xlink="http://www.w3.org/1999/xlink" width="500" zoomAndPan="magnify" viewBox="0 0 375 374.999991" height="500" preserveAspectRatio="xMidYMid meet" version="1.0"><defs><clipPath id="e712cf71f4"><path d="M 24.789062 23.148438 L 350.289062 23.148438 L 350.289062 351.648438 L 24.789062 351.648438 Z M 24.789062 23.148438 " clip-rule="nonzero"/></clipPath></defs><g clip-path="url(#e712cf71f4)"><path fill="#0cc0df" d="M 318.371094 23.277344 L 56.964844 23.277344 C 55.398438 23.285156 53.839844 23.410156 52.292969 23.644531 C 50.742188 23.878906 49.21875 24.222656 47.722656 24.683594 C 46.226562 25.140625 44.769531 25.703125 43.351562 26.371094 C 41.9375 27.042969 40.578125 27.808594 39.273438 28.679688 C 37.96875 29.546875 36.738281 30.503906 35.574219 31.550781 C 34.410156 32.601562 33.328125 33.726562 32.328125 34.933594 C 31.328125 36.136719 30.421875 37.410156 29.609375 38.75 C 28.792969 40.085938 28.082031 41.476562 27.472656 42.917969 C 25.777344 46.902344 24.9375 51.058594 24.957031 55.386719 L 24.957031 319.605469 C 24.957031 320.65625 25.011719 321.703125 25.113281 322.746094 C 25.21875 323.789062 25.371094 324.828125 25.578125 325.855469 C 25.78125 326.886719 26.039062 327.902344 26.34375 328.90625 C 26.648438 329.910156 27 330.894531 27.402344 331.867188 C 27.800781 332.835938 28.25 333.78125 28.742188 334.707031 C 29.238281 335.632812 29.777344 336.53125 30.359375 337.40625 C 30.941406 338.277344 31.5625 339.121094 32.226562 339.933594 C 32.890625 340.742188 33.59375 341.519531 34.335938 342.265625 C 35.078125 343.007812 35.851562 343.710938 36.660156 344.378906 C 37.472656 345.046875 38.3125 345.671875 39.183594 346.257812 C 40.054688 346.84375 40.949219 347.382812 41.875 347.878906 C 42.796875 348.375 43.746094 348.828125 44.714844 349.230469 C 45.679688 349.636719 46.667969 349.992188 47.667969 350.300781 C 48.671875 350.609375 49.6875 350.867188 50.714844 351.074219 C 51.746094 351.28125 52.78125 351.441406 53.824219 351.546875 C 54.867188 351.652344 55.914062 351.707031 56.964844 351.714844 L 318.371094 351.714844 C 319.421875 351.710938 320.46875 351.660156 321.515625 351.554688 C 322.5625 351.453125 323.601562 351.296875 324.632812 351.089844 C 325.664062 350.886719 326.679688 350.628906 327.6875 350.324219 C 328.691406 350.015625 329.679688 349.664062 330.652344 349.261719 C 331.621094 348.859375 332.570312 348.410156 333.5 347.914062 C 334.425781 347.417969 335.324219 346.875 336.199219 346.292969 C 337.074219 345.707031 337.917969 345.082031 338.730469 344.414062 C 339.542969 343.75 340.320312 343.042969 341.0625 342.300781 C 341.804688 341.554688 342.511719 340.777344 343.179688 339.964844 C 343.84375 339.152344 344.472656 338.308594 345.054688 337.4375 C 345.640625 336.5625 346.179688 335.664062 346.675781 334.734375 C 347.171875 333.808594 347.621094 332.859375 348.023438 331.886719 C 348.425781 330.917969 348.78125 329.929688 349.085938 328.921875 C 349.390625 327.917969 349.648438 326.898438 349.855469 325.867188 C 350.058594 324.835938 350.214844 323.800781 350.320312 322.753906 C 350.421875 321.707031 350.476562 320.660156 350.476562 319.605469 L 350.476562 55.386719 C 350.476562 54.332031 350.425781 53.285156 350.324219 52.238281 C 350.222656 51.191406 350.070312 50.152344 349.863281 49.121094 C 349.660156 48.085938 349.40625 47.066406 349.101562 46.0625 C 348.796875 45.054688 348.441406 44.066406 348.042969 43.09375 C 347.640625 42.121094 347.191406 41.171875 346.695312 40.242188 C 346.199219 39.316406 345.660156 38.414062 345.074219 37.539062 C 344.492188 36.664062 343.867188 35.820312 343.199219 35.007812 C 342.53125 34.195312 341.824219 33.417969 341.082031 32.671875 C 340.339844 31.929688 339.558594 31.222656 338.746094 30.554688 C 337.933594 29.890625 337.089844 29.265625 336.214844 28.679688 C 335.339844 28.09375 334.4375 27.554688 333.511719 27.058594 C 332.582031 26.566406 331.632812 26.117188 330.660156 25.714844 C 329.691406 25.3125 328.699219 24.957031 327.695312 24.652344 C 326.6875 24.347656 325.667969 24.09375 324.636719 23.890625 C 323.605469 23.6875 322.566406 23.53125 321.519531 23.429688 C 320.472656 23.328125 319.421875 23.277344 318.371094 23.277344 Z M 33.503906 45.53125 C 33.988281 44.386719 34.554688 43.28125 35.199219 42.21875 C 35.847656 41.152344 36.570312 40.144531 37.363281 39.1875 C 38.160156 38.226562 39.019531 37.332031 39.945312 36.5 C 40.871094 35.667969 41.851562 34.910156 42.890625 34.222656 C 43.929688 33.535156 45.011719 32.925781 46.136719 32.398438 C 47.261719 31.867188 48.421875 31.425781 49.613281 31.066406 C 50.804688 30.707031 52.019531 30.4375 53.25 30.253906 C 54.480469 30.074219 55.71875 29.980469 56.964844 29.980469 L 318.371094 29.980469 C 319.203125 29.980469 320.03125 30.023438 320.859375 30.105469 C 321.6875 30.1875 322.511719 30.308594 323.324219 30.46875 C 324.140625 30.632812 324.949219 30.835938 325.746094 31.074219 C 326.539062 31.316406 327.324219 31.597656 328.089844 31.914062 C 328.859375 32.234375 329.613281 32.589844 330.34375 32.980469 C 331.078125 33.375 331.792969 33.800781 332.484375 34.261719 C 333.175781 34.726562 333.84375 35.21875 334.484375 35.75 C 335.128906 36.277344 335.746094 36.835938 336.332031 37.421875 C 336.921875 38.011719 337.480469 38.625 338.007812 39.269531 C 338.535156 39.914062 339.03125 40.582031 339.492188 41.273438 C 339.953125 41.964844 340.382812 42.675781 340.773438 43.410156 C 341.167969 44.144531 341.519531 44.894531 341.839844 45.664062 C 342.15625 46.433594 342.4375 47.214844 342.679688 48.011719 C 342.921875 48.808594 343.121094 49.613281 343.285156 50.429688 C 343.449219 51.246094 343.570312 52.066406 343.652344 52.894531 C 343.734375 53.722656 343.773438 54.554688 343.773438 55.386719 L 343.773438 87.691406 L 31.660156 87.691406 L 31.660156 55.386719 C 31.613281 51.976562 32.226562 48.691406 33.503906 45.53125 Z M 318.371094 345.011719 L 56.964844 345.011719 C 56.132812 345.007812 55.300781 344.96875 54.472656 344.886719 C 53.648438 344.800781 52.824219 344.679688 52.007812 344.515625 C 51.195312 344.355469 50.386719 344.152344 49.59375 343.910156 C 48.796875 343.667969 48.015625 343.386719 47.246094 343.066406 C 46.480469 342.75 45.726562 342.394531 44.996094 342 C 44.261719 341.609375 43.550781 341.179688 42.859375 340.71875 C 42.167969 340.257812 41.5 339.761719 40.855469 339.234375 C 40.214844 338.707031 39.597656 338.148438 39.011719 337.558594 C 38.421875 336.972656 37.863281 336.355469 37.335938 335.714844 C 36.808594 335.070312 36.3125 334.402344 35.851562 333.710938 C 35.390625 333.019531 34.960938 332.308594 34.570312 331.574219 C 34.175781 330.84375 33.820312 330.089844 33.503906 329.324219 C 33.183594 328.554688 32.902344 327.773438 32.660156 326.976562 C 32.417969 326.183594 32.214844 325.375 32.054688 324.5625 C 31.890625 323.746094 31.769531 322.921875 31.683594 322.097656 C 31.601562 321.269531 31.5625 320.4375 31.558594 319.605469 L 31.558594 94.394531 L 343.574219 94.394531 L 343.574219 319.605469 C 343.570312 320.433594 343.53125 321.261719 343.449219 322.082031 C 343.367188 322.90625 343.246094 323.726562 343.082031 324.535156 C 342.921875 325.347656 342.722656 326.148438 342.480469 326.941406 C 342.242188 327.734375 341.964844 328.511719 341.648438 329.277344 C 341.332031 330.042969 340.980469 330.789062 340.59375 331.519531 C 340.203125 332.25 339.78125 332.960938 339.324219 333.648438 C 338.863281 334.339844 338.375 335.003906 337.851562 335.644531 C 337.328125 336.289062 336.777344 336.902344 336.195312 337.488281 C 335.609375 338.078125 335 338.636719 334.363281 339.164062 C 333.726562 339.691406 333.066406 340.1875 332.378906 340.648438 C 331.695312 341.113281 330.988281 341.542969 330.257812 341.9375 C 329.53125 342.332031 328.785156 342.6875 328.023438 343.011719 C 327.261719 343.332031 326.484375 343.617188 325.695312 343.863281 C 324.90625 344.109375 324.105469 344.316406 323.296875 344.484375 C 322.484375 344.652344 321.667969 344.777344 320.84375 344.867188 C 320.023438 344.953125 319.199219 345.003906 318.371094 345.011719 Z M 63.195312 72.074219 C 64.078125 72.074219 64.953125 71.988281 65.820312 71.816406 C 66.683594 71.644531 67.523438 71.386719 68.339844 71.050781 C 69.15625 70.710938 69.929688 70.296875 70.660156 69.804688 C 71.394531 69.3125 72.074219 68.753906 72.695312 68.128906 C 73.316406 67.503906 73.875 66.824219 74.363281 66.085938 C 74.851562 65.351562 75.261719 64.578125 75.597656 63.761719 C 75.933594 62.945312 76.183594 62.101562 76.351562 61.234375 C 76.523438 60.371094 76.605469 59.496094 76.601562 58.613281 C 76.597656 57.730469 76.507812 56.855469 76.332031 55.992188 C 76.15625 55.128906 75.894531 54.289062 75.554688 53.472656 C 75.210938 52.660156 74.792969 51.890625 74.300781 51.15625 C 73.804688 50.425781 73.242188 49.75 72.613281 49.132812 C 71.988281 48.511719 71.304688 47.957031 70.566406 47.472656 C 69.832031 46.988281 69.054688 46.578125 68.234375 46.246094 C 67.417969 45.914062 66.574219 45.667969 65.707031 45.5 C 64.839844 45.335938 63.964844 45.257812 63.082031 45.265625 C 62.203125 45.273438 61.328125 45.367188 60.464844 45.546875 C 59.601562 45.726562 58.761719 45.988281 57.949219 46.332031 C 57.136719 46.679688 56.367188 47.101562 55.636719 47.597656 C 54.910156 48.09375 54.234375 48.660156 53.617188 49.289062 C 53 49.921875 52.449219 50.605469 51.96875 51.34375 C 51.488281 52.082031 51.082031 52.863281 50.753906 53.683594 C 50.425781 54.5 50.179688 55.34375 50.015625 56.210938 C 49.855469 57.078125 49.78125 57.953125 49.792969 58.835938 C 49.800781 59.710938 49.898438 60.574219 50.078125 61.429688 C 50.257812 62.28125 50.519531 63.113281 50.859375 63.914062 C 51.203125 64.71875 51.617188 65.480469 52.109375 66.203125 C 52.597656 66.925781 53.15625 67.59375 53.777344 68.207031 C 54.398438 68.820312 55.074219 69.371094 55.800781 69.851562 C 56.53125 70.332031 57.296875 70.738281 58.105469 71.070312 C 58.914062 71.402344 59.746094 71.652344 60.601562 71.820312 C 61.457031 71.992188 62.324219 72.074219 63.195312 72.074219 Z M 63.195312 52.300781 C 63.640625 52.300781 64.078125 52.34375 64.511719 52.433594 C 64.945312 52.519531 65.367188 52.648438 65.773438 52.816406 C 66.183594 52.988281 66.570312 53.195312 66.9375 53.445312 C 67.304688 53.691406 67.644531 53.972656 67.957031 54.285156 C 68.265625 54.601562 68.542969 54.941406 68.789062 55.3125 C 69.03125 55.679688 69.238281 56.070312 69.402344 56.480469 C 69.570312 56.890625 69.695312 57.3125 69.777344 57.746094 C 69.863281 58.179688 69.902344 58.621094 69.898438 59.0625 C 69.894531 59.503906 69.847656 59.941406 69.757812 60.375 C 69.664062 60.808594 69.535156 61.226562 69.359375 61.636719 C 69.1875 62.042969 68.972656 62.429688 68.722656 62.792969 C 68.472656 63.15625 68.191406 63.496094 67.875 63.804688 C 67.558594 64.113281 67.214844 64.386719 66.84375 64.628906 C 66.472656 64.867188 66.078125 65.070312 65.667969 65.234375 C 65.257812 65.398438 64.832031 65.519531 64.398438 65.597656 C 63.964844 65.679688 63.523438 65.714844 63.082031 65.707031 C 62.640625 65.699219 62.203125 65.648438 61.769531 65.554688 C 61.339844 65.460938 60.917969 65.324219 60.511719 65.148438 C 60.109375 64.972656 59.722656 64.757812 59.359375 64.503906 C 59 64.25 58.664062 63.964844 58.355469 63.644531 C 58.050781 63.324219 57.777344 62.980469 57.542969 62.605469 C 57.304688 62.230469 57.105469 61.839844 56.945312 61.425781 C 56.785156 61.015625 56.667969 60.589844 56.589844 60.15625 C 56.515625 59.71875 56.484375 59.28125 56.492188 58.835938 C 56.503906 58.402344 56.558594 57.976562 56.652344 57.554688 C 56.746094 57.128906 56.878906 56.71875 57.050781 56.324219 C 57.226562 55.925781 57.433594 55.550781 57.679688 55.195312 C 57.925781 54.835938 58.207031 54.507812 58.515625 54.207031 C 58.824219 53.902344 59.160156 53.632812 59.523438 53.394531 C 59.886719 53.160156 60.269531 52.957031 60.671875 52.796875 C 61.070312 52.632812 61.484375 52.507812 61.910156 52.425781 C 62.335938 52.34375 62.765625 52.300781 63.195312 52.300781 Z M 96.507812 72.074219 C 97.390625 72.074219 98.265625 71.988281 99.132812 71.816406 C 99.996094 71.644531 100.835938 71.386719 101.652344 71.050781 C 102.46875 70.710938 103.242188 70.296875 103.972656 69.804688 C 104.707031 69.3125 105.386719 68.753906 106.007812 68.128906 C 106.628906 67.503906 107.1875 66.824219 107.675781 66.085938 C 108.164062 65.351562 108.574219 64.578125 108.910156 63.761719 C 109.246094 62.945312 109.496094 62.101562 109.664062 61.234375 C 109.835938 60.371094 109.917969 59.496094 109.914062 58.613281 C 109.910156 57.730469 109.820312 56.855469 109.644531 55.992188 C 109.46875 55.128906 109.207031 54.289062 108.867188 53.472656 C 108.523438 52.660156 108.105469 51.890625 107.613281 51.15625 C 107.117188 50.425781 106.554688 49.75 105.925781 49.132812 C 105.300781 48.511719 104.617188 47.957031 103.878906 47.472656 C 103.144531 46.988281 102.367188 46.578125 101.546875 46.246094 C 100.730469 45.914062 99.886719 45.667969 99.019531 45.5 C 98.152344 45.335938 97.277344 45.257812 96.394531 45.265625 C 95.515625 45.273438 94.640625 45.367188 93.777344 45.546875 C 92.914062 45.726562 92.074219 45.988281 91.261719 46.332031 C 90.449219 46.679688 89.679688 47.101562 88.949219 47.597656 C 88.222656 48.09375 87.546875 48.660156 86.929688 49.289062 C 86.3125 49.921875 85.761719 50.605469 85.28125 51.34375 C 84.800781 52.082031 84.394531 52.863281 84.066406 53.683594 C 83.738281 54.5 83.492188 55.34375 83.332031 56.210938 C 83.167969 57.078125 83.09375 57.953125 83.105469 58.835938 C 83.113281 59.710938 83.210938 60.574219 83.390625 61.429688 C 83.570312 62.28125 83.832031 63.113281 84.171875 63.914062 C 84.515625 64.71875 84.929688 65.480469 85.421875 66.203125 C 85.910156 66.925781 86.46875 67.59375 87.089844 68.207031 C 87.710938 68.820312 88.386719 69.371094 89.113281 69.851562 C 89.84375 70.332031 90.609375 70.738281 91.417969 71.070312 C 92.226562 71.402344 93.058594 71.652344 93.914062 71.820312 C 94.769531 71.992188 95.636719 72.074219 96.507812 72.074219 Z M 96.507812 52.300781 C 96.953125 52.300781 97.390625 52.34375 97.824219 52.433594 C 98.257812 52.519531 98.679688 52.648438 99.085938 52.816406 C 99.496094 52.988281 99.882812 53.195312 100.25 53.445312 C 100.617188 53.691406 100.957031 53.972656 101.269531 54.285156 C 101.578125 54.601562 101.855469 54.941406 102.101562 55.3125 C 102.34375 55.679688 102.550781 56.070312 102.714844 56.480469 C 102.882812 56.890625 103.007812 57.3125 103.089844 57.746094 C 103.175781 58.179688 103.214844 58.621094 103.210938 59.0625 C 103.207031 59.503906 103.160156 59.941406 103.070312 60.375 C 102.976562 60.808594 102.847656 61.226562 102.671875 61.636719 C 102.5 62.042969 102.285156 62.429688 102.035156 62.792969 C 101.785156 63.15625 101.503906 63.496094 101.1875 63.804688 C 100.871094 64.113281 100.527344 64.386719 100.15625 64.628906 C 99.785156 64.867188 99.390625 65.070312 98.980469 65.234375 C 98.570312 65.398438 98.148438 65.519531 97.710938 65.597656 C 97.277344 65.679688 96.835938 65.714844 96.394531 65.707031 C 95.953125 65.699219 95.515625 65.648438 95.082031 65.554688 C 94.652344 65.460938 94.230469 65.324219 93.828125 65.148438 C 93.421875 64.972656 93.035156 64.757812 92.671875 64.503906 C 92.3125 64.25 91.976562 63.964844 91.667969 63.644531 C 91.363281 63.324219 91.089844 62.980469 90.855469 62.605469 C 90.617188 62.230469 90.417969 61.839844 90.257812 61.425781 C 90.097656 61.015625 89.980469 60.589844 89.902344 60.15625 C 89.828125 59.71875 89.796875 59.28125 89.808594 58.835938 C 89.816406 58.402344 89.871094 57.976562 89.964844 57.554688 C 90.058594 57.128906 90.191406 56.71875 90.363281 56.324219 C 90.539062 55.925781 90.746094 55.550781 90.992188 55.195312 C 91.238281 54.835938 91.519531 54.507812 91.828125 54.207031 C 92.136719 53.902344 92.472656 53.632812 92.835938 53.394531 C 93.199219 53.160156 93.582031 52.957031 93.984375 52.796875 C 94.382812 52.632812 94.796875 52.507812 95.222656 52.425781 C 95.648438 52.34375 96.078125 52.300781 96.507812 52.300781 Z M 131.898438 72.074219 C 132.78125 72.074219 133.65625 71.988281 134.523438 71.816406 C 135.386719 71.644531 136.226562 71.386719 137.042969 71.050781 C 137.859375 70.710938 138.632812 70.296875 139.363281 69.804688 C 140.097656 69.3125 140.777344 68.753906 141.398438 68.128906 C 142.019531 67.503906 142.578125 66.824219 143.066406 66.085938 C 143.554688 65.351562 143.964844 64.578125 144.300781 63.761719 C 144.636719 62.945312 144.886719 62.101562 145.054688 61.234375 C 145.226562 60.371094 145.308594 59.496094 145.304688 58.613281 C 145.300781 57.730469 145.210938 56.855469 145.035156 55.992188 C 144.859375 55.128906 144.597656 54.289062 144.257812 53.472656 C 143.914062 52.660156 143.496094 51.890625 143.003906 51.15625 C 142.507812 50.425781 141.945312 49.75 141.316406 49.132812 C 140.691406 48.511719 140.007812 47.957031 139.269531 47.472656 C 138.535156 46.988281 137.757812 46.578125 136.9375 46.246094 C 136.121094 45.914062 135.277344 45.667969 134.410156 45.5 C 133.542969 45.335938 132.667969 45.257812 131.785156 45.265625 C 130.90625 45.273438 130.03125 45.367188 129.167969 45.546875 C 128.304688 45.726562 127.464844 45.988281 126.652344 46.332031 C 125.839844 46.679688 125.070312 47.101562 124.339844 47.597656 C 123.613281 48.09375 122.9375 48.660156 122.320312 49.289062 C 121.703125 49.921875 121.152344 50.605469 120.671875 51.34375 C 120.191406 52.082031 119.785156 52.863281 119.457031 53.683594 C 119.128906 54.5 118.882812 55.34375 118.71875 56.210938 C 118.558594 57.078125 118.484375 57.953125 118.496094 58.835938 C 118.503906 59.710938 118.601562 60.574219 118.78125 61.429688 C 118.960938 62.28125 119.222656 63.113281 119.5625 63.914062 C 119.902344 64.71875 120.320312 65.480469 120.8125 66.203125 C 121.300781 66.925781 121.859375 67.59375 122.480469 68.207031 C 123.101562 68.820312 123.777344 69.371094 124.503906 69.851562 C 125.230469 70.332031 126 70.738281 126.808594 71.070312 C 127.617188 71.402344 128.449219 71.652344 129.304688 71.820312 C 130.160156 71.992188 131.027344 72.074219 131.898438 72.074219 Z M 131.898438 52.300781 C 132.34375 52.300781 132.78125 52.34375 133.214844 52.433594 C 133.648438 52.519531 134.070312 52.648438 134.476562 52.816406 C 134.886719 52.988281 135.273438 53.195312 135.640625 53.445312 C 136.007812 53.691406 136.347656 53.972656 136.660156 54.285156 C 136.96875 54.601562 137.246094 54.941406 137.492188 55.3125 C 137.734375 55.679688 137.941406 56.070312 138.105469 56.480469 C 138.273438 56.890625 138.398438 57.3125 138.480469 57.746094 C 138.5625 58.179688 138.605469 58.621094 138.601562 59.0625 C 138.597656 59.503906 138.550781 59.941406 138.457031 60.375 C 138.367188 60.808594 138.238281 61.226562 138.0625 61.636719 C 137.890625 62.042969 137.675781 62.429688 137.425781 62.792969 C 137.175781 63.15625 136.894531 63.496094 136.578125 63.804688 C 136.261719 64.113281 135.917969 64.386719 135.546875 64.628906 C 135.175781 64.867188 134.78125 65.070312 134.371094 65.234375 C 133.960938 65.398438 133.535156 65.519531 133.101562 65.597656 C 132.667969 65.679688 132.226562 65.714844 131.785156 65.707031 C 131.34375 65.699219 130.90625 65.648438 130.472656 65.554688 C 130.042969 65.460938 129.621094 65.324219 129.214844 65.148438 C 128.8125 64.972656 128.425781 64.757812 128.0625 64.503906 C 127.699219 64.25 127.367188 63.964844 127.058594 63.644531 C 126.753906 63.324219 126.480469 62.980469 126.246094 62.605469 C 126.007812 62.230469 125.808594 61.839844 125.648438 61.425781 C 125.488281 61.015625 125.371094 60.589844 125.292969 60.15625 C 125.21875 59.71875 125.1875 59.28125 125.195312 58.835938 C 125.207031 58.402344 125.261719 57.976562 125.355469 57.554688 C 125.449219 57.128906 125.582031 56.71875 125.753906 56.324219 C 125.929688 55.925781 126.136719 55.550781 126.382812 55.195312 C 126.628906 54.835938 126.910156 54.507812 127.21875 54.207031 C 127.527344 53.902344 127.863281 53.632812 128.226562 53.394531 C 128.589844 53.160156 128.972656 52.957031 129.371094 52.796875 C 129.773438 52.632812 130.1875 52.507812 130.613281 52.425781 C 131.039062 52.34375 131.464844 52.300781 131.898438 52.300781 Z M 190.714844 58.835938 C 190.714844 58.394531 190.800781 57.964844 190.972656 57.554688 C 191.140625 57.144531 191.382812 56.78125 191.699219 56.46875 C 192.011719 56.152344 192.375 55.910156 192.785156 55.742188 C 193.195312 55.570312 193.625 55.484375 194.066406 55.484375 L 319.105469 55.484375 C 319.550781 55.484375 319.980469 55.570312 320.390625 55.742188 C 320.800781 55.910156 321.164062 56.152344 321.476562 56.46875 C 321.792969 56.78125 322.035156 57.144531 322.203125 57.554688 C 322.375 57.964844 322.457031 58.394531 322.457031 58.835938 C 322.457031 59.28125 322.375 59.710938 322.203125 60.121094 C 322.035156 60.53125 321.792969 60.894531 321.476562 61.207031 C 321.164062 61.519531 320.800781 61.761719 320.390625 61.933594 C 319.980469 62.101562 319.550781 62.1875 319.105469 62.1875 L 194.066406 62.1875 C 193.625 62.1875 193.195312 62.101562 192.785156 61.933594 C 192.375 61.761719 192.011719 61.519531 191.699219 61.207031 C 191.382812 60.894531 191.140625 60.53125 190.972656 60.121094 C 190.800781 59.710938 190.714844 59.28125 190.714844 58.835938 Z M 149.898438 225.871094 L 63.667969 225.871094 C 63.222656 225.871094 62.792969 225.953125 62.382812 226.125 C 61.972656 226.292969 61.609375 226.535156 61.296875 226.851562 C 60.980469 227.164062 60.738281 227.527344 60.570312 227.9375 C 60.398438 228.347656 60.316406 228.777344 60.316406 229.222656 L 60.316406 315.453125 C 60.316406 315.894531 60.398438 316.324219 60.570312 316.734375 C 60.738281 317.144531 60.980469 317.507812 61.296875 317.820312 C 61.609375 318.136719 61.972656 318.378906 62.382812 318.546875 C 62.792969 318.71875 63.222656 318.804688 63.667969 318.804688 L 149.898438 318.804688 C 150.339844 318.804688 150.769531 318.71875 151.179688 318.546875 C 151.589844 318.378906 151.953125 318.136719 152.265625 317.820312 C 152.582031 317.507812 152.824219 317.144531 152.992188 316.734375 C 153.164062 316.324219 153.25 315.894531 153.25 315.453125 L 153.25 229.222656 C 153.25 228.777344 153.164062 228.347656 152.992188 227.9375 C 152.824219 227.527344 152.582031 227.164062 152.265625 226.851562 C 151.953125 226.535156 151.589844 226.292969 151.179688 226.125 C 150.769531 225.953125 150.339844 225.871094 149.898438 225.871094 Z M 146.546875 312.101562 L 67.015625 312.101562 L 67.015625 232.570312 L 146.546875 232.570312 Z M 309.320312 233.175781 C 309.320312 233.621094 309.238281 234.046875 309.066406 234.457031 C 308.894531 234.867188 308.652344 235.230469 308.339844 235.546875 C 308.027344 235.859375 307.664062 236.101562 307.253906 236.273438 C 306.84375 236.441406 306.414062 236.527344 305.96875 236.527344 L 178.015625 236.527344 C 177.570312 236.527344 177.144531 236.441406 176.730469 236.273438 C 176.320312 236.101562 175.960938 235.859375 175.644531 235.546875 C 175.332031 235.230469 175.089844 234.867188 174.917969 234.457031 C 174.75 234.046875 174.664062 233.621094 174.664062 233.175781 C 174.664062 232.730469 174.75 232.304688 174.917969 231.894531 C 175.089844 231.480469 175.332031 231.121094 175.644531 230.804688 C 175.960938 230.492188 176.320312 230.25 176.730469 230.078125 C 177.144531 229.910156 177.570312 229.824219 178.015625 229.824219 L 305.96875 229.824219 C 306.414062 229.824219 306.84375 229.910156 307.253906 230.078125 C 307.664062 230.25 308.027344 230.492188 308.339844 230.804688 C 308.652344 231.121094 308.894531 231.480469 309.066406 231.894531 C 309.238281 232.304688 309.320312 232.730469 309.320312 233.175781 Z M 309.320312 259.28125 C 309.320312 259.726562 309.238281 260.15625 309.066406 260.566406 C 308.894531 260.976562 308.652344 261.339844 308.339844 261.652344 C 308.027344 261.964844 307.664062 262.207031 307.253906 262.378906 C 306.84375 262.550781 306.414062 262.632812 305.96875 262.632812 L 238.441406 262.632812 C 237.996094 262.632812 237.566406 262.550781 237.15625 262.378906 C 236.746094 262.207031 236.382812 261.964844 236.070312 261.652344 C 235.757812 261.339844 235.515625 260.976562 235.34375 260.566406 C 235.171875 260.15625 235.089844 259.726562 235.089844 259.28125 C 235.089844 258.839844 235.171875 258.410156 235.34375 258 C 235.515625 257.589844 235.757812 257.226562 236.070312 256.914062 C 236.382812 256.597656 236.746094 256.355469 237.15625 256.1875 C 237.566406 256.015625 237.996094 255.929688 238.441406 255.929688 L 305.96875 255.929688 C 306.414062 255.929688 306.84375 256.015625 307.253906 256.1875 C 307.664062 256.355469 308.027344 256.597656 308.339844 256.914062 C 308.652344 257.226562 308.894531 257.589844 309.066406 258 C 309.238281 258.410156 309.320312 258.839844 309.320312 259.28125 Z M 174.664062 259.28125 C 174.664062 258.839844 174.75 258.410156 174.917969 258 C 175.089844 257.589844 175.332031 257.226562 175.644531 256.914062 C 175.960938 256.597656 176.320312 256.355469 176.730469 256.1875 C 177.144531 256.015625 177.570312 255.929688 178.015625 255.929688 L 208.644531 255.929688 C 209.089844 255.929688 209.519531 256.015625 209.929688 256.1875 C 210.339844 256.355469 210.703125 256.597656 211.015625 256.914062 C 211.332031 257.226562 211.574219 257.589844 211.742188 258 C 211.914062 258.410156 211.996094 258.839844 211.996094 259.28125 C 211.996094 259.726562 211.914062 260.15625 211.742188 260.566406 C 211.574219 260.976562 211.332031 261.339844 211.015625 261.652344 C 210.703125 261.964844 210.339844 262.207031 209.929688 262.378906 C 209.519531 262.550781 209.089844 262.632812 208.644531 262.632812 L 178.015625 262.632812 C 177.570312 262.632812 177.144531 262.550781 176.730469 262.378906 C 176.320312 262.207031 175.960938 261.964844 175.644531 261.652344 C 175.332031 261.339844 175.089844 260.976562 174.917969 260.566406 C 174.75 260.15625 174.664062 259.726562 174.664062 259.28125 Z M 309.320312 285.390625 C 309.320312 285.835938 309.238281 286.261719 309.066406 286.671875 C 308.894531 287.082031 308.652344 287.445312 308.339844 287.757812 C 308.027344 288.074219 307.664062 288.316406 307.253906 288.484375 C 306.84375 288.65625 306.414062 288.742188 305.96875 288.742188 L 178.015625 288.742188 C 177.570312 288.742188 177.144531 288.65625 176.730469 288.484375 C 176.320312 288.316406 175.960938 288.074219 175.644531 287.757812 C 175.332031 287.445312 175.089844 287.082031 174.917969 286.671875 C 174.75 286.261719 174.664062 285.835938 174.664062 285.390625 C 174.664062 284.945312 174.75 284.519531 174.917969 284.105469 C 175.089844 283.695312 175.332031 283.335938 175.644531 283.019531 C 175.960938 282.707031 176.320312 282.464844 176.730469 282.292969 C 177.144531 282.125 177.570312 282.039062 178.015625 282.039062 L 305.96875 282.039062 C 306.414062 282.039062 306.84375 282.125 307.253906 282.292969 C 307.664062 282.464844 308.027344 282.707031 308.339844 283.019531 C 308.652344 283.335938 308.894531 283.695312 309.066406 284.105469 C 309.238281 284.519531 309.320312 284.945312 309.320312 285.390625 Z M 309.320312 311.464844 C 309.320312 311.90625 309.238281 312.335938 309.066406 312.746094 C 308.894531 313.15625 308.652344 313.519531 308.339844 313.832031 C 308.027344 314.148438 307.664062 314.390625 307.253906 314.558594 C 306.84375 314.730469 306.414062 314.816406 305.96875 314.816406 L 270.8125 314.816406 C 270.371094 314.816406 269.941406 314.730469 269.53125 314.558594 C 269.121094 314.390625 268.757812 314.148438 268.445312 313.832031 C 268.128906 313.519531 267.886719 313.15625 267.71875 312.746094 C 267.546875 312.335938 267.460938 311.90625 267.460938 311.464844 C 267.460938 311.019531 267.546875 310.589844 267.71875 310.179688 C 267.886719 309.769531 268.128906 309.40625 268.445312 309.09375 C 268.757812 308.777344 269.121094 308.539062 269.53125 308.367188 C 269.941406 308.195312 270.371094 308.113281 270.8125 308.113281 L 305.96875 308.113281 C 306.417969 308.113281 306.847656 308.199219 307.261719 308.371094 C 307.671875 308.542969 308.035156 308.789062 308.351562 309.105469 C 308.667969 309.421875 308.90625 309.789062 309.074219 310.203125 C 309.242188 310.617188 309.324219 311.050781 309.320312 311.496094 Z M 249.933594 311.496094 C 249.933594 311.941406 249.851562 312.367188 249.679688 312.78125 C 249.511719 313.191406 249.269531 313.550781 248.953125 313.867188 C 248.640625 314.179688 248.277344 314.421875 247.867188 314.59375 C 247.457031 314.761719 247.027344 314.847656 246.582031 314.847656 L 178.015625 314.847656 C 177.570312 314.847656 177.144531 314.761719 176.730469 314.59375 C 176.320312 314.421875 175.960938 314.179688 175.644531 313.867188 C 175.332031 313.550781 175.089844 313.191406 174.917969 312.78125 C 174.75 312.367188 174.664062 311.941406 174.664062 311.496094 C 174.664062 311.050781 174.75 310.625 174.917969 310.214844 C 175.089844 309.804688 175.332031 309.441406 175.644531 309.128906 C 175.960938 308.8125 176.320312 308.570312 176.730469 308.402344 C 177.144531 308.230469 177.570312 308.144531 178.015625 308.144531 L 246.582031 308.144531 C 247.027344 308.144531 247.457031 308.230469 247.867188 308.402344 C 248.277344 308.570312 248.640625 308.8125 248.953125 309.128906 C 249.269531 309.441406 249.511719 309.804688 249.679688 310.214844 C 249.851562 310.625 249.933594 311.050781 249.933594 311.496094 Z M 305.96875 115.710938 L 58.238281 115.710938 C 57.792969 115.710938 57.363281 115.796875 56.953125 115.964844 C 56.542969 116.136719 56.179688 116.378906 55.867188 116.691406 C 55.554688 117.003906 55.3125 117.367188 55.140625 117.777344 C 54.96875 118.1875 54.886719 118.617188 54.886719 119.0625 L 54.886719 204.554688 C 54.886719 205 54.96875 205.425781 55.140625 205.835938 C 55.3125 206.246094 55.554688 206.609375 55.867188 206.925781 C 56.179688 207.238281 56.542969 207.480469 56.953125 207.652344 C 57.363281 207.820312 57.792969 207.90625 58.238281 207.90625 L 305.96875 207.90625 C 306.414062 207.90625 306.84375 207.820312 307.253906 207.652344 C 307.664062 207.480469 308.027344 207.238281 308.339844 206.925781 C 308.652344 206.609375 308.894531 206.246094 309.066406 205.835938 C 309.238281 205.425781 309.320312 205 309.320312 204.554688 L 309.320312 119.0625 C 309.320312 118.617188 309.238281 118.1875 309.066406 117.777344 C 308.894531 117.367188 308.652344 117.003906 308.339844 116.691406 C 308.027344 116.378906 307.664062 116.136719 307.253906 115.964844 C 306.84375 115.796875 306.414062 115.710938 305.96875 115.710938 Z M 302.617188 201.203125 L 61.589844 201.203125 L 61.589844 122.414062 L 302.617188 122.414062 Z M 88.332031 176.46875 C 87.914062 176.054688 87.710938 175.550781 87.730469 174.960938 L 87.730469 146.105469 C 87.722656 145.523438 87.925781 145.019531 88.332031 144.597656 C 88.726562 144.164062 89.21875 143.941406 89.808594 143.929688 C 90.40625 143.929688 90.921875 144.144531 91.347656 144.566406 C 91.753906 144.984375 91.957031 145.488281 91.953125 146.074219 L 91.953125 160.953125 L 107.9375 144.699219 C 108.355469 144.191406 108.890625 143.933594 109.546875 143.929688 C 110.070312 143.933594 110.53125 144.113281 110.921875 144.464844 C 111.320312 144.820312 111.511719 145.269531 111.488281 145.804688 C 111.527344 146.355469 111.359375 146.835938 110.988281 147.246094 L 100.195312 158.039062 L 112.597656 173.65625 C 112.917969 174.042969 113.085938 174.492188 113.097656 174.996094 C 113.136719 175.574219 112.945312 176.066406 112.527344 176.46875 C 112.308594 176.679688 112.054688 176.839844 111.769531 176.941406 C 111.484375 177.046875 111.1875 177.085938 110.886719 177.0625 C 110.582031 177.039062 110.296875 176.957031 110.027344 176.8125 C 109.757812 176.667969 109.53125 176.476562 109.34375 176.234375 L 97.179688 160.851562 L 91.851562 166.214844 L 91.851562 174.960938 C 91.867188 175.550781 91.667969 176.054688 91.246094 176.46875 C 90.816406 176.882812 90.300781 177.082031 89.707031 177.074219 C 89.167969 177.054688 88.710938 176.855469 88.332031 176.46875 Z M 128.851562 177.441406 C 130.40625 177.488281 131.9375 177.308594 133.441406 176.90625 C 134.703125 176.542969 135.898438 176.027344 137.027344 175.363281 C 137.375 175.21875 137.65625 174.992188 137.875 174.683594 C 138.09375 174.375 138.210938 174.03125 138.234375 173.65625 C 138.257812 173.136719 138.078125 172.699219 137.699219 172.347656 C 137.328125 172.007812 136.890625 171.832031 136.390625 171.8125 C 136.082031 171.804688 135.792969 171.875 135.519531 172.011719 C 134.613281 172.484375 133.664062 172.84375 132.671875 173.085938 C 131.570312 173.351562 130.453125 173.472656 129.320312 173.453125 C 128.285156 173.515625 127.273438 173.390625 126.285156 173.078125 C 125.300781 172.765625 124.398438 172.289062 123.589844 171.644531 C 122.875 170.980469 122.304688 170.207031 121.882812 169.328125 C 121.460938 168.449219 121.214844 167.523438 121.140625 166.550781 L 136.992188 166.550781 C 137.28125 166.570312 137.558594 166.53125 137.828125 166.429688 C 138.097656 166.328125 138.335938 166.179688 138.542969 165.976562 C 138.746094 165.773438 138.902344 165.539062 139.003906 165.273438 C 139.109375 165.003906 139.152344 164.726562 139.140625 164.4375 C 139.160156 162.382812 138.722656 160.425781 137.832031 158.574219 C 136.996094 156.734375 135.734375 155.261719 134.042969 154.148438 C 132.203125 153.023438 130.203125 152.488281 128.046875 152.542969 C 125.800781 152.464844 123.734375 153.035156 121.847656 154.25 C 120.152344 155.390625 118.902344 156.898438 118.09375 158.773438 C 117.265625 160.734375 116.863281 162.78125 116.886719 164.90625 C 116.761719 166.582031 116.964844 168.210938 117.496094 169.804688 C 118.023438 171.394531 118.835938 172.824219 119.933594 174.089844 C 121.125 175.242188 122.496094 176.109375 124.046875 176.691406 C 125.59375 177.273438 127.195312 177.523438 128.851562 177.441406 Z M 122.148438 159.246094 C 122.78125 158.238281 123.640625 157.488281 124.726562 157 C 125.707031 156.496094 126.746094 156.25 127.84375 156.261719 C 128.953125 156.261719 130.003906 156.507812 130.996094 157 C 132.066406 157.507812 132.925781 158.253906 133.574219 159.246094 C 134.332031 160.417969 134.734375 161.703125 134.78125 163.097656 L 121.042969 163.097656 C 121.054688 161.65625 121.445312 160.328125 122.214844 159.109375 Z M 142.054688 155.894531 C 141.992188 155.601562 141.992188 155.3125 142.054688 155.019531 C 142.042969 154.425781 142.246094 153.910156 142.65625 153.480469 C 143.0625 153.066406 143.554688 152.867188 144.132812 152.875 C 144.574219 152.863281 144.976562 152.988281 145.339844 153.246094 C 145.699219 153.472656 145.957031 153.785156 146.109375 154.183594 L 153.316406 172.011719 L 160.65625 154.25 C 160.789062 153.832031 161.035156 153.492188 161.398438 153.238281 C 161.757812 152.984375 162.15625 152.863281 162.597656 152.875 C 163.1875 152.859375 163.691406 153.0625 164.105469 153.480469 C 164.519531 153.910156 164.71875 154.425781 164.710938 155.019531 C 164.761719 155.277344 164.761719 155.535156 164.710938 155.792969 L 151.941406 186.457031 C 151.804688 186.890625 151.554688 187.242188 151.191406 187.511719 C 150.828125 187.785156 150.417969 187.925781 149.964844 187.933594 C 149.410156 187.933594 148.9375 187.730469 148.554688 187.328125 C 148.160156 186.917969 147.96875 186.425781 147.988281 185.855469 C 147.9375 185.609375 147.9375 185.363281 147.988281 185.117188 L 151.003906 177.308594 Z M 167.222656 155.894531 C 167.117188 155.636719 167.0625 155.367188 167.054688 155.089844 C 167.042969 154.511719 167.246094 154.019531 167.660156 153.613281 C 168.078125 153.203125 168.582031 153.003906 169.167969 153.011719 C 169.601562 153 170.003906 153.113281 170.375 153.347656 C 170.71875 153.5625 170.953125 153.863281 171.078125 154.25 L 176.574219 172.246094 L 181.96875 154.6875 C 182.140625 154.1875 182.429688 153.773438 182.839844 153.445312 C 183.273438 153.144531 183.753906 153 184.28125 153.011719 C 184.800781 153 185.269531 153.144531 185.6875 153.445312 C 186.113281 153.765625 186.402344 154.179688 186.5625 154.6875 L 191.988281 172.246094 L 197.519531 153.984375 C 197.660156 153.59375 197.902344 153.292969 198.257812 153.078125 C 198.613281 152.839844 199.003906 152.730469 199.429688 152.742188 C 200.019531 152.726562 200.523438 152.925781 200.9375 153.347656 C 201.351562 153.75 201.550781 154.242188 201.542969 154.820312 C 201.589844 155.089844 201.589844 155.355469 201.542969 155.625 L 194.839844 175.0625 C 194.640625 175.640625 194.296875 176.113281 193.800781 176.46875 C 193.304688 176.84375 192.746094 177.035156 192.125 177.039062 C 191.5 177.046875 190.941406 176.855469 190.449219 176.46875 C 189.933594 176.105469 189.574219 175.625 189.375 175.027344 L 184.316406 159.578125 L 179.355469 175.0625 C 179.144531 175.652344 178.785156 176.132812 178.28125 176.503906 C 178.039062 176.683594 177.777344 176.820312 177.488281 176.914062 C 177.203125 177.007812 176.910156 177.058594 176.605469 177.058594 C 176.304688 177.058594 176.011719 177.007812 175.726562 176.914062 C 175.4375 176.820312 175.175781 176.683594 174.929688 176.503906 C 174.433594 176.148438 174.097656 175.679688 173.925781 175.097656 Z M 210.355469 176 C 212.320312 177.066406 214.421875 177.578125 216.65625 177.542969 C 218.878906 177.578125 220.96875 177.066406 222.921875 176 C 224.765625 174.957031 226.175781 173.492188 227.144531 171.609375 C 227.632812 170.601562 228 169.550781 228.246094 168.460938 C 228.496094 167.367188 228.621094 166.261719 228.621094 165.144531 C 228.621094 164.023438 228.496094 162.917969 228.246094 161.824219 C 228 160.734375 227.632812 159.683594 227.144531 158.675781 C 226.246094 156.679688 224.859375 155.117188 222.988281 153.984375 C 221.039062 152.902344 218.953125 152.386719 216.722656 152.441406 C 214.484375 152.390625 212.382812 152.902344 210.421875 153.984375 C 208.582031 155.007812 207.183594 156.460938 206.234375 158.339844 C 205.746094 159.347656 205.378906 160.398438 205.132812 161.492188 C 204.882812 162.582031 204.757812 163.6875 204.757812 164.808594 C 204.757812 165.925781 204.882812 167.03125 205.132812 168.125 C 205.378906 169.214844 205.746094 170.265625 206.234375 171.277344 C 207.167969 173.203125 208.5625 174.703125 210.421875 175.765625 Z M 210.085938 160.28125 C 210.757812 159.070312 211.707031 158.140625 212.9375 157.5 C 214.101562 156.921875 215.335938 156.632812 216.640625 156.632812 C 217.941406 156.632812 219.175781 156.921875 220.34375 157.5 C 221.59375 158.128906 222.554688 159.054688 223.226562 160.28125 C 224.074219 161.695312 224.507812 163.226562 224.53125 164.875 C 224.601562 166.601562 224.222656 168.21875 223.390625 169.734375 C 222.710938 170.960938 221.75 171.898438 220.511719 172.550781 C 219.34375 173.128906 218.109375 173.417969 216.808594 173.417969 C 215.503906 173.417969 214.269531 173.128906 213.105469 172.550781 C 211.882812 171.886719 210.933594 170.949219 210.253906 169.734375 C 209.425781 168.21875 209.046875 166.601562 209.117188 164.875 C 209.011719 163.167969 209.359375 161.558594 210.15625 160.046875 Z M 235.1875 176.703125 C 234.769531 176.289062 234.570312 175.785156 234.585938 175.195312 L 234.585938 155.089844 C 234.574219 154.492188 234.777344 153.976562 235.1875 153.546875 C 235.59375 153.132812 236.085938 152.933594 236.664062 152.945312 C 236.949219 152.933594 237.226562 152.980469 237.496094 153.089844 C 237.761719 153.195312 237.996094 153.347656 238.199219 153.550781 C 238.40625 153.753906 238.558594 153.988281 238.664062 154.257812 C 238.769531 154.523438 238.816406 154.800781 238.808594 155.089844 L 238.808594 157.097656 C 239.199219 156.464844 239.65625 155.886719 240.1875 155.363281 C 240.71875 154.839844 241.300781 154.386719 241.941406 154.003906 C 242.578125 153.621094 243.253906 153.320312 243.964844 153.101562 C 244.675781 152.882812 245.40625 152.753906 246.148438 152.710938 L 246.382812 152.710938 C 246.964844 152.683594 247.457031 152.886719 247.855469 153.3125 C 248.269531 153.71875 248.472656 154.207031 248.460938 154.785156 C 248.476562 155.367188 248.273438 155.859375 247.855469 156.261719 C 247.414062 156.644531 246.902344 156.824219 246.316406 156.796875 L 246.082031 156.796875 C 244.605469 156.78125 243.230469 157.148438 241.957031 157.902344 C 240.683594 158.675781 239.636719 159.679688 238.808594 160.917969 L 238.808594 175.128906 C 238.824219 175.71875 238.625 176.222656 238.207031 176.636719 C 237.773438 177.050781 237.261719 177.25 236.664062 177.242188 C 236.082031 177.1875 235.613281 176.929688 235.257812 176.46875 Z M 256.136719 176.066406 C 257.835938 177.046875 259.667969 177.539062 261.632812 177.542969 C 263.15625 177.539062 264.617188 177.230469 266.011719 176.609375 C 267.40625 175.992188 268.613281 175.117188 269.640625 173.988281 L 269.640625 175.195312 C 269.625 175.785156 269.824219 176.289062 270.246094 176.703125 C 270.675781 177.117188 271.191406 177.316406 271.785156 177.308594 C 272.363281 177.320312 272.855469 177.117188 273.261719 176.703125 C 273.707031 176.300781 273.917969 175.796875 273.898438 175.195312 L 273.898438 145.035156 C 273.917969 144.433594 273.707031 143.929688 273.261719 143.527344 C 272.867188 143.089844 272.375 142.878906 271.785156 142.890625 C 271.191406 142.878906 270.675781 143.082031 270.246094 143.492188 C 269.820312 143.917969 269.617188 144.433594 269.640625 145.035156 L 269.640625 156.496094 C 269.226562 156.046875 268.777344 155.632812 268.296875 155.257812 C 267.8125 154.882812 267.300781 154.550781 266.761719 154.261719 C 266.222656 153.972656 265.660156 153.730469 265.082031 153.539062 C 264.5 153.34375 263.90625 153.199219 263.304688 153.105469 C 262.699219 153.011719 262.089844 152.96875 261.476562 152.980469 C 260.867188 152.988281 260.257812 153.046875 259.65625 153.160156 C 259.054688 153.273438 258.46875 153.433594 257.894531 153.644531 C 257.320312 153.855469 256.765625 154.113281 256.234375 154.417969 C 254.441406 155.460938 253.046875 156.890625 252.046875 158.707031 C 250.902344 160.796875 250.363281 163.03125 250.4375 165.410156 C 250.378906 167.789062 250.914062 170.023438 252.046875 172.113281 C 253.113281 173.707031 254.5 174.949219 256.203125 175.832031 Z M 256.671875 158.941406 C 257.398438 158.195312 258.246094 157.625 259.214844 157.242188 C 260.1875 156.855469 261.191406 156.683594 262.234375 156.730469 C 263.664062 156.730469 265.015625 157.054688 266.289062 157.703125 C 267.570312 158.339844 268.6875 159.1875 269.640625 160.25 L 269.640625 170.070312 C 268.675781 171.121094 267.558594 171.96875 266.289062 172.617188 C 265.011719 173.253906 263.660156 173.566406 262.234375 173.554688 C 261.195312 173.597656 260.191406 173.429688 259.222656 173.050781 C 258.253906 172.671875 257.40625 172.113281 256.671875 171.375 C 255.917969 170.476562 255.367188 169.464844 255.023438 168.34375 C 254.679688 167.21875 254.570312 166.074219 254.695312 164.90625 C 254.609375 163.78125 254.742188 162.679688 255.097656 161.605469 C 255.453125 160.53125 256 159.5625 256.738281 158.707031 Z M 104.554688 299.164062 C 107.535156 299.160156 110.433594 298.675781 113.253906 297.703125 C 116.070312 296.734375 118.65625 295.332031 121.007812 293.5 L 129.453125 301.945312 C 130.113281 302.597656 130.90625 302.921875 131.832031 302.917969 C 132.746094 302.914062 133.53125 302.589844 134.179688 301.945312 C 134.496094 301.628906 134.742188 301.265625 134.914062 300.855469 C 135.085938 300.441406 135.171875 300.011719 135.171875 299.566406 C 135.171875 299.121094 135.085938 298.691406 134.914062 298.277344 C 134.742188 297.863281 134.496094 297.5 134.179688 297.1875 L 125.765625 288.773438 C 126.265625 288.136719 126.734375 287.476562 127.171875 286.792969 C 127.613281 286.113281 128.019531 285.414062 128.394531 284.695312 C 128.769531 283.976562 129.113281 283.242188 129.421875 282.492188 C 129.730469 281.742188 130.003906 280.980469 130.242188 280.207031 C 130.484375 279.433594 130.6875 278.648438 130.855469 277.855469 C 131.023438 277.0625 131.15625 276.265625 131.253906 275.460938 C 131.351562 274.65625 131.410156 273.847656 131.433594 273.039062 C 131.457031 272.226562 131.441406 271.417969 131.390625 270.609375 C 131.339844 269.800781 131.253906 268.996094 131.128906 268.195312 C 131.007812 267.394531 130.847656 266.601562 130.652344 265.8125 C 130.457031 265.027344 130.226562 264.25 129.960938 263.484375 C 129.695312 262.71875 129.394531 261.96875 129.0625 261.226562 C 128.726562 260.488281 128.359375 259.769531 127.960938 259.0625 C 127.5625 258.359375 127.128906 257.671875 126.667969 257.003906 C 126.207031 256.339844 125.714844 255.695312 125.195312 255.074219 C 124.675781 254.453125 124.128906 253.855469 123.554688 253.285156 C 122.933594 252.660156 122.285156 252.066406 121.605469 251.507812 C 120.925781 250.945312 120.21875 250.421875 119.488281 249.929688 C 118.753906 249.441406 118 248.988281 117.226562 248.570312 C 116.449219 248.15625 115.65625 247.777344 114.839844 247.441406 C 114.027344 247.101562 113.199219 246.804688 112.359375 246.546875 C 111.515625 246.292969 110.664062 246.078125 109.796875 245.90625 C 108.933594 245.734375 108.066406 245.601562 107.1875 245.515625 C 106.3125 245.429688 105.433594 245.386719 104.554688 245.386719 C 103.671875 245.386719 102.792969 245.429688 101.917969 245.515625 C 101.039062 245.601562 100.171875 245.734375 99.308594 245.90625 C 98.441406 246.078125 97.589844 246.292969 96.746094 246.546875 C 95.90625 246.804688 95.078125 247.101562 94.265625 247.441406 C 93.449219 247.777344 92.65625 248.15625 91.878906 248.570312 C 91.105469 248.988281 90.351562 249.441406 89.617188 249.929688 C 88.886719 250.421875 88.179688 250.945312 87.5 251.507812 C 86.824219 252.066406 86.171875 252.660156 85.550781 253.285156 C 84.609375 254.214844 83.738281 255.210938 82.945312 256.269531 C 82.148438 257.332031 81.4375 258.445312 80.808594 259.609375 C 80.179688 260.777344 79.636719 261.980469 79.1875 263.226562 C 78.734375 264.472656 78.378906 265.746094 78.117188 267.042969 C 77.855469 268.34375 77.6875 269.65625 77.621094 270.976562 C 77.554688 272.300781 77.582031 273.621094 77.710938 274.941406 C 77.839844 276.261719 78.0625 277.5625 78.382812 278.847656 C 78.703125 280.132812 79.117188 281.386719 79.625 282.613281 C 80.132812 283.835938 80.726562 285.015625 81.410156 286.152344 C 82.089844 287.289062 82.855469 288.367188 83.695312 289.390625 C 84.539062 290.414062 85.449219 291.371094 86.433594 292.257812 C 87.417969 293.144531 88.460938 293.957031 89.566406 294.6875 C 90.667969 295.421875 91.820312 296.070312 93.019531 296.632812 C 94.222656 297.195312 95.457031 297.664062 96.726562 298.042969 C 97.996094 298.421875 99.285156 298.707031 100.597656 298.894531 C 101.910156 299.082031 103.226562 299.171875 104.554688 299.164062 Z M 90.277344 257.875 C 90.742188 257.410156 91.230469 256.972656 91.742188 256.558594 C 92.25 256.144531 92.78125 255.753906 93.328125 255.390625 C 93.875 255.027344 94.441406 254.691406 95.019531 254.382812 C 95.601562 254.078125 96.195312 253.796875 96.804688 253.546875 C 97.414062 253.296875 98.03125 253.078125 98.660156 252.890625 C 99.292969 252.703125 99.929688 252.542969 100.574219 252.417969 C 101.21875 252.292969 101.867188 252.199219 102.523438 252.136719 C 103.179688 252.074219 103.832031 252.042969 104.492188 252.042969 C 105.148438 252.046875 105.804688 252.078125 106.457031 252.144531 C 107.113281 252.210938 107.761719 252.308594 108.40625 252.4375 C 109.050781 252.570312 109.6875 252.730469 110.316406 252.921875 C 110.945312 253.113281 111.5625 253.335938 112.167969 253.589844 C 112.777344 253.84375 113.371094 254.125 113.949219 254.4375 C 114.527344 254.746094 115.089844 255.085938 115.636719 255.453125 C 116.183594 255.816406 116.710938 256.210938 117.214844 256.628906 C 117.722656 257.046875 118.210938 257.488281 118.675781 257.953125 C 119.136719 258.417969 119.578125 258.90625 119.996094 259.414062 C 120.410156 259.921875 120.800781 260.449219 121.167969 260.996094 C 121.53125 261.542969 121.867188 262.109375 122.179688 262.6875 C 122.488281 263.269531 122.769531 263.863281 123.019531 264.46875 C 123.269531 265.078125 123.492188 265.695312 123.679688 266.324219 C 123.871094 266.953125 124.03125 267.589844 124.160156 268.234375 C 124.289062 268.878906 124.382812 269.53125 124.449219 270.183594 C 124.511719 270.839844 124.542969 271.496094 124.542969 272.152344 C 124.542969 272.808594 124.511719 273.464844 124.449219 274.121094 C 124.382812 274.773438 124.289062 275.421875 124.160156 276.066406 C 124.03125 276.710938 123.871094 277.351562 123.679688 277.980469 C 123.492188 278.609375 123.269531 279.226562 123.019531 279.835938 C 122.769531 280.441406 122.488281 281.035156 122.179688 281.617188 C 121.867188 282.195312 121.53125 282.757812 121.167969 283.304688 C 120.800781 283.851562 120.410156 284.382812 119.996094 284.890625 C 119.578125 285.398438 119.136719 285.886719 118.675781 286.351562 C 118.210938 286.816406 117.722656 287.257812 117.214844 287.675781 C 116.710938 288.09375 116.183594 288.484375 115.636719 288.851562 C 115.089844 289.21875 114.527344 289.558594 113.949219 289.867188 C 113.371094 290.179688 112.777344 290.460938 112.167969 290.714844 C 111.5625 290.964844 110.945312 291.1875 110.316406 291.382812 C 109.6875 291.574219 109.050781 291.734375 108.40625 291.863281 C 107.761719 291.992188 107.113281 292.09375 106.457031 292.15625 C 105.804688 292.222656 105.148438 292.257812 104.492188 292.261719 C 103.832031 292.261719 103.179688 292.230469 102.523438 292.167969 C 101.867188 292.105469 101.21875 292.011719 100.574219 291.886719 C 99.929688 291.757812 99.292969 291.601562 98.660156 291.414062 C 98.03125 291.222656 97.414062 291.003906 96.804688 290.753906 C 96.195312 290.507812 95.601562 290.226562 95.019531 289.917969 C 94.441406 289.613281 93.875 289.277344 93.328125 288.914062 C 92.78125 288.550781 92.25 288.160156 91.742188 287.746094 C 91.230469 287.332031 90.742188 286.890625 90.277344 286.429688 C 89.804688 285.960938 89.359375 285.472656 88.9375 284.964844 C 88.515625 284.453125 88.121094 283.925781 87.75 283.375 C 87.382812 282.824219 87.039062 282.257812 86.726562 281.675781 C 86.414062 281.09375 86.128906 280.496094 85.875 279.886719 C 85.621094 279.273438 85.394531 278.652344 85.203125 278.019531 C 85.007812 277.386719 84.847656 276.742188 84.71875 276.09375 C 84.589844 275.445312 84.492188 274.792969 84.425781 274.132812 C 84.359375 273.472656 84.328125 272.8125 84.328125 272.152344 C 84.328125 271.488281 84.359375 270.828125 84.425781 270.171875 C 84.492188 269.511719 84.589844 268.859375 84.71875 268.207031 C 84.847656 267.558594 85.007812 266.917969 85.203125 266.285156 C 85.394531 265.652344 85.621094 265.03125 85.875 264.417969 C 86.128906 263.808594 86.414062 263.210938 86.726562 262.628906 C 87.039062 262.042969 87.382812 261.476562 87.75 260.929688 C 88.121094 260.378906 88.515625 259.851562 88.9375 259.339844 C 89.359375 258.828125 89.804688 258.339844 90.277344 257.875 Z M 104.554688 284.351562 C 105.757812 284.347656 106.933594 284.171875 108.085938 283.820312 C 109.238281 283.46875 110.316406 282.957031 111.316406 282.285156 C 112.316406 281.617188 113.199219 280.816406 113.960938 279.882812 C 114.726562 278.953125 115.339844 277.929688 115.796875 276.816406 C 116.257812 275.703125 116.546875 274.546875 116.667969 273.347656 C 116.785156 272.152344 116.726562 270.960938 116.492188 269.777344 C 116.257812 268.597656 115.859375 267.476562 115.292969 266.414062 C 114.726562 265.351562 114.015625 264.390625 113.164062 263.539062 C 112.589844 262.988281 111.96875 262.496094 111.300781 262.0625 C 110.628906 261.632812 109.925781 261.265625 109.1875 260.96875 C 108.449219 260.671875 107.6875 260.449219 106.90625 260.296875 C 106.121094 260.144531 105.332031 260.070312 104.535156 260.070312 C 103.738281 260.070312 102.949219 260.144531 102.167969 260.296875 C 101.386719 260.449219 100.625 260.671875 99.886719 260.96875 C 99.144531 261.265625 98.441406 261.632812 97.773438 262.0625 C 97.101562 262.496094 96.480469 262.988281 95.90625 263.539062 C 95.054688 264.394531 94.34375 265.351562 93.777344 266.417969 C 93.210938 267.480469 92.8125 268.605469 92.578125 269.789062 C 92.34375 270.96875 92.285156 272.160156 92.40625 273.363281 C 92.527344 274.5625 92.816406 275.71875 93.28125 276.832031 C 93.742188 277.945312 94.355469 278.96875 95.121094 279.898438 C 95.886719 280.832031 96.773438 281.632812 97.777344 282.300781 C 98.78125 282.96875 99.859375 283.480469 101.011719 283.828125 C 102.167969 284.175781 103.347656 284.351562 104.554688 284.351562 Z M 100.53125 268.398438 C 100.785156 268.144531 101.0625 267.914062 101.363281 267.714844 C 101.664062 267.515625 101.980469 267.34375 102.3125 267.207031 C 102.648438 267.070312 102.992188 266.964844 103.34375 266.894531 C 103.699219 266.824219 104.054688 266.789062 104.417969 266.789062 C 104.777344 266.789062 105.136719 266.824219 105.488281 266.894531 C 105.84375 266.964844 106.1875 267.070312 106.519531 267.207031 C 106.855469 267.347656 107.171875 267.515625 107.46875 267.714844 C 107.769531 267.917969 108.046875 268.144531 108.304688 268.398438 C 108.558594 268.65625 108.785156 268.933594 108.988281 269.234375 C 109.1875 269.53125 109.355469 269.847656 109.496094 270.183594 C 109.632812 270.515625 109.738281 270.859375 109.808594 271.214844 C 109.878906 271.566406 109.914062 271.925781 109.914062 272.285156 C 109.914062 272.648438 109.878906 273.003906 109.808594 273.359375 C 109.738281 273.710938 109.632812 274.054688 109.496094 274.390625 C 109.355469 274.722656 109.1875 275.039062 108.988281 275.339844 C 108.785156 275.640625 108.558594 275.917969 108.304688 276.171875 C 108.046875 276.425781 107.769531 276.65625 107.46875 276.855469 C 107.171875 277.054688 106.855469 277.226562 106.519531 277.363281 C 106.1875 277.5 105.84375 277.605469 105.488281 277.675781 C 105.136719 277.746094 104.777344 277.78125 104.417969 277.78125 C 104.054688 277.78125 103.699219 277.746094 103.34375 277.675781 C 102.992188 277.605469 102.648438 277.503906 102.3125 277.363281 C 101.980469 277.226562 101.664062 277.058594 101.363281 276.855469 C 101.0625 276.65625 100.785156 276.429688 100.53125 276.171875 C 100.273438 275.917969 100.042969 275.640625 99.839844 275.34375 C 99.640625 275.042969 99.46875 274.726562 99.328125 274.394531 C 99.1875 274.058594 99.082031 273.714844 99.011719 273.359375 C 98.941406 273.003906 98.90625 272.648438 98.90625 272.285156 C 98.90625 271.925781 98.941406 271.566406 99.011719 271.210938 C 99.082031 270.855469 99.1875 270.511719 99.328125 270.179688 C 99.46875 269.84375 99.640625 269.527344 99.839844 269.230469 C 100.042969 268.929688 100.273438 268.652344 100.53125 268.398438 Z M 100.53125 268.398438 " fill-opacity="1" fill-rule="nonzero"/></g></svg>