<svg xmlns="http://www.w3.org/2000/svg" xmlns:xlink="http://www.w3.org/1999/xlink" width="500" zoomAndPan="magnify" viewBox="0 0 375 374.999991" height="500" preserveAspectRatio="xMidYMid meet" version="1.0"><defs><clipPath id="7ad46192bb"><path d="M 29.359375 29.359375 L 345.859375 29.359375 L 345.859375 345.859375 L 29.359375 345.859375 Z M 29.359375 29.359375 " clip-rule="nonzero"/></clipPath><clipPath id="9d84d2de66"><path d="M 70 218 L 305 218 L 305 345.859375 L 70 345.859375 Z M 70 218 " clip-rule="nonzero"/></clipPath></defs><g clip-path="url(#7ad46192bb)"><path fill="#21d8de" d="M 345.859375 187.609375 C 345.859375 275.011719 275.015625 345.859375 187.609375 345.859375 C 100.207031 345.859375 29.359375 275.011719 29.359375 187.609375 C 29.359375 100.207031 100.207031 29.359375 187.609375 29.359375 C 275.015625 29.359375 345.859375 100.207031 345.859375 187.609375 Z M 345.859375 187.609375 " fill-opacity="1" fill-rule="nonzero"/></g><path fill="#ffffff" d="M 201.472656 99.289062 C 201.441406 98.816406 201.425781 98.375 201.425781 97.898438 C 201.425781 85.386719 211.578125 75.242188 224.085938 75.242188 C 235.988281 75.242188 245.726562 84.386719 246.691406 96.023438 C 247.851562 95.652344 249.097656 95.484375 250.390625 95.484375 C 253.71875 95.484375 256.734375 96.78125 258.996094 98.886719 C 261.480469 95.25 265.660156 92.902344 270.390625 92.902344 C 277.738281 92.902344 283.746094 98.609375 284.191406 105.855469 C 284.859375 105.65625 285.550781 105.558594 286.257812 105.558594 C 290.402344 105.558594 293.757812 108.925781 293.761719 113.074219 C 293.761719 117.222656 290.394531 120.5625 286.257812 120.558594 L 202.777344 120.558594 C 196.875 120.558594 192.097656 115.78125 192.097656 109.890625 C 192.097656 104.433594 196.1875 99.910156 201.472656 99.289062 Z M 201.472656 99.289062 " fill-opacity="1" fill-rule="nonzero"/><g clip-path="url(#9d84d2de66)"><path fill="#242d3c" d="M 187.609375 345.859375 C 233.945312 345.859375 275.625 325.945312 304.566406 294.210938 C 284.523438 249.570312 239.710938 218.46875 187.597656 218.46875 C 135.496094 218.46875 90.695312 249.570312 70.652344 294.207031 C 99.59375 325.945312 141.273438 345.859375 187.609375 345.859375 Z M 187.609375 345.859375 " fill-opacity="1" fill-rule="nonzero"/></g><path fill="#ffffff" d="M 236.640625 249.613281 C 237.398438 248.417969 242.625 248.835938 242.476562 247.828125 C 242.277344 245.816406 235.585938 242.617188 233.738281 241.71875 C 231.554688 240.660156 230.046875 238.070312 227.636719 238.40625 C 227.808594 238.945312 229.570312 242.886719 230.996094 242.011719 C 231.242188 241.851562 234.980469 244.007812 235.277344 244.835938 C 234.90625 245.082031 234.550781 245.042969 234.15625 245.007812 C 234.492188 245.371094 235.785156 247.195312 235.226562 247.273438 C 235.207031 247.277344 235.203125 247.277344 235.222656 247.273438 C 235.5 247.242188 237.824219 247.332031 237.878906 247.679688 C 237.941406 248.152344 236.042969 248.136719 236.640625 249.613281 Z M 236.640625 249.613281 " fill-opacity="1" fill-rule="nonzero"/><path fill="#ffffff" d="M 226.859375 239.9375 C 226.859375 239.9375 226.859375 239.957031 226.878906 239.964844 C 226.882812 240.027344 226.914062 240.066406 226.917969 240.113281 C 226.960938 240.027344 226.917969 239.957031 226.859375 239.9375 Z M 226.859375 239.9375 " fill-opacity="1" fill-rule="nonzero"/><path fill="#ffffff" d="M 229.234375 247.222656 C 230.753906 248.671875 234.148438 246.941406 231.964844 244.683594 C 231.402344 244.097656 227.386719 240.859375 228.574219 243.640625 C 228.125 243.816406 227.664062 243.957031 227.210938 244.09375 C 228.933594 244.640625 228.472656 246.453125 229.234375 247.222656 Z M 229.234375 247.222656 " fill-opacity="1" fill-rule="nonzero"/><path fill="#ffffff" d="M 231.964844 244.683594 C 232.453125 245.195312 231.804688 244.507812 231.964844 244.683594 Z M 231.964844 244.683594 " fill-opacity="1" fill-rule="nonzero"/><path fill="#ffffff" d="M 257.089844 266.261719 C 257.332031 266.429688 257.628906 266.511719 257.921875 266.542969 C 258.96875 265.214844 256.070312 266.125 257.085938 266.257812 C 257.273438 266.28125 257.160156 266.269531 257.089844 266.261719 Z M 257.089844 266.261719 " fill-opacity="1" fill-rule="nonzero"/><path fill="#ffffff" d="M 226.414062 238.554688 C 225.734375 238.722656 226.621094 239.839844 226.84375 239.9375 C 226.648438 239.75 226.523438 239.566406 226.65625 239.292969 C 226.625 239.359375 226.570312 239.453125 226.660156 239.277344 C 226.816406 238.941406 226.734375 238.695312 226.414062 238.554688 Z M 226.414062 238.554688 " fill-opacity="1" fill-rule="nonzero"/><path fill="#ffffff" d="M 116.316406 309.398438 C 116.613281 309.804688 119.496094 311.105469 119.722656 310.183594 C 119.664062 309.835938 119.460938 309.660156 119.113281 309.625 C 118.226562 309.152344 117.316406 308.816406 116.316406 309.398438 Z M 116.316406 309.398438 " fill-opacity="1" fill-rule="nonzero"/><path fill="#ffffff" d="M 110.066406 302.699219 C 110.476562 302.710938 110.679688 302.511719 110.722656 302.058594 C 110.738281 302.121094 110.765625 302.210938 110.722656 302.050781 C 110.710938 302.015625 110.710938 302.015625 110.710938 302.027344 C 110.507812 301.304688 109.867188 302.335938 110.066406 302.699219 Z M 110.066406 302.699219 " fill-opacity="1" fill-rule="nonzero"/><path fill="#ffffff" d="M 129.625 256.925781 C 129.75 257.273438 130.007812 257.355469 130.425781 257.132812 C 130.835938 256.683594 129.644531 256.808594 129.582031 256.824219 C 129.589844 256.921875 129.609375 256.933594 129.625 256.925781 Z M 129.625 256.925781 " fill-opacity="1" fill-rule="nonzero"/><path fill="#ffffff" d="M 107.726562 301.769531 C 109.539062 301.929688 110.554688 299.492188 112.554688 300.304688 C 112.476562 300.550781 112.304688 300.734375 112.050781 300.832031 C 112.585938 302.375 118.398438 302.824219 119.25 304.769531 C 119.410156 305.167969 117.351562 306.273438 118.597656 306.15625 C 120.558594 305.875 122.519531 305.859375 124.46875 305.613281 C 120.738281 302.683594 111.476562 295.445312 107.726562 301.769531 Z M 107.726562 301.769531 " fill-opacity="1" fill-rule="nonzero"/><path fill="#ffffff" d="M 128.4375 310.875 C 130.023438 309.972656 131.277344 308.621094 133.546875 309.589844 C 135.625 310.433594 132.542969 307.898438 132.425781 307.800781 C 132.570312 307.527344 132.871094 307.738281 132.976562 307.507812 C 131.503906 306.878906 126.839844 304.859375 125.4375 306.585938 C 126.972656 307.046875 126.257812 307.710938 127.050781 308.929688 C 126.511719 309.148438 122.5 309.113281 123.445312 309.519531 C 125.113281 310.316406 127.167969 309.0625 128.4375 310.875 Z M 128.4375 310.875 " fill-opacity="1" fill-rule="nonzero"/><path fill="#ffffff" d="M 119.882812 295.1875 C 118.851562 296.527344 119.441406 296.550781 119.839844 298.078125 C 119.941406 297.945312 119.980469 297.84375 119.992188 297.769531 C 120.246094 297.191406 120.214844 296.398438 119.882812 295.1875 Z M 119.882812 295.1875 " fill-opacity="1" fill-rule="nonzero"/><path fill="#ffffff" d="M 146.3125 248.722656 C 146.292969 248.726562 146.152344 248.78125 145.960938 248.867188 C 145.863281 248.960938 146.007812 249.007812 146.3125 248.722656 Z M 146.3125 248.722656 " fill-opacity="1" fill-rule="nonzero"/><path fill="#ffffff" d="M 226.664062 239.277344 C 226.660156 239.285156 226.660156 239.289062 226.660156 239.292969 C 226.679688 239.25 226.695312 239.21875 226.664062 239.277344 Z M 226.664062 239.277344 " fill-opacity="1" fill-rule="nonzero"/><path fill="#ffffff" d="M 148.40625 230.925781 C 148.398438 230.929688 148.394531 230.933594 148.386719 230.9375 C 148.402344 230.933594 148.40625 230.933594 148.417969 230.933594 C 148.414062 230.929688 148.410156 230.929688 148.40625 230.925781 Z M 148.40625 230.925781 " fill-opacity="1" fill-rule="nonzero"/><path fill="#ffffff" d="M 129.664062 322.972656 C 129.707031 322.964844 129.738281 322.949219 129.796875 322.953125 C 129.730469 322.949219 129.6875 322.957031 129.664062 322.972656 Z M 129.664062 322.972656 " fill-opacity="1" fill-rule="nonzero"/><path fill="#ffffff" d="M 246.675781 235.109375 C 246.722656 235.234375 246.675781 235.109375 246.675781 235.109375 Z M 246.675781 235.109375 " fill-opacity="1" fill-rule="nonzero"/><path fill="#ffffff" d="M 132.265625 324.808594 C 132.300781 324.828125 132.324219 324.847656 132.351562 324.867188 C 132.351562 324.867188 132.332031 324.851562 132.265625 324.808594 Z M 132.265625 324.808594 " fill-opacity="1" fill-rule="nonzero"/><path fill="#ffffff" d="M 167.492188 340.789062 C 167.453125 338.492188 160.316406 335.640625 158.507812 336.722656 C 156.875 337.914062 153.890625 335.664062 152.890625 334.589844 C 151.753906 333.367188 151.789062 332.058594 149.894531 331.277344 C 149.089844 330.933594 147.710938 331.09375 148.007812 329.714844 C 148.339844 328.25 144.507812 327.953125 144.140625 326.519531 C 144.691406 326.621094 145.140625 326.351562 145.644531 326.214844 C 144.160156 326.730469 142.347656 325.652344 140.878906 326.84375 C 138.746094 328.625 137.449219 326.019531 135.109375 326.46875 C 132.199219 327.027344 134.0625 325.992188 132.351562 324.867188 C 132.339844 324.890625 129.375 323.164062 129.664062 322.972656 C 129.039062 323.0625 129.847656 324.445312 128.929688 324.773438 C 127.378906 325.34375 126.046875 325.6875 127.042969 327.554688 C 128.746094 330.953125 123.484375 329.355469 125.960938 327.035156 C 126.417969 326.640625 126.539062 322.214844 127.027344 322.378906 C 126.402344 322.15625 121.601562 325.285156 121.050781 325.945312 C 120.074219 324.390625 118.683594 327.21875 117.570312 329.546875 C 133.707031 337.523438 151.402344 342.832031 170.078125 344.890625 C 169.132812 342.886719 167.769531 340.394531 167.492188 340.789062 Z M 133.886719 327.460938 C 133.242188 327.363281 134.605469 327.527344 133.886719 327.460938 Z M 133.886719 327.460938 " fill-opacity="1" fill-rule="nonzero"/><path fill="#ffffff" d="M 288.421875 272.175781 C 288.238281 272.886719 288.46875 273.292969 289.101562 273.597656 C 289.140625 272.945312 288.925781 272.554688 288.421875 272.175781 Z M 288.421875 272.175781 " fill-opacity="1" fill-rule="nonzero"/><path fill="#ffffff" d="M 246.675781 235.109375 C 246.734375 235.277344 247.472656 235.332031 246.675781 235.109375 Z M 246.675781 235.109375 " fill-opacity="1" fill-rule="nonzero"/><path fill="#ffffff" d="M 159.285156 244.292969 C 158.699219 244.765625 159.566406 244.65625 159.285156 244.292969 Z M 159.285156 244.292969 " fill-opacity="1" fill-rule="nonzero"/><path fill="#ffffff" d="M 264.347656 244.003906 C 260.09375 240.820312 255.664062 237.925781 251.0625 235.296875 C 248.855469 234.03125 246.617188 232.828125 244.328125 231.695312 C 243.324219 231.226562 239.839844 230.308594 239.316406 229.449219 C 239.351562 229.84375 241.355469 230.863281 241.621094 231.144531 C 240.265625 230.78125 236.683594 229.257812 236.640625 229.019531 C 236.707031 228.871094 237.003906 229.019531 236.972656 228.746094 C 234.945312 227.457031 227.378906 224.675781 225.867188 226.734375 C 226.191406 226.332031 231.074219 231.980469 231.21875 232.984375 C 231.527344 235.195312 234.96875 237.523438 237.160156 238.238281 C 240.226562 239.261719 237.9375 237.898438 239.222656 237.171875 C 240.039062 236.765625 240.808594 238.566406 241.589844 238.160156 C 241.582031 238.136719 241.589844 238.109375 241.621094 238.109375 C 241.421875 237.722656 241.203125 237.34375 240.992188 236.960938 C 241.589844 237.753906 246.511719 242.683594 247.183594 241.488281 C 246.507812 239.882812 245.46875 238.054688 243.839844 236.546875 C 242.386719 235.195312 240.117188 235.070312 238.554688 233.710938 C 237.769531 233.019531 234.839844 230.886719 234.527344 229.894531 C 238.386719 230.019531 242.832031 238.195312 246.726562 235.03125 C 246.175781 234.667969 245.660156 234.261719 245.136719 233.84375 C 245.859375 234.046875 249.09375 235.078125 247.992188 236.449219 C 244.929688 235.90625 250.621094 239.027344 250.722656 239.378906 C 250.15625 239.339844 249.761719 238.894531 249.246094 238.855469 C 249.464844 239.925781 252.511719 241.03125 252.722656 242.863281 C 250.878906 243.15625 251.691406 241.75 250.507812 243.242188 C 250.113281 243.722656 248.460938 243.566406 247.570312 243.640625 C 245.457031 243.820312 243.089844 240.207031 241.535156 239.117188 C 242.195312 241.121094 243.296875 242.074219 245.535156 243.492188 C 246.628906 244.117188 244.007812 244.382812 244.050781 245.292969 C 244.128906 245.292969 244.75 245.617188 244.742188 245.777344 C 244.742188 245.894531 244.144531 245.367188 244.050781 245.292969 C 244.265625 245.148438 243.679688 248.820312 243.625 248.769531 C 245.375 250.785156 241.304688 250.203125 241.210938 250.261719 C 241.535156 250.722656 242.171875 250.96875 242.332031 251.625 C 241.136719 251.703125 240.1875 251.53125 239.03125 251.949219 C 240.699219 252.445312 249.886719 256.683594 247.882812 259.886719 C 247.238281 260.921875 241.015625 259.621094 239.863281 259.578125 C 237.453125 259.414062 239.695312 261.867188 239.757812 262.15625 C 240.136719 263.992188 241.566406 264.796875 241.449219 266.941406 C 241.347656 268.4375 242.878906 268.492188 243.363281 269.761719 C 243.769531 270.871094 243.527344 270.976562 244.699219 271.136719 C 246.75 271.386719 246.792969 271.082031 248.519531 272.4375 C 249.738281 273.386719 250.21875 271.535156 251.679688 271.476562 C 255.324219 271.316406 252.210938 270.589844 253.957031 270.097656 C 256.121094 269.492188 253.359375 266.113281 253.484375 265.464844 C 253.648438 264.5625 253.351562 263.578125 254.546875 263.234375 C 256.390625 262.75 254.046875 260.828125 253.921875 260.3125 C 253.570312 258.792969 259.019531 261.601562 258.371094 257.769531 C 261.496094 258.742188 264.71875 261.597656 267.621094 263.226562 C 269.328125 264.246094 271.03125 265.21875 272.28125 266.832031 C 273.757812 268.773438 270.144531 267.984375 269.921875 268.542969 C 269.703125 269.152344 273.113281 270.6875 273.652344 270.660156 C 273.722656 270.316406 273.253906 268.351562 273.191406 268.007812 C 273.03125 266.65625 271.054688 265.308594 271.195312 264.21875 C 271.828125 264.28125 272.398438 264.523438 272.875 264.917969 C 271.054688 262.652344 268.085938 262.425781 265.992188 260.769531 C 264.703125 259.722656 263.140625 258.894531 261.898438 257.835938 C 261.886719 257.816406 259.667969 255 261.21875 255.535156 C 263.660156 256.394531 266.332031 258.867188 268.828125 260.167969 C 270.804688 261.203125 271.300781 261.847656 272.753906 263.550781 C 273.328125 264.210938 276.390625 267.753906 277.066406 267.867188 C 277.039062 267.851562 279.558594 270.089844 280.558594 270.421875 C 280.117188 269.402344 279.722656 268.101562 279.207031 267.300781 C 278.515625 266.183594 275.679688 265.542969 275.679688 263.882812 C 276.316406 263.9375 276.390625 263.257812 277.765625 263.3125 C 277.023438 263.296875 278.675781 262.226562 278.570312 262.382812 C 275.917969 260.875 272.335938 256.433594 271.375 253.433594 C 272.097656 253.464844 272.496094 254.441406 273.289062 253.941406 C 273.042969 253.433594 272.960938 252.890625 273.042969 252.332031 C 273.257812 252.5625 275.75 254.730469 275.261719 255.15625 C 274.558594 255.132812 273.964844 254.839844 273.476562 254.292969 C 273.808594 255.550781 275.078125 255.578125 275.59375 256.445312 C 275.644531 256.105469 275.410156 255.816406 275.695312 255.425781 C 277.910156 256.34375 282.363281 259.828125 282.96875 262.285156 C 282.015625 262.382812 280.15625 260.335938 279.523438 260.835938 C 279.3125 261.347656 279.34375 261.828125 279.621094 262.320312 C 279.335938 262.328125 279.074219 262.382812 278.816406 262.523438 C 279.160156 262.804688 279.367188 263.179688 279.425781 263.617188 C 279.0625 263.722656 278.699219 263.847656 278.332031 263.933594 C 278.640625 265.171875 285.144531 271.359375 285.597656 270.734375 C 285.730469 270.523438 285.320312 269.894531 285.433594 269.796875 C 285.785156 269.410156 286.808594 271.195312 287.324219 270.84375 C 287.753906 270.570312 286.902344 270.011719 287.386719 269.765625 C 288.378906 269.261719 292.269531 276.894531 292.738281 277.785156 C 294.621094 281.324219 293.378906 279.167969 291.957031 279.660156 C 291.726562 280.019531 291.585938 280.398438 291.542969 280.835938 C 289.269531 280.308594 286.789062 279.007812 284.925781 277.675781 C 282 275.566406 285.882812 283.453125 284.183594 282.460938 C 283.1875 281.894531 282.601562 281.046875 281.34375 280.9375 C 279.574219 280.769531 279.070312 278.859375 277.425781 278.308594 C 276.078125 277.851562 270.785156 277.371094 271.472656 274.945312 C 272.027344 272.867188 269.359375 271.144531 268.472656 270.355469 C 268.007812 269.9375 262.136719 270.710938 261.183594 270.996094 C 259.5625 271.519531 257.011719 272.03125 256.09375 273.546875 C 254.535156 276.367188 250.945312 272.65625 249.496094 273.242188 C 248.726562 273.539062 249.46875 275.867188 249.070312 276.605469 C 248.503906 277.707031 247.054688 277.785156 246.695312 279.085938 C 246.0625 281.5 247.882812 283.472656 247.054688 285.6875 C 246.382812 287.441406 242.980469 288.203125 242.9375 289.644531 C 242.914062 290.425781 242.789062 291.28125 242.054688 291.691406 C 240.503906 292.582031 242.105469 294.59375 241.128906 295.621094 C 235.925781 300.914062 242.808594 306.109375 241.625 311.945312 C 240.964844 315.246094 240.566406 315.921875 241.996094 318.746094 C 242.3125 319.476562 242.066406 324.589844 244.667969 322.53125 C 244.992188 325.515625 248.84375 326.121094 249.511719 328.960938 C 249.859375 330.371094 250.644531 331.441406 251.617188 332.363281 C 271.046875 323.761719 288.421875 311.363281 302.796875 296.109375 C 300.730469 292.761719 296.855469 286.765625 297.472656 286.351562 C 297.839844 286.117188 300.46875 290.25 303.359375 295.503906 C 303.757812 295.078125 304.160156 294.65625 304.550781 294.222656 C 300.132812 284.394531 294.503906 275.105469 287.773438 266.691406 C 280.96875 258.167969 273.074219 250.527344 264.347656 244.003906 Z M 264.347656 244.003906 " fill-opacity="1" fill-rule="nonzero"/><path fill="#ffffff" d="M 123.445312 309.519531 C 123.261719 309.441406 123.820312 309.695312 123.445312 309.519531 Z M 123.445312 309.519531 " fill-opacity="1" fill-rule="nonzero"/><path fill="#ffffff" d="M 262.4375 262.679688 L 262.460938 262.6875 Z M 262.4375 262.679688 " fill-opacity="1" fill-rule="nonzero"/><path fill="#ffffff" d="M 260.886719 260.628906 C 260.042969 261.304688 262.046875 262.542969 262.4375 262.679688 C 262.367188 262.453125 261.484375 260.195312 260.886719 260.628906 Z M 260.886719 260.628906 " fill-opacity="1" fill-rule="nonzero"/><path fill="#ffffff" d="M 145.21875 252.980469 C 145.375 252.988281 145.085938 252.960938 145.21875 252.980469 Z M 145.21875 252.980469 " fill-opacity="1" fill-rule="nonzero"/><path fill="#ffffff" d="M 148.882812 242.015625 L 148.875 242.019531 L 148.878906 242.027344 Z M 148.882812 242.015625 " fill-opacity="1" fill-rule="nonzero"/><path fill="#ffffff" d="M 257.089844 266.261719 C 257.089844 266.261719 257.085938 266.261719 257.085938 266.257812 C 257.019531 266.253906 257.050781 266.257812 257.089844 266.261719 Z M 257.089844 266.261719 " fill-opacity="1" fill-rule="nonzero"/><path fill="#ffffff" d="M 283.980469 273.375 C 284.027344 273.421875 284.054688 273.453125 283.980469 273.375 Z M 283.980469 273.375 " fill-opacity="1" fill-rule="nonzero"/><path fill="#ffffff" d="M 152.558594 249.039062 C 152.414062 249.023438 152.597656 249.054688 152.558594 249.039062 Z M 152.558594 249.039062 " fill-opacity="1" fill-rule="nonzero"/><path fill="#ffffff" d="M 284.71875 273.140625 C 284.023438 272.585938 283.21875 272.769531 282.5 272.394531 C 282.710938 273.234375 283.566406 272.953125 283.980469 273.371094 C 283.882812 273.277344 283.710938 273.101562 283.980469 273.375 C 284.195312 273.597656 284.457031 273.34375 284.71875 273.140625 Z M 284.71875 273.140625 " fill-opacity="1" fill-rule="nonzero"/><path fill="#ffffff" d="M 265.234375 266.59375 C 265.546875 266.121094 263.679688 263.199219 262.917969 263.199219 C 262.636719 263.484375 262.320312 263.714844 262.003906 263.933594 C 262.894531 264.480469 264.355469 267.960938 265.234375 266.59375 Z M 265.234375 266.59375 " fill-opacity="1" fill-rule="nonzero"/><path fill="#ffffff" d="M 159.695312 236.828125 C 159.632812 236.816406 159.570312 236.769531 159.535156 236.796875 C 159.257812 236.925781 159.539062 236.925781 159.695312 236.828125 Z M 159.695312 236.828125 " fill-opacity="1" fill-rule="nonzero"/><path fill="#ffffff" d="M 170.371094 253.796875 L 170.367188 253.800781 Z M 170.371094 253.796875 " fill-opacity="1" fill-rule="nonzero"/><path fill="#ffffff" d="M 159.78125 224.296875 C 158.699219 224.203125 157.65625 224.335938 156.785156 225.046875 C 157.875 225.144531 158.863281 224.832031 159.78125 224.296875 Z M 159.78125 224.296875 " fill-opacity="1" fill-rule="nonzero"/><path fill="#ffffff" d="M 158.359375 222.921875 C 157.203125 222.617188 156.519531 222.535156 155.054688 223.550781 C 155.964844 223.210938 157.007812 223.5 157.933594 223.140625 C 157.804688 223.246094 157.820312 223.28125 158.359375 222.921875 Z M 158.359375 222.921875 " fill-opacity="1" fill-rule="nonzero"/><path fill="#ffffff" d="M 166.984375 223.273438 C 164.234375 223.007812 163.714844 222.042969 161.496094 223.726562 C 161.78125 223.789062 162 223.828125 162.179688 223.851562 C 164.371094 224.210938 166.195312 224.003906 166.984375 223.273438 Z M 166.984375 223.273438 " fill-opacity="1" fill-rule="nonzero"/><path fill="#ffffff" d="M 171.394531 253.90625 C 171.355469 253.929688 171.355469 253.941406 171.339844 253.957031 C 171.339844 253.980469 171.335938 254.003906 171.335938 254.023438 C 171.394531 254.042969 171.503906 254.007812 171.394531 253.90625 Z M 171.394531 253.90625 " fill-opacity="1" fill-rule="nonzero"/><path fill="#ffffff" d="M 171.335938 254.023438 C 171.304688 254.015625 171.308594 253.992188 171.339844 253.957031 C 171.390625 253.394531 171.394531 252.914062 171.421875 252.84375 C 170.011719 252.640625 171.746094 250.621094 169.328125 251.488281 C 169.496094 251.421875 166.710938 250.65625 166.855469 250.835938 C 166.628906 250.605469 168.824219 248.703125 168.984375 248.453125 C 167.703125 248.136719 167.527344 248.703125 166.933594 249.15625 C 166.699219 249.328125 164.597656 251.296875 163.257812 252.710938 C 163.304688 252.722656 163.347656 252.738281 163.390625 252.773438 C 163.355469 252.773438 163.28125 252.769531 163.207031 252.765625 C 162.5625 253.445312 162.105469 253.988281 162.144531 254.121094 C 162.246094 254.511719 166.851562 254.234375 167.648438 254.683594 C 167.601562 255.210938 166.96875 254.9375 166.871094 255.394531 C 167.46875 255.394531 169.328125 254.238281 169.636719 254.585938 C 169.667969 254.867188 169.621094 255.164062 169.496094 255.429688 C 170.863281 256.789062 171.21875 255.246094 171.335938 254.023438 Z M 170.367188 253.800781 C 170.347656 253.828125 170.320312 253.863281 170.371094 253.796875 C 170.386719 253.777344 170.382812 253.78125 170.371094 253.796875 C 170.503906 253.644531 171.261719 253.324219 170.796875 253.761719 C 170.636719 254.058594 169.96875 254.269531 170.367188 253.800781 Z M 170.367188 253.800781 " fill-opacity="1" fill-rule="nonzero"/><path fill="#ffffff" d="M 153.257812 224.660156 C 153.058594 224.667969 152.824219 224.632812 152.671875 224.828125 C 152.914062 224.902344 153.113281 224.878906 153.257812 224.660156 Z M 153.257812 224.660156 " fill-opacity="1" fill-rule="nonzero"/><path fill="#ffffff" d="M 152.636719 224.84375 C 152.648438 224.84375 152.671875 224.84375 152.671875 224.84375 L 152.671875 224.824219 C 152.648438 224.824219 152.648438 224.832031 152.636719 224.84375 Z M 152.636719 224.84375 " fill-opacity="1" fill-rule="nonzero"/><path fill="#ffffff" d="M 139.746094 309.5625 C 134.386719 306.949219 138.222656 313.285156 139.746094 309.5625 Z M 139.746094 309.5625 " fill-opacity="1" fill-rule="nonzero"/><path fill="#ffffff" d="M 166.933594 249.15625 C 167.085938 249.03125 166.148438 249.71875 166.933594 249.15625 Z M 166.933594 249.15625 " fill-opacity="1" fill-rule="nonzero"/><path fill="#ffffff" d="M 153.355469 224.628906 C 153.503906 224.609375 153.667969 224.589844 153.808594 224.570312 C 153.644531 224.503906 153.492188 224.527344 153.355469 224.628906 Z M 153.355469 224.628906 " fill-opacity="1" fill-rule="nonzero"/><path fill="#ffffff" d="M 156.339844 225.253906 C 156.339844 225.265625 156.332031 225.265625 156.332031 225.265625 C 156.359375 225.273438 156.367188 225.273438 156.367188 225.253906 C 156.359375 225.253906 156.359375 225.253906 156.339844 225.253906 Z M 156.339844 225.253906 " fill-opacity="1" fill-rule="nonzero"/><path fill="#ffffff" d="M 153.332031 225.726562 C 154.660156 225.851562 155.632812 225.144531 156.582031 224.421875 C 155.425781 224.667969 154.21875 224.800781 153.332031 225.726562 Z M 153.332031 225.726562 " fill-opacity="1" fill-rule="nonzero"/><path fill="#ffffff" d="M 160.171875 223.640625 C 160.171875 223.640625 160.167969 223.640625 160.167969 223.636719 C 160.195312 223.679688 160.214844 223.710938 160.171875 223.640625 Z M 160.171875 223.640625 " fill-opacity="1" fill-rule="nonzero"/><path fill="#ffffff" d="M 161.511719 222.632812 C 160.789062 222.832031 159.972656 222.601562 159.378906 223.253906 C 159.589844 223.527344 159.953125 223.339844 160.167969 223.636719 C 160.117188 223.566406 160.035156 223.445312 160.171875 223.640625 C 160.625 224.300781 161.476562 222.71875 161.511719 222.632812 Z M 161.511719 222.632812 " fill-opacity="1" fill-rule="nonzero"/><path fill="#ffffff" d="M 167.160156 248.570312 C 167.1875 248.582031 167.1875 248.582031 167.207031 248.601562 C 167.1875 248.585938 167.1875 248.558594 167.1875 248.558594 Z M 167.160156 248.570312 " fill-opacity="1" fill-rule="nonzero"/><path fill="#ffffff" d="M 156.332031 225.265625 C 156.25 225.292969 156.171875 225.292969 156.09375 225.308594 C 156.136719 225.441406 156.222656 225.429688 156.332031 225.265625 Z M 156.332031 225.265625 " fill-opacity="1" fill-rule="nonzero"/><path fill="#ffffff" d="M 153.304688 224.65625 C 153.304688 224.640625 153.332031 224.640625 153.355469 224.628906 C 153.332031 224.628906 153.210938 224.65625 153.304688 224.65625 Z M 153.304688 224.65625 " fill-opacity="1" fill-rule="nonzero"/><path fill="#ffffff" d="M 157.203125 256.113281 C 156.785156 256.148438 156.5 256.207031 156.25 256.15625 C 156.171875 256.148438 154.546875 255.460938 154.765625 255.402344 C 154.476562 255.492188 155.929688 257.648438 157.203125 256.113281 Z M 157.203125 256.113281 " fill-opacity="1" fill-rule="nonzero"/><path fill="#ffffff" d="M 159.503906 251.953125 C 158.449219 251.164062 157.492188 250.800781 156.296875 250.832031 C 157.203125 251.671875 158.097656 252.21875 159.503906 251.953125 Z M 159.503906 251.953125 " fill-opacity="1" fill-rule="nonzero"/><path fill="#ffffff" d="M 122.15625 246.363281 C 122.648438 246.066406 122.710938 245.828125 122.320312 245.695312 C 121.863281 245.933594 121.785156 246.164062 122.082031 246.378906 C 122.0625 246.386719 122.058594 246.394531 122.101562 246.398438 C 122.226562 246.363281 122.203125 246.359375 122.15625 246.363281 Z M 122.15625 246.363281 " fill-opacity="1" fill-rule="nonzero"/><path fill="#ffffff" d="M 149.71875 234 C 148.855469 234.007812 148.214844 234 147.667969 234.628906 C 148.445312 234.683594 148.996094 234.394531 149.71875 234 Z M 149.71875 234 " fill-opacity="1" fill-rule="nonzero"/><path fill="#ffffff" d="M 123.191406 253.691406 C 123.164062 253.703125 123.140625 253.714844 123.117188 253.722656 C 123.304688 253.660156 123.472656 253.605469 123.191406 253.691406 Z M 123.191406 253.691406 " fill-opacity="1" fill-rule="nonzero"/><path fill="#ffffff" d="M 147.609375 325.976562 C 146.640625 326.054688 146.160156 327.554688 146.234375 327.585938 C 147.332031 327.707031 146.433594 327.59375 146.257812 327.582031 C 146.84375 327.628906 148.757812 326.699219 147.609375 325.976562 Z M 147.609375 325.976562 " fill-opacity="1" fill-rule="nonzero"/><path fill="#ffffff" d="M 128.097656 250.332031 C 128.121094 250.28125 128.132812 250.246094 128.136719 250.234375 C 128.113281 250.128906 128.097656 250.269531 128.097656 250.332031 Z M 128.097656 250.332031 " fill-opacity="1" fill-rule="nonzero"/><path fill="#ffffff" d="M 145.980469 327.527344 C 145.839844 327.539062 145.734375 327.585938 145.695312 327.691406 C 145.816406 327.621094 145.894531 327.582031 145.980469 327.527344 Z M 145.980469 327.527344 " fill-opacity="1" fill-rule="nonzero"/><path fill="#ffffff" d="M 163.109375 252.695312 C 163.121094 252.695312 163.121094 252.691406 163.074219 252.691406 C 163.054688 252.695312 163.058594 252.695312 163.066406 252.695312 C 162.886719 252.734375 163.046875 252.753906 163.207031 252.765625 C 163.226562 252.746094 163.242188 252.726562 163.261719 252.710938 C 163.214844 252.699219 163.164062 252.695312 163.109375 252.695312 Z M 163.109375 252.695312 " fill-opacity="1" fill-rule="nonzero"/><path fill="#ffffff" d="M 211.015625 221.558594 C 209.683594 221.171875 207.390625 220.445312 205.496094 220.667969 C 207.085938 221.296875 208.796875 221.359375 210.429688 221.816406 C 210.320312 221.78125 211.453125 221.695312 211.015625 221.558594 Z M 211.015625 221.558594 " fill-opacity="1" fill-rule="nonzero"/><path fill="#ffffff" d="M 212.34375 232.179688 C 214.640625 231.144531 208.125 230.484375 207.25 230.625 C 206.730469 230.738281 203.472656 230.53125 203.578125 230.976562 C 203.5625 230.90625 203.546875 230.863281 203.578125 230.980469 C 203.65625 231.246094 203.609375 231.089844 203.582031 230.980469 C 203.632812 231.082031 205.894531 231.988281 206.3125 232.339844 C 207.980469 233.890625 210.578125 232.96875 212.34375 232.179688 Z M 212.34375 232.179688 " fill-opacity="1" fill-rule="nonzero"/><path fill="#ffffff" d="M 204.953125 220.714844 C 205.132812 220.699219 205.320312 220.691406 205.496094 220.667969 C 205.316406 220.527344 205.132812 220.558594 204.953125 220.714844 Z M 204.953125 220.714844 " fill-opacity="1" fill-rule="nonzero"/><path fill="#ffffff" d="M 179.726562 219.90625 C 176.335938 219.488281 170.15625 219.855469 167.1875 221.675781 C 168.136719 222.28125 165.976562 222.339844 165.605469 222.691406 C 166.324219 222.796875 167.058594 222.71875 167.742188 222.832031 C 167.96875 222.867188 167.949219 222.859375 167.863281 222.84375 C 171.3125 223.292969 175.117188 219.878906 178.652344 220.632812 C 177.820312 221.964844 173.015625 221.097656 173.246094 222.742188 C 173.359375 223.398438 177.109375 222.84375 177.804688 223.316406 C 179.371094 224.40625 177.566406 225.328125 177.910156 226.34375 C 178.953125 225.851562 179.808594 226.085938 180.492188 227.046875 C 179.136719 226.84375 178.199219 226.449219 177.347656 227.632812 C 178.398438 228.398438 181.929688 227.238281 178.378906 228.652344 C 175.449219 229.804688 178.152344 233.546875 179.328125 234.953125 C 179.886719 235.65625 185.304688 238.34375 186.085938 237.175781 C 187.148438 235.496094 188.40625 233.496094 188.40625 231.859375 C 189.992188 231.269531 192.203125 231.363281 193.652344 230.410156 C 196.058594 228.847656 199.257812 229.082031 201.402344 227.144531 C 200.46875 227.0625 198.628906 227.355469 197.789062 227.125 C 197.507812 227.238281 197.109375 226.511719 197.4375 226.5625 C 197.246094 226.511719 201.5 226.828125 201.65625 226.613281 C 201.726562 226.5 200.144531 225.613281 200.042969 225.324219 C 199.609375 224.007812 200.230469 224.992188 200.265625 223.585938 C 199.464844 224.023438 197.691406 222.007812 196.808594 221.894531 C 195.304688 221.675781 196.808594 220.324219 195.484375 220.164062 C 193.96875 220.066406 192.652344 220.035156 191.125 219.789062 C 187.355469 219.191406 183.554688 220.375 179.726562 219.90625 Z M 179.726562 219.90625 " fill-opacity="1" fill-rule="nonzero"/><path fill="#ffffff" d="M 106.691406 316.394531 C 107.441406 314.539062 100.320312 313.976562 99.429688 314.714844 C 97.691406 316.152344 99.707031 311.789062 99.683594 311.914062 C 99.882812 310.152344 100.289062 308.988281 101.070312 309.015625 C 101.527344 307.976562 104.179688 303.214844 103.914062 302.648438 C 102.835938 300.15625 98.328125 304.570312 97.894531 305.6875 C 97.464844 306.769531 96.589844 307.382812 96.171875 308.359375 C 95.75 309.339844 94.917969 308.136719 94.195312 308.53125 C 92.25 309.636719 89.480469 309.0625 89.902344 306.242188 C 90.347656 302.84375 89.042969 296.125 92.871094 293.796875 C 94.027344 293.070312 94.210938 289.691406 95.546875 288.5 C 95.71875 288.347656 99.585938 286.117188 99.195312 285.660156 C 99.777344 286.269531 102.789062 285.046875 103.203125 285.84375 C 103.480469 286.492188 105.269531 287.179688 105.914062 286.808594 C 105.871094 286.890625 106.203125 285.300781 106.203125 285.285156 C 106.15625 285.265625 104.957031 285.117188 105.03125 284.730469 C 105.148438 284.210938 108.769531 284.5625 108.890625 284.578125 C 110.585938 284.691406 111.878906 286.121094 113.144531 285.265625 C 115.113281 283.921875 113.898438 292.726562 114.6875 293.53125 C 115.121094 294.007812 114.820312 295.070312 115.644531 294.980469 C 116.773438 294.855469 117.117188 283.542969 120.042969 281.203125 C 122.175781 279.484375 124.488281 277.945312 126.839844 276.664062 C 127.605469 276.28125 129.542969 275.324219 129.957031 274.613281 C 129.859375 274.242188 129.492188 273.800781 129.097656 274.183594 C 128.992188 273.496094 130.164062 273.917969 130.371094 273.199219 C 130.585938 272.46875 129.765625 272.238281 129.851562 271.976562 C 129.832031 272.023438 130.265625 271.144531 130.363281 270.8125 C 130.367188 270.832031 130.375 270.847656 130.378906 270.867188 C 131.570312 271.058594 130.125 269.761719 130.070312 269.574219 C 131.609375 270.371094 130.960938 267.890625 132.464844 267.757812 C 131.390625 268.214844 131.601562 269.417969 131.742188 270.15625 C 132.042969 271.753906 133.480469 267.917969 133.304688 268.070312 C 134.742188 267.472656 136.988281 266.269531 138.515625 265.183594 C 138.164062 265.035156 137.777344 265.324219 137.355469 265.007812 C 138.933594 264.445312 140.695312 264.628906 142.222656 263.859375 C 142.128906 262.253906 143.097656 260.59375 144.875 260.285156 C 147.613281 259.835938 150.828125 258.160156 153.550781 257.226562 C 153.515625 257.308594 153.5 257.359375 153.480469 257.414062 C 151.84375 258.042969 149.300781 261.808594 151.101562 260.753906 C 153.046875 259.613281 159.625 258.609375 160.523438 256.707031 C 160.496094 256.601562 160.085938 255.339844 160.085938 255.339844 C 158.46875 255.339844 158.335938 257.339844 156.34375 257.339844 C 152.707031 257.28125 154.890625 255.0625 154.144531 254.058594 C 153.503906 254.214844 152.957031 254.027344 152.507812 253.542969 C 152.878906 253.453125 157.359375 252.429688 154.984375 251.882812 C 151.144531 251.066406 148.613281 255.34375 145.445312 255.234375 C 147.796875 253.796875 151 250.722656 153.867188 250.34375 C 156.914062 249.9375 161.136719 251.421875 163.824219 249.53125 C 166.191406 247.867188 167.847656 249.101562 169.195312 246.398438 C 169.609375 245.667969 167.449219 244.746094 166.890625 244.621094 C 167.144531 244.351562 167.625 244.621094 167.785156 244.167969 C 164.203125 242.570312 163.453125 240.964844 163.027344 236.820312 C 161.191406 238.152344 155.054688 241.007812 158.335938 236.375 C 157.152344 235.855469 153.429688 232.75 152.007812 234.898438 C 151.332031 235.855469 150.289062 237.46875 149.203125 237.96875 C 146.765625 239.082031 148.933594 238.863281 148.109375 240.496094 C 146.726562 243.191406 143.410156 242.816406 141.832031 245.167969 C 140.84375 246.652344 140.527344 247.6875 138.972656 248.382812 C 137.632812 248.984375 137.125 247.386719 137.777344 246.121094 C 138.253906 246.648438 138.695312 246.726562 139.085938 246.34375 C 139.195312 245.773438 138.363281 246.042969 138.109375 245.808594 C 138.589844 244.980469 139.175781 244.214844 139.84375 243.523438 C 139.613281 243.382812 136.175781 242.851562 136.304688 241.945312 C 136.519531 240.066406 134.164062 241.09375 133.746094 240.53125 C 135.582031 238.21875 135.601562 237.136719 139.195312 235.328125 C 140.441406 234.695312 147.363281 231.167969 148.640625 232.054688 C 148.46875 232.835938 147.613281 232.679688 147.160156 233.089844 C 148.15625 233.339844 151.042969 233.660156 152.03125 232.96875 C 151.808594 232.792969 150.648438 230.859375 151.257812 230.40625 C 151.152344 230.492188 153.242188 230.445312 153.398438 230.398438 C 154.515625 230.132812 155.734375 229.992188 156.367188 228.867188 C 156.914062 227.855469 160.578125 226.5625 161.445312 227.054688 C 166.222656 229.765625 154.949219 232.648438 154.859375 232.332031 C 155.066406 233.125 158.121094 231.789062 158.871094 233.886719 C 159.054688 234.386719 162.519531 235.5 162.859375 235.007812 C 163.050781 234.777344 161.871094 233.519531 161.8125 233.207031 C 165.449219 234.953125 165.242188 234.050781 164.636719 231.621094 C 164.078125 229.300781 166.757812 231.769531 166.921875 231.839844 C 167.523438 232.15625 169.976562 230.75 170.335938 230.246094 C 169.460938 229.5625 167.917969 229.585938 167.15625 228.742188 C 166.425781 228.03125 169.0625 227.855469 168.136719 227.101562 C 167.050781 226.1875 165.292969 226.433594 165.886719 224.660156 C 165.28125 224.488281 164.671875 224.5625 164.113281 224.890625 C 164.273438 225.222656 164.632812 224.96875 164.773438 225.160156 C 164.175781 225.523438 163.511719 225.574219 162.824219 225.5625 C 163.039062 225.253906 163.636719 225.253906 163.652344 224.652344 C 161.78125 224.433594 160.785156 225.5625 159.15625 226.042969 C 159.617188 225.386719 160.40625 225.183594 160.972656 224.671875 C 159.171875 224.902344 157.472656 225.570312 156.066406 226.738281 C 156.28125 226.929688 156.492188 227.136719 156.625 227.394531 C 155.261719 228.613281 153.425781 228.972656 151.824219 229.714844 C 152.09375 228.628906 153.257812 228.902344 153.640625 228.097656 C 153.054688 228.105469 152.488281 228.21875 151.953125 228.480469 C 152.625 228.394531 154.65625 226.378906 155.117188 225.863281 C 152.1875 225.542969 150.96875 229.296875 148.222656 228.765625 C 148.792969 228.105469 149.953125 228.429688 150.34375 227.394531 C 149.320312 227.519531 145.464844 230.132812 144.835938 228.765625 C 144.800781 228.6875 151.890625 225.863281 152.632812 224.84375 C 152.164062 224.78125 151.625 225.289062 151.183594 224.710938 C 151.53125 224.316406 152.117188 224.292969 152.503906 223.859375 C 150.1875 223.839844 143.265625 226.660156 143.796875 228.292969 C 142.898438 229.011719 141.933594 229.214844 140.839844 228.746094 C 141.265625 228.082031 142.773438 228.074219 141.558594 227.097656 C 139.316406 227.921875 137.144531 228.828125 134.960938 229.773438 C 129.996094 232.003906 125.085938 234.609375 120.441406 237.46875 C 112.769531 242.21875 106.441406 247.828125 100.113281 254.171875 C 96.742188 257.589844 83.933594 272.539062 83.96875 275.660156 C 84.015625 277.964844 82.664062 279.992188 81.792969 282.074219 C 81.09375 283.769531 81.035156 286.144531 80.175781 287.707031 C 78.324219 291.027344 79.175781 294.855469 78.335938 298.652344 C 79.386719 297.886719 81.554688 280.425781 83.4375 281.078125 C 83.808594 281.207031 82.273438 288.324219 81.886719 289.214844 C 80.304688 292.875 82.390625 297.34375 81.339844 301.167969 C 81.238281 301.542969 80.699219 303.492188 80.6875 303.875 C 80.605469 303.9375 80.539062 304.003906 80.472656 304.070312 C 87.980469 310.980469 96.15625 317.175781 104.898438 322.542969 C 105.148438 320.390625 105.890625 318.222656 106.691406 316.394531 Z M 165.957031 244.875 C 165.242188 245.5 164.484375 245.628906 163.683594 245.847656 C 164.25 245.007812 165.101562 245.136719 165.957031 244.875 Z M 159.285156 244.292969 C 159.804688 244.222656 160.214844 244.371094 160.488281 244.738281 C 160.515625 244.9375 157.757812 245.0625 157.339844 245.773438 C 157.691406 244.566406 158.699219 244.765625 159.285156 244.292969 Z M 152.558594 249.039062 C 153.148438 249.1875 151.734375 248.917969 152.558594 249.039062 Z M 148.875 242.019531 C 148.890625 241.949219 148.886719 241.976562 148.882812 242.015625 C 149.132812 241.730469 149.328125 241.785156 149.464844 242.152344 C 149.203125 242.445312 149.011719 242.394531 148.878906 242.027344 C 148.875 242.066406 148.867188 242.105469 148.875 242.019531 Z M 145.21875 252.980469 C 144.179688 252.902344 146.3125 253.007812 145.21875 252.980469 Z M 146.3125 248.722656 C 142.742188 252.066406 145.519531 248.769531 144.480469 249.804688 C 144.503906 249.859375 144.480469 249.902344 144.425781 249.917969 C 144.207031 249.679688 145.351562 249.128906 145.960938 248.867188 C 146.007812 248.816406 146.101562 248.761719 146.3125 248.722656 Z M 144.984375 244.773438 C 144.351562 245.523438 144.351562 245.523438 143.441406 245.34375 C 143.925781 245.039062 144.550781 245.148438 144.984375 244.773438 Z M 160.917969 232.191406 C 160.691406 232.199219 160.472656 232.199219 160.105469 232.199219 C 161.25 231.238281 161.039062 232.191406 160.917969 232.191406 Z M 163.515625 230.488281 C 163.105469 230.925781 162.554688 230.671875 162.0625 230.890625 C 162.570312 229.878906 162.671875 229.863281 163.515625 230.488281 Z M 149.058594 231.648438 C 149.355469 231.382812 149.71875 231.238281 150.109375 231.269531 C 150.464844 231.773438 147.9375 232.066406 149.058594 231.648438 Z M 148.386719 230.9375 C 148.347656 230.941406 148.316406 230.941406 148.40625 230.925781 C 148.460938 230.925781 148.445312 230.929688 148.417969 230.933594 C 148.8125 231.113281 148.777344 231.289062 148.304688 231.507812 C 147.949219 231.292969 148.007812 231.113281 148.386719 230.9375 Z M 129.722656 262.8125 C 129.066406 263.054688 129.238281 262.996094 129.480469 262.90625 C 128.414062 263.320312 124.179688 264.878906 124.558594 263.660156 C 124.414062 264.105469 126.480469 262.074219 126.046875 262.277344 C 126.507812 262.074219 130.285156 261.835938 131.378906 261.855469 C 130.800781 262.417969 130.273438 262.621094 129.722656 262.8125 Z M 130.667969 261.066406 C 131.710938 260.160156 132.941406 259.898438 134.203125 260.042969 C 138.847656 260.484375 131.460938 261.890625 130.667969 261.066406 Z M 133.449219 231.179688 C 134.683594 230.382812 136.011719 229.789062 137.644531 229.425781 C 136.457031 230.410156 134.859375 230.820312 133.414062 231.21875 Z M 133.710938 256.253906 C 133.492188 256.464844 133.304688 256.457031 133.109375 256.253906 C 133.394531 256.148438 133.667969 256.050781 133.710938 256.253906 Z M 132.335938 259.035156 C 132.242188 259.035156 131.894531 258.9375 132.335938 259.035156 Z M 130.230469 258.035156 C 130.191406 259.25 128.0625 261.296875 126.933594 261.546875 C 127.375 261.066406 127.519531 260.535156 127.382812 259.96875 C 127.089844 259.726562 126.5625 260.226562 126.164062 260.414062 C 126.847656 259.671875 128.617188 255.792969 126.558594 257.191406 C 125.671875 257.851562 119.871094 264.023438 119.535156 263.6875 C 118.996094 263.136719 122.101562 258.605469 122.328125 258.429688 C 124.3125 256.800781 128.457031 255.492188 130.984375 256.660156 C 132.65625 257.457031 131.695312 260.066406 130.230469 258.035156 Z M 127.714844 235.125 C 127.695312 235.140625 127.691406 235.140625 127.75 235.109375 C 128.113281 234.902344 127.980469 234.972656 127.847656 235.050781 C 128.277344 234.789062 129.855469 233.855469 130.082031 234.09375 C 130.6875 234.835938 127.097656 235.761719 126.914062 235.777344 C 127.117188 235.347656 127.449219 235.261719 127.714844 235.125 Z M 128.136719 250.234375 C 128.105469 250.378906 128.097656 250.367188 128.097656 250.332031 C 127.941406 250.664062 127.339844 251.667969 126.933594 251.171875 C 126.582031 250.789062 128.007812 249.601562 128.136719 250.234375 Z M 124.136719 238.523438 C 124.59375 238.363281 127.289062 236.710938 127.382812 237.445312 C 127.429688 237.636719 124.683594 238.363281 124.136719 238.523438 Z M 123.238281 241.65625 C 123.042969 242 122.867188 242.183594 122.449219 242.175781 C 122.613281 241.8125 122.867188 241.765625 123.238281 241.65625 Z M 121.144531 248.917969 C 121.566406 248.589844 121.28125 248.808594 121.160156 248.902344 C 121.585938 248.554688 122.546875 247.011719 122.058594 246.398438 C 122.324219 246.730469 120.25 246.175781 121.199219 245.808594 C 121.582031 245.695312 123.945312 244.40625 124.316406 244.800781 C 124.996094 245.492188 121.378906 249.292969 120.660156 249.617188 C 120.71875 249.226562 120.941406 249.066406 121.144531 248.917969 Z M 123.117188 253.722656 C 122.871094 253.804688 122.59375 253.894531 123.191406 253.691406 C 125.796875 252.867188 126.726562 251.402344 128.296875 253.390625 C 128.878906 254.121094 128.78125 256.027344 127.382812 255.589844 C 127.769531 255.710938 123.179688 255.273438 124.019531 254.769531 C 123.101562 255.351562 121.3125 255.746094 120.230469 255.273438 C 121.207031 254.714844 122.085938 254.089844 123.117188 253.722656 Z M 119.589844 248.882812 C 119.824219 249.488281 119.640625 249.804688 118.941406 249.917969 C 119.207031 249.488281 119.394531 249.167969 119.589844 248.882812 Z M 82.792969 304.816406 C 81.613281 304.789062 83.703125 304.789062 82.792969 304.816406 Z M 82.792969 304.816406 " fill-opacity="1" fill-rule="nonzero"/><path fill="#ffffff" d="M 158.976562 229.695312 C 159.707031 229.722656 160.371094 229.597656 161 228.90625 C 159.738281 228.878906 159.355469 229.050781 158.976562 229.695312 Z M 158.976562 229.695312 " fill-opacity="1" fill-rule="nonzero"/><path fill="#ffffff" d="M 150.972656 234.65625 C 150.523438 234.683594 150.128906 234.796875 149.855469 235.394531 C 150.402344 235.203125 150.726562 235.019531 150.972656 234.65625 Z M 150.972656 234.65625 " fill-opacity="1" fill-rule="nonzero"/><path fill="#ffffff" d="M 156.753906 225.050781 C 156.570312 225.035156 156.421875 225.050781 156.367188 225.253906 C 156.527344 225.253906 156.710938 225.292969 156.753906 225.050781 Z M 156.753906 225.050781 " fill-opacity="1" fill-rule="nonzero"/><path fill="#131a26" d="M 218.238281 264.1875 C 218.238281 269.257812 204.535156 273.378906 187.613281 273.378906 C 170.695312 273.378906 156.984375 269.257812 156.984375 264.1875 C 156.984375 259.109375 170.695312 254.992188 187.613281 254.992188 C 204.535156 254.992188 218.238281 259.109375 218.238281 264.1875 Z M 218.238281 264.1875 " fill-opacity="1" fill-rule="nonzero"/><path fill="#ffffff" d="M 117.007812 125.175781 L 117.003906 125.175781 C 117.003906 125.023438 117.007812 124.871094 117.007812 124.738281 C 117.007812 116.195312 110.09375 109.285156 101.550781 109.285156 C 94.582031 109.285156 88.683594 113.898438 86.773438 120.25 C 85.609375 119.699219 84.304688 119.402344 82.9375 119.402344 C 77.964844 119.402344 73.929688 123.429688 73.929688 128.398438 C 73.929688 129.546875 74.148438 130.640625 74.53125 131.65625 C 74.433594 131.648438 74.339844 131.636719 74.242188 131.636719 C 71.046875 131.636719 68.464844 134.222656 68.464844 137.402344 C 68.464844 140.589844 71.046875 143.175781 74.242188 143.175781 L 117.007812 143.175781 C 121.976562 143.175781 126.011719 139.148438 126.011719 134.179688 C 126.011719 129.199219 121.976562 125.175781 117.007812 125.175781 Z M 117.007812 125.175781 " fill-opacity="1" fill-rule="nonzero"/><path fill="#242d3c" d="M 187.617188 165.628906 L 277.691406 165.628906 L 277.691406 169.027344 L 187.617188 169.027344 Z M 187.617188 165.628906 " fill-opacity="1" fill-rule="nonzero"/><path fill="#242d3c" d="M 277.691406 159.238281 L 277.691406 175.417969 L 297.914062 167.328125 Z M 277.691406 159.238281 " fill-opacity="1" fill-rule="nonzero"/><path fill="#ff6d3b" d="M 187.613281 111.035156 C 156.535156 111.035156 131.316406 136.261719 131.316406 167.328125 C 131.316406 180.289062 136.035156 191.902344 142.980469 201.636719 C 187.617188 264.183594 187.617188 264.183594 187.617188 264.183594 C 187.617188 264.183594 187.617188 264.183594 232.253906 201.628906 C 239.195312 191.894531 243.902344 180.253906 243.902344 167.328125 C 243.898438 136.261719 218.714844 111.035156 187.613281 111.035156 Z M 187.613281 111.035156 " fill-opacity="1" fill-rule="nonzero"/><path fill="#ffffff" d="M 233.304688 167.335938 C 233.304688 192.5625 212.84375 213.019531 187.617188 213.019531 C 162.390625 213.019531 141.933594 192.5625 141.933594 167.335938 C 141.933594 142.101562 162.390625 121.648438 187.617188 121.648438 C 212.84375 121.648438 233.304688 142.101562 233.304688 167.335938 Z M 233.304688 167.335938 " fill-opacity="1" fill-rule="nonzero"/><path fill="#d9d8d7" d="M 187.617188 202.820312 C 168.050781 202.820312 152.128906 186.898438 152.128906 167.332031 C 152.128906 147.761719 168.050781 131.84375 187.617188 131.84375 C 207.1875 131.84375 223.105469 147.761719 223.105469 167.332031 C 223.105469 186.898438 207.1875 202.820312 187.617188 202.820312 Z M 187.617188 143.265625 C 174.347656 143.265625 163.550781 154.0625 163.550781 167.332031 C 163.550781 180.601562 174.347656 191.398438 187.617188 191.398438 C 200.890625 191.398438 211.683594 180.601562 211.683594 167.332031 C 211.683594 154.0625 200.890625 143.265625 187.617188 143.265625 Z M 187.617188 143.265625 " fill-opacity="1" fill-rule="nonzero"/><path fill="#ff6d3b" d="M 201.488281 167.335938 C 201.488281 174.992188 195.273438 181.203125 187.617188 181.203125 C 179.96875 181.203125 173.75 174.992188 173.75 167.335938 C 173.75 159.675781 179.96875 153.464844 187.617188 153.464844 C 195.273438 153.464844 201.488281 159.671875 201.488281 167.335938 Z M 201.488281 167.335938 " fill-opacity="1" fill-rule="nonzero"/><path fill="#ff6d3b" d="M 79.023438 159.246094 L 100.226562 159.246094 L 108.320312 167.332031 L 100.226562 175.425781 L 79.023438 175.425781 L 87.109375 167.332031 Z M 79.023438 159.246094 " fill-opacity="1" fill-rule="nonzero"/><path fill="#242d3c" d="M 79.023438 169.027344 L 187.617188 169.027344 C 188.558594 169.027344 189.316406 168.269531 189.316406 167.328125 C 189.316406 166.398438 188.558594 165.632812 187.617188 165.632812 L 79.023438 165.632812 C 78.085938 165.632812 77.324219 166.398438 77.324219 167.328125 C 77.324219 168.269531 78.085938 169.027344 79.023438 169.027344 Z M 79.023438 169.027344 " fill-opacity="1" fill-rule="nonzero"/><path fill="#ffffff" d="M 280.0625 200.636719 C 279.476562 200.636719 278.917969 200.734375 278.394531 200.917969 C 278.542969 200.136719 278.628906 199.335938 278.628906 198.515625 C 278.628906 191.660156 273.078125 186.113281 266.226562 186.113281 C 259.375 186.113281 253.816406 191.660156 253.816406 198.515625 C 253.816406 198.609375 253.832031 198.691406 253.832031 198.789062 C 253.039062 198.433594 252.171875 198.242188 251.261719 198.242188 C 247.753906 198.242188 244.917969 201.078125 244.917969 204.574219 C 244.917969 208.082031 247.757812 210.921875 251.261719 210.921875 L 280.058594 210.917969 C 282.894531 210.917969 285.199219 208.613281 285.199219 205.78125 C 285.203125 202.941406 282.898438 200.636719 280.0625 200.636719 Z M 280.0625 200.636719 " fill-opacity="1" fill-rule="nonzero"/></svg>