<svg xmlns="http://www.w3.org/2000/svg" xmlns:xlink="http://www.w3.org/1999/xlink" width="500" zoomAndPan="magnify" viewBox="0 0 375 374.999991" height="500" preserveAspectRatio="xMidYMid meet" version="1.0"><defs><clipPath id="0db2d6cfbd"><path d="M 38 15.164062 L 337.246094 15.164062 L 337.246094 360 L 38 360 Z M 38 15.164062 " clip-rule="nonzero"/></clipPath><clipPath id="5834133022"><path d="M 224.378906 75.691406 C 209.917969 40.238281 175.078125 15.28125 134.382812 15.550781 C 82.523438 15.886719 39.878906 57.726562 38.601562 109.59375 C 37.996094 135.15625 47.347656 158.566406 63.019531 176.191406 C 75.527344 190.253906 81.851562 208.683594 81.179688 227.519531 C 81.113281 230.007812 81.113281 232.566406 81.113281 235.054688 C 82.792969 303.265625 141.042969 360.042969 209.246094 359.976562 C 279.9375 359.910156 337.246094 302.59375 337.246094 231.824219 C 337.246094 179.960938 306.441406 135.359375 262.183594 115.175781 C 245.03125 107.308594 231.511719 93.246094 224.378906 75.691406 Z M 224.378906 75.691406 " clip-rule="nonzero"/></clipPath><linearGradient x1="50.221808" gradientTransform="matrix(0.672623, 0, 0, -0.67271, 15.80031, 361.322228)" y1="526.662696" x2="442.051013" gradientUnits="userSpaceOnUse" y2="-23.626001" id="7bbaed53d9"><stop stop-opacity="1" stop-color="rgb(100%, 85.899353%, 92.89856%)" offset="0"/><stop stop-opacity="1" stop-color="rgb(100%, 85.899353%, 92.89856%)" offset="0.0625"/><stop stop-opacity="1" stop-color="rgb(100%, 85.899353%, 92.89856%)" offset="0.09375"/><stop stop-opacity="1" stop-color="rgb(99.906921%, 85.905457%, 92.935181%)" offset="0.109375"/><stop stop-opacity="1" stop-color="rgb(99.64447%, 85.922241%, 93.041992%)" offset="0.125"/><stop stop-opacity="1" stop-color="rgb(99.304199%, 85.946655%, 93.179321%)" offset="0.140625"/><stop stop-opacity="1" stop-color="rgb(98.963928%, 85.969543%, 93.31665%)" offset="0.15625"/><stop stop-opacity="1" stop-color="rgb(98.625183%, 85.992432%, 93.453979%)" offset="0.171875"/><stop stop-opacity="1" stop-color="rgb(98.284912%, 86.01532%, 93.591309%)" offset="0.1875"/><stop stop-opacity="1" stop-color="rgb(97.944641%, 86.038208%, 93.727112%)" offset="0.203125"/><stop stop-opacity="1" stop-color="rgb(97.60437%, 86.061096%, 93.864441%)" offset="0.21875"/><stop stop-opacity="1" stop-color="rgb(97.264099%, 86.08551%, 94.00177%)" offset="0.234375"/><stop stop-opacity="1" stop-color="rgb(96.925354%, 86.108398%, 94.139099%)" offset="0.25"/><stop stop-opacity="1" stop-color="rgb(96.585083%, 86.131287%, 94.276428%)" offset="0.265625"/><stop stop-opacity="1" stop-color="rgb(96.244812%, 86.154175%, 94.413757%)" offset="0.28125"/><stop stop-opacity="1" stop-color="rgb(95.904541%, 86.177063%, 94.551086%)" offset="0.296875"/><stop stop-opacity="1" stop-color="rgb(95.565796%, 86.201477%, 94.68689%)" offset="0.3125"/><stop stop-opacity="1" stop-color="rgb(95.225525%, 86.224365%, 94.824219%)" offset="0.328125"/><stop stop-opacity="1" stop-color="rgb(94.885254%, 86.247253%, 94.961548%)" offset="0.34375"/><stop stop-opacity="1" stop-color="rgb(94.544983%, 86.270142%, 95.098877%)" offset="0.359375"/><stop stop-opacity="1" stop-color="rgb(94.206238%, 86.29303%, 95.236206%)" offset="0.375"/><stop stop-opacity="1" stop-color="rgb(93.865967%, 86.317444%, 95.373535%)" offset="0.382"/><stop stop-opacity="1" stop-color="rgb(93.696594%, 86.329651%, 95.4422%)" offset="0.390625"/><stop stop-opacity="1" stop-color="rgb(93.525696%, 86.340332%, 95.510864%)" offset="0.40625"/><stop stop-opacity="1" stop-color="rgb(93.185425%, 86.36322%, 95.648193%)" offset="0.421875"/><stop stop-opacity="1" stop-color="rgb(92.84668%, 86.386108%, 95.783997%)" offset="0.4375"/><stop stop-opacity="1" stop-color="rgb(92.506409%, 86.408997%, 95.921326%)" offset="0.453125"/><stop stop-opacity="1" stop-color="rgb(92.166138%, 86.433411%, 96.058655%)" offset="0.46875"/><stop stop-opacity="1" stop-color="rgb(91.825867%, 86.456299%, 96.195984%)" offset="0.484375"/><stop stop-opacity="1" stop-color="rgb(91.485596%, 86.479187%, 96.333313%)" offset="0.5"/><stop stop-opacity="1" stop-color="rgb(91.146851%, 86.502075%, 96.470642%)" offset="0.515625"/><stop stop-opacity="1" stop-color="rgb(90.80658%, 86.524963%, 96.607971%)" offset="0.53125"/><stop stop-opacity="1" stop-color="rgb(90.466309%, 86.547852%, 96.743774%)" offset="0.546875"/><stop stop-opacity="1" stop-color="rgb(90.126038%, 86.572266%, 96.881104%)" offset="0.5625"/><stop stop-opacity="1" stop-color="rgb(89.787292%, 86.595154%, 97.018433%)" offset="0.578125"/><stop stop-opacity="1" stop-color="rgb(89.447021%, 86.618042%, 97.155762%)" offset="0.59375"/><stop stop-opacity="1" stop-color="rgb(89.10675%, 86.64093%, 97.293091%)" offset="0.609375"/><stop stop-opacity="1" stop-color="rgb(88.766479%, 86.663818%, 97.43042%)" offset="0.618"/><stop stop-opacity="1" stop-color="rgb(88.597107%, 86.676025%, 97.499084%)" offset="0.625"/><stop stop-opacity="1" stop-color="rgb(88.427734%, 86.688232%, 97.567749%)" offset="0.640625"/><stop stop-opacity="1" stop-color="rgb(88.087463%, 86.711121%, 97.705078%)" offset="0.65625"/><stop stop-opacity="1" stop-color="rgb(87.747192%, 86.734009%, 97.840881%)" offset="0.671875"/><stop stop-opacity="1" stop-color="rgb(87.406921%, 86.756897%, 97.97821%)" offset="0.6875"/><stop stop-opacity="1" stop-color="rgb(87.06665%, 86.779785%, 98.11554%)" offset="0.703125"/><stop stop-opacity="1" stop-color="rgb(86.727905%, 86.804199%, 98.252869%)" offset="0.71875"/><stop stop-opacity="1" stop-color="rgb(86.387634%, 86.827087%, 98.390198%)" offset="0.734375"/><stop stop-opacity="1" stop-color="rgb(86.047363%, 86.849976%, 98.527527%)" offset="0.75"/><stop stop-opacity="1" stop-color="rgb(85.707092%, 86.872864%, 98.664856%)" offset="0.765625"/><stop stop-opacity="1" stop-color="rgb(85.368347%, 86.895752%, 98.800659%)" offset="0.78125"/><stop stop-opacity="1" stop-color="rgb(85.028076%, 86.91864%, 98.937988%)" offset="0.796875"/><stop stop-opacity="1" stop-color="rgb(84.687805%, 86.943054%, 99.075317%)" offset="0.8125"/><stop stop-opacity="1" stop-color="rgb(84.347534%, 86.965942%, 99.212646%)" offset="0.828125"/><stop stop-opacity="1" stop-color="rgb(84.008789%, 86.988831%, 99.349976%)" offset="0.84375"/><stop stop-opacity="1" stop-color="rgb(83.668518%, 87.011719%, 99.487305%)" offset="0.859375"/><stop stop-opacity="1" stop-color="rgb(83.328247%, 87.034607%, 99.624634%)" offset="0.875"/><stop stop-opacity="1" stop-color="rgb(82.987976%, 87.059021%, 99.761963%)" offset="0.890625"/><stop stop-opacity="1" stop-color="rgb(82.647705%, 87.081909%, 99.897766%)" offset="0.90625"/><stop stop-opacity="1" stop-color="rgb(82.43866%, 87.095642%, 99.983215%)" offset="0.9375"/><stop stop-opacity="1" stop-color="rgb(82.398987%, 87.098694%, 100%)" offset="1"/></linearGradient></defs><g clip-path="url(#0db2d6cfbd)"><g clip-path="url(#5834133022)"><path fill="url(#7bbaed53d9)" d="M 37.996094 360.042969 L 37.996094 15.28125 L 337.246094 15.28125 L 337.246094 360.042969 Z M 37.996094 360.042969 " fill-rule="nonzero"/></g></g><path fill="#2626bc" d="M 321.84375 67.144531 L 282.226562 67.144531 L 282.226562 57.054688 C 282.226562 51.472656 277.71875 46.964844 272.136719 46.964844 L 103.847656 46.964844 C 98.265625 46.964844 93.757812 51.472656 93.757812 57.054688 L 93.757812 67.144531 L 54.140625 67.144531 C 48.558594 67.144531 44.050781 71.652344 44.050781 77.238281 L 44.050781 288.804688 C 44.050781 294.386719 48.558594 298.894531 54.140625 298.894531 L 93.757812 298.894531 L 93.757812 308.984375 C 93.757812 314.570312 98.265625 319.074219 103.847656 319.074219 L 272.136719 319.074219 C 277.71875 319.074219 282.226562 314.570312 282.226562 308.984375 L 282.226562 298.894531 L 321.84375 298.894531 C 327.425781 298.894531 331.933594 294.386719 331.933594 288.804688 L 331.933594 77.238281 C 331.933594 71.652344 327.425781 67.144531 321.84375 67.144531 Z M 321.84375 67.144531 " fill-opacity="0.1" fill-rule="nonzero"/><path fill="#ffffff" d="M 321.84375 81.273438 L 258.011719 81.273438 L 258.011719 313.023438 L 321.84375 313.023438 C 327.425781 313.023438 331.933594 308.515625 331.933594 302.929688 L 331.933594 91.363281 C 331.933594 85.78125 327.425781 81.273438 321.84375 81.273438 Z M 321.84375 81.273438 " fill-opacity="1" fill-rule="nonzero"/><path fill="#ffa8cf" d="M 306.441406 234.851562 L 258.011719 234.851562 L 258.011719 313.023438 L 306.441406 313.023438 C 307.585938 313.023438 308.457031 312.148438 308.457031 311.003906 L 308.457031 236.871094 C 308.457031 235.792969 307.585938 234.851562 306.441406 234.851562 Z M 306.441406 234.851562 " fill-opacity="1" fill-rule="nonzero"/><path fill="#97ffd2" d="M 306.441406 139.058594 L 258.011719 139.058594 L 258.011719 217.226562 L 306.441406 217.226562 C 307.585938 217.226562 308.457031 216.351562 308.457031 215.210938 L 308.457031 141.078125 C 308.457031 139.933594 307.585938 139.058594 306.441406 139.058594 Z M 306.441406 139.058594 " fill-opacity="1" fill-rule="nonzero"/><path fill="#02ffb3" d="M 321.84375 81.273438 L 258.011719 81.273438 L 258.011719 113.699219 L 331.933594 113.699219 L 331.933594 91.363281 C 331.933594 85.78125 327.425781 81.273438 321.84375 81.273438 Z M 321.84375 81.273438 " fill-opacity="1" fill-rule="nonzero"/><path fill="#ffffff" d="M 115.953125 81.273438 L 54.140625 81.273438 C 48.558594 81.273438 44.050781 85.78125 44.050781 91.363281 L 44.050781 302.929688 C 44.050781 308.515625 48.558594 313.023438 54.140625 313.023438 L 115.953125 313.023438 Z M 115.953125 81.273438 " fill-opacity="1" fill-rule="nonzero"/><path fill="#ffa8cf" d="M 115.953125 284.5 L 115.953125 195.632812 L 64.160156 195.632812 C 63.019531 195.632812 62.144531 196.507812 62.144531 197.652344 L 62.144531 282.480469 C 62.144531 283.625 63.019531 284.5 64.160156 284.5 Z M 115.953125 284.5 " fill-opacity="1" fill-rule="nonzero"/><path fill="#9fb0fe" d="M 115.953125 178.210938 L 115.953125 149.957031 L 64.160156 149.957031 C 63.019531 149.957031 62.144531 150.832031 62.144531 151.976562 L 62.144531 176.191406 C 62.144531 177.335938 63.019531 178.210938 64.160156 178.210938 Z M 115.953125 178.210938 " fill-opacity="1" fill-rule="nonzero"/><path fill="#ff7eb8" d="M 115.953125 81.273438 L 54.140625 81.273438 C 48.558594 81.273438 44.050781 85.78125 44.050781 91.363281 L 44.050781 113.699219 L 115.953125 113.699219 Z M 115.953125 81.273438 " fill-opacity="1" fill-rule="nonzero"/><path fill="#ffffff" d="M 282.226562 71.183594 L 282.226562 323.113281 C 282.226562 328.695312 277.71875 333.203125 272.136719 333.203125 L 103.847656 333.203125 C 98.265625 333.203125 93.757812 328.695312 93.757812 323.113281 L 93.757812 71.183594 C 93.757812 65.597656 98.265625 61.09375 103.847656 61.09375 L 272.136719 61.09375 C 277.71875 61.09375 282.226562 65.597656 282.226562 71.183594 Z M 282.226562 71.183594 " fill-opacity="1" fill-rule="nonzero"/><path fill="#ffa8cf" d="M 93.757812 113.765625 L 282.226562 113.765625 L 282.226562 204.648438 L 93.757812 204.648438 Z M 93.757812 113.765625 " fill-opacity="1" fill-rule="nonzero"/><path fill="#ff7eb8" d="M 282.226562 113.765625 L 282.226562 184.667969 C 274.425781 187.898438 265.882812 189.714844 256.9375 189.714844 C 220.414062 189.714844 190.816406 160.113281 190.816406 123.585938 C 190.816406 120.289062 191.085938 116.992188 191.558594 113.765625 Z M 282.226562 113.765625 " fill-opacity="1" fill-rule="nonzero"/><path fill="#6583fe" d="M 282.226562 93.515625 L 282.226562 71.183594 C 282.226562 65.597656 277.71875 61.09375 272.136719 61.09375 L 103.847656 61.09375 C 98.265625 61.09375 93.757812 65.597656 93.757812 71.183594 L 93.757812 93.515625 Z M 282.226562 93.515625 " fill-opacity="1" fill-rule="nonzero"/><path fill="#2626bc" d="M 321.84375 77.910156 L 285.589844 77.910156 L 285.589844 71.183594 C 285.589844 63.78125 279.535156 57.726562 272.136719 57.726562 L 103.847656 57.726562 C 96.449219 57.726562 90.394531 63.78125 90.394531 71.183594 L 90.394531 77.910156 L 54.140625 77.910156 C 46.742188 77.910156 40.6875 83.964844 40.6875 91.363281 L 40.6875 302.929688 C 40.6875 310.332031 46.742188 316.386719 54.140625 316.386719 L 75.261719 316.386719 C 77.144531 316.386719 78.625 314.90625 78.625 313.023438 C 78.625 311.136719 77.144531 309.65625 75.261719 309.65625 L 54.140625 309.65625 C 50.441406 309.65625 47.414062 306.632812 47.414062 302.929688 L 47.414062 117.0625 L 90.394531 117.0625 L 90.394531 323.113281 C 90.394531 330.511719 96.449219 336.566406 103.847656 336.566406 L 272.136719 336.566406 C 279.535156 336.566406 285.589844 330.511719 285.589844 323.113281 L 285.589844 316.386719 L 321.84375 316.386719 C 329.242188 316.386719 335.296875 310.332031 335.296875 302.929688 L 335.296875 91.363281 C 335.296875 83.964844 329.242188 77.910156 321.84375 77.910156 Z M 321.84375 84.636719 C 325.542969 84.636719 328.570312 87.664062 328.570312 91.363281 L 328.570312 110.335938 L 285.589844 110.335938 L 285.589844 84.636719 Z M 103.847656 64.457031 L 272.136719 64.457031 C 275.835938 64.457031 278.863281 67.484375 278.863281 71.183594 L 278.863281 90.152344 L 97.121094 90.152344 L 97.121094 71.183594 C 97.121094 67.484375 100.148438 64.457031 103.847656 64.457031 Z M 47.414062 110.335938 L 47.414062 91.363281 C 47.414062 87.664062 50.441406 84.636719 54.140625 84.636719 L 90.394531 84.636719 L 90.394531 110.335938 Z M 321.84375 309.65625 L 285.589844 309.65625 L 285.589844 132.265625 C 285.589844 130.382812 284.109375 128.902344 282.226562 128.902344 C 280.34375 128.902344 278.863281 130.382812 278.863281 132.265625 L 278.863281 323.179688 C 278.863281 326.878906 275.835938 329.90625 272.136719 329.90625 L 103.847656 329.90625 C 100.148438 329.90625 97.121094 326.878906 97.121094 323.179688 L 97.121094 96.878906 L 278.863281 96.878906 L 278.863281 113.699219 C 278.863281 115.582031 280.34375 117.0625 282.226562 117.0625 L 328.570312 117.0625 L 328.570312 302.929688 C 328.570312 306.632812 325.542969 309.65625 321.84375 309.65625 Z M 321.84375 309.65625 " fill-opacity="1" fill-rule="nonzero"/><path fill="#2626bc" d="M 69.675781 94.121094 C 67.792969 94.121094 66.3125 95.601562 66.3125 97.484375 L 66.3125 97.550781 C 66.3125 99.4375 67.792969 100.917969 69.675781 100.917969 C 71.5625 100.917969 73.039062 99.4375 73.039062 97.550781 L 73.039062 97.484375 C 73.039062 95.601562 71.5625 94.121094 69.675781 94.121094 Z M 69.675781 94.121094 " fill-opacity="1" fill-rule="nonzero"/><path fill="#2626bc" d="M 82.660156 94.121094 C 80.777344 94.121094 79.296875 95.601562 79.296875 97.484375 L 79.296875 97.550781 C 79.296875 99.4375 80.777344 100.917969 82.660156 100.917969 C 84.542969 100.917969 86.023438 99.4375 86.023438 97.550781 L 86.023438 97.484375 C 86.023438 95.601562 84.542969 94.121094 82.660156 94.121094 Z M 82.660156 94.121094 " fill-opacity="1" fill-rule="nonzero"/><path fill="#2626bc" d="M 119.382812 80.734375 C 121.269531 80.734375 122.746094 79.253906 122.746094 77.371094 L 122.746094 77.304688 C 122.746094 75.421875 121.269531 73.941406 119.382812 73.941406 C 117.5 73.941406 116.019531 75.421875 116.019531 77.304688 L 116.019531 77.371094 C 116.019531 79.1875 117.5 80.734375 119.382812 80.734375 Z M 119.382812 80.734375 " fill-opacity="1" fill-rule="nonzero"/><path fill="#2626bc" d="M 132.367188 80.734375 C 134.25 80.734375 135.730469 79.253906 135.730469 77.371094 L 135.730469 77.304688 C 135.730469 75.421875 134.25 73.941406 132.367188 73.941406 C 130.484375 73.941406 129.003906 75.421875 129.003906 77.304688 L 129.003906 77.371094 C 129.003906 79.1875 130.550781 80.734375 132.367188 80.734375 Z M 132.367188 80.734375 " fill-opacity="1" fill-rule="nonzero"/><path fill="#2626bc" d="M 145.414062 80.734375 C 147.296875 80.734375 148.777344 79.253906 148.777344 77.371094 L 148.777344 77.304688 C 148.777344 75.421875 147.296875 73.941406 145.414062 73.941406 C 143.53125 73.941406 142.050781 75.421875 142.050781 77.304688 L 142.050781 77.371094 C 142.050781 79.1875 143.53125 80.734375 145.414062 80.734375 Z M 145.414062 80.734375 " fill-opacity="1" fill-rule="nonzero"/><path fill="#2626bc" d="M 259.289062 149.015625 C 257.945312 147.667969 255.859375 147.667969 254.515625 149.015625 C 253.167969 150.359375 253.167969 152.445312 254.515625 153.792969 L 256.0625 155.339844 L 254.515625 156.886719 C 253.167969 158.230469 253.167969 160.316406 254.515625 161.660156 C 255.1875 162.335938 256.0625 162.671875 256.867188 162.671875 C 257.675781 162.671875 258.617188 162.335938 259.222656 161.660156 L 263.125 157.761719 C 264.46875 156.414062 264.46875 154.328125 263.125 152.984375 Z M 259.289062 149.015625 " fill-opacity="1" fill-rule="nonzero"/><path fill="#2626bc" d="M 121.46875 149.015625 C 120.125 147.667969 118.039062 147.667969 116.695312 149.015625 L 112.792969 152.917969 C 111.449219 154.261719 111.449219 156.347656 112.792969 157.691406 L 116.695312 161.59375 C 117.367188 162.265625 118.242188 162.605469 119.046875 162.605469 C 119.921875 162.605469 120.796875 162.265625 121.402344 161.59375 C 122.746094 160.25 122.746094 158.164062 121.402344 156.820312 L 119.855469 155.269531 L 121.402344 153.722656 C 122.746094 152.445312 122.746094 150.359375 121.46875 149.015625 Z M 121.46875 149.015625 " fill-opacity="1" fill-rule="nonzero"/><path fill="#4369fd" d="M 180.390625 192.335938 C 180.390625 192.835938 180.296875 193.316406 180.105469 193.777344 C 179.914062 194.242188 179.640625 194.648438 179.289062 195 C 178.933594 195.355469 178.527344 195.625 178.066406 195.816406 C 177.605469 196.007812 177.125 196.105469 176.625 196.105469 C 176.125 196.105469 175.644531 196.007812 175.183594 195.816406 C 174.722656 195.625 174.3125 195.355469 173.960938 195 C 173.609375 194.648438 173.335938 194.242188 173.144531 193.777344 C 172.953125 193.316406 172.859375 192.835938 172.859375 192.335938 C 172.859375 191.839844 172.953125 191.355469 173.144531 190.894531 C 173.335938 190.433594 173.609375 190.027344 173.960938 189.671875 C 174.3125 189.320312 174.722656 189.046875 175.183594 188.855469 C 175.644531 188.664062 176.125 188.570312 176.625 188.570312 C 177.125 188.570312 177.605469 188.664062 178.066406 188.855469 C 178.527344 189.046875 178.933594 189.320312 179.289062 189.671875 C 179.640625 190.027344 179.914062 190.433594 180.105469 190.894531 C 180.296875 191.355469 180.390625 191.839844 180.390625 192.335938 Z M 180.390625 192.335938 " fill-opacity="1" fill-rule="nonzero"/><path fill="#ff5ba8" d="M 191.757812 192.335938 C 191.757812 192.835938 191.664062 193.316406 191.472656 193.777344 C 191.28125 194.242188 191.007812 194.648438 190.65625 195 C 190.300781 195.355469 189.894531 195.625 189.433594 195.816406 C 188.972656 196.007812 188.492188 196.105469 187.992188 196.105469 C 187.492188 196.105469 187.011719 196.007812 186.550781 195.816406 C 186.089844 195.625 185.679688 195.355469 185.328125 195 C 184.976562 194.648438 184.703125 194.242188 184.511719 193.777344 C 184.320312 193.316406 184.226562 192.835938 184.226562 192.335938 C 184.226562 191.839844 184.320312 191.355469 184.511719 190.894531 C 184.703125 190.433594 184.976562 190.027344 185.328125 189.671875 C 185.679688 189.320312 186.089844 189.046875 186.550781 188.855469 C 187.011719 188.664062 187.492188 188.570312 187.992188 188.570312 C 188.492188 188.570312 188.972656 188.664062 189.433594 188.855469 C 189.894531 189.046875 190.300781 189.320312 190.65625 189.671875 C 191.007812 190.027344 191.28125 190.433594 191.472656 190.894531 C 191.664062 191.355469 191.757812 191.839844 191.757812 192.335938 Z M 191.757812 192.335938 " fill-opacity="1" fill-rule="nonzero"/><path fill="#ff5ba8" d="M 203.125 192.335938 C 203.125 192.835938 203.03125 193.316406 202.839844 193.777344 C 202.648438 194.242188 202.375 194.648438 202.023438 195 C 201.667969 195.355469 201.261719 195.625 200.800781 195.816406 C 200.339844 196.007812 199.859375 196.105469 199.359375 196.105469 C 198.859375 196.105469 198.378906 196.007812 197.917969 195.816406 C 197.457031 195.625 197.050781 195.355469 196.695312 195 C 196.34375 194.648438 196.070312 194.242188 195.878906 193.777344 C 195.6875 193.316406 195.59375 192.835938 195.59375 192.335938 C 195.59375 191.839844 195.6875 191.355469 195.878906 190.894531 C 196.070312 190.433594 196.34375 190.027344 196.695312 189.671875 C 197.050781 189.320312 197.457031 189.046875 197.917969 188.855469 C 198.378906 188.664062 198.859375 188.570312 199.359375 188.570312 C 199.859375 188.570312 200.339844 188.664062 200.800781 188.855469 C 201.261719 189.046875 201.667969 189.320312 202.023438 189.671875 C 202.375 190.027344 202.648438 190.433594 202.839844 190.894531 C 203.03125 191.355469 203.125 191.839844 203.125 192.335938 Z M 203.125 192.335938 " fill-opacity="1" fill-rule="nonzero"/><path fill="#6583fe" d="M 149.921875 257.121094 L 107.746094 257.121094 C 106.605469 257.121094 105.730469 256.246094 105.730469 255.101562 L 105.730469 225.03125 C 105.730469 223.886719 106.605469 223.011719 107.746094 223.011719 L 149.921875 223.011719 C 151.066406 223.011719 151.9375 223.886719 151.9375 225.03125 L 151.9375 255.101562 C 151.9375 256.246094 151.066406 257.121094 149.921875 257.121094 Z M 149.921875 257.121094 " fill-opacity="1" fill-rule="nonzero"/><path fill="#9fb0fe" d="M 142.925781 257.121094 L 126.78125 257.121094 L 126.78125 237.34375 C 126.78125 236.199219 127.65625 235.324219 128.800781 235.324219 L 140.90625 235.324219 C 142.050781 235.324219 142.925781 236.199219 142.925781 237.34375 Z M 142.925781 257.121094 " fill-opacity="1" fill-rule="nonzero"/><path fill="#ff7eb8" d="M 140.503906 274.339844 L 117.097656 274.339844 C 115.214844 274.339844 113.734375 272.859375 113.734375 270.976562 C 113.734375 269.09375 115.214844 267.613281 117.097656 267.613281 L 140.503906 267.613281 C 142.386719 267.613281 143.867188 269.09375 143.867188 270.976562 C 143.867188 272.859375 142.386719 274.339844 140.503906 274.339844 Z M 140.503906 274.339844 " fill-opacity="1" fill-rule="nonzero"/><path fill="#b7c5ff" d="M 150.257812 298.492188 L 109.09375 298.492188 C 107.210938 298.492188 105.730469 297.011719 105.730469 295.128906 C 105.730469 293.242188 107.210938 291.765625 109.09375 291.765625 L 150.257812 291.765625 C 152.140625 291.765625 153.621094 293.242188 153.621094 295.128906 C 153.621094 297.011719 152.140625 298.492188 150.257812 298.492188 Z M 150.257812 298.492188 " fill-opacity="1" fill-rule="nonzero"/><path fill="#b7c5ff" d="M 150.257812 311.675781 L 109.09375 311.675781 C 107.210938 311.675781 105.730469 310.195312 105.730469 308.3125 C 105.730469 306.429688 107.210938 304.949219 109.09375 304.949219 L 150.257812 304.949219 C 152.140625 304.949219 153.621094 306.429688 153.621094 308.3125 C 153.621094 310.195312 152.140625 311.675781 150.257812 311.675781 Z M 150.257812 311.675781 " fill-opacity="1" fill-rule="nonzero"/><path fill="#6583fe" d="M 208.238281 257.121094 L 166.0625 257.121094 C 164.921875 257.121094 164.046875 256.246094 164.046875 255.101562 L 164.046875 225.03125 C 164.046875 223.886719 164.921875 223.011719 166.0625 223.011719 L 208.238281 223.011719 C 209.382812 223.011719 210.253906 223.886719 210.253906 225.03125 L 210.253906 255.101562 C 210.253906 256.246094 209.382812 257.121094 208.238281 257.121094 Z M 208.238281 257.121094 " fill-opacity="1" fill-rule="nonzero"/><path fill="#9fb0fe" d="M 201.242188 257.121094 L 185.097656 257.121094 L 185.097656 237.34375 C 185.097656 236.199219 185.972656 235.324219 187.117188 235.324219 L 199.226562 235.324219 C 200.367188 235.324219 201.242188 236.199219 201.242188 237.34375 Z M 201.242188 257.121094 " fill-opacity="1" fill-rule="nonzero"/><path fill="#ff7eb8" d="M 198.820312 274.339844 L 175.414062 274.339844 C 173.53125 274.339844 172.050781 272.859375 172.050781 270.976562 C 172.050781 269.09375 173.53125 267.613281 175.414062 267.613281 L 198.820312 267.613281 C 200.703125 267.613281 202.183594 269.09375 202.183594 270.976562 C 202.183594 272.859375 200.703125 274.339844 198.820312 274.339844 Z M 198.820312 274.339844 " fill-opacity="1" fill-rule="nonzero"/><path fill="#b7c5ff" d="M 208.574219 298.492188 L 167.410156 298.492188 C 165.527344 298.492188 164.046875 297.011719 164.046875 295.128906 C 164.046875 293.242188 165.527344 291.765625 167.410156 291.765625 L 208.574219 291.765625 C 210.457031 291.765625 211.9375 293.242188 211.9375 295.128906 C 211.9375 297.011719 210.457031 298.492188 208.574219 298.492188 Z M 208.574219 298.492188 " fill-opacity="1" fill-rule="nonzero"/><path fill="#b7c5ff" d="M 208.574219 311.675781 L 167.410156 311.675781 C 165.527344 311.675781 164.046875 310.195312 164.046875 308.3125 C 164.046875 306.429688 165.527344 304.949219 167.410156 304.949219 L 208.574219 304.949219 C 210.457031 304.949219 211.9375 306.429688 211.9375 308.3125 C 211.9375 310.195312 210.457031 311.675781 208.574219 311.675781 Z M 208.574219 311.675781 " fill-opacity="1" fill-rule="nonzero"/><path fill="#6583fe" d="M 266.554688 257.121094 L 224.378906 257.121094 C 223.238281 257.121094 222.363281 256.246094 222.363281 255.101562 L 222.363281 225.03125 C 222.363281 223.886719 223.238281 223.011719 224.378906 223.011719 L 266.554688 223.011719 C 267.699219 223.011719 268.570312 223.886719 268.570312 225.03125 L 268.570312 255.101562 C 268.570312 256.246094 267.699219 257.121094 266.554688 257.121094 Z M 266.554688 257.121094 " fill-opacity="1" fill-rule="nonzero"/><path fill="#9fb0fe" d="M 259.558594 257.121094 L 243.414062 257.121094 L 243.414062 237.34375 C 243.414062 236.199219 244.289062 235.324219 245.433594 235.324219 L 257.542969 235.324219 C 258.683594 235.324219 259.558594 236.199219 259.558594 237.34375 Z M 259.558594 257.121094 " fill-opacity="1" fill-rule="nonzero"/><path fill="#ff7eb8" d="M 257.136719 274.339844 L 233.730469 274.339844 C 231.847656 274.339844 230.367188 272.859375 230.367188 270.976562 C 230.367188 269.09375 231.847656 267.613281 233.730469 267.613281 L 257.136719 267.613281 C 259.019531 267.613281 260.5 269.09375 260.5 270.976562 C 260.5 272.859375 259.019531 274.339844 257.136719 274.339844 Z M 257.136719 274.339844 " fill-opacity="1" fill-rule="nonzero"/><path fill="#b7c5ff" d="M 266.890625 298.492188 L 225.726562 298.492188 C 223.84375 298.492188 222.363281 297.011719 222.363281 295.128906 C 222.363281 293.242188 223.84375 291.765625 225.726562 291.765625 L 266.890625 291.765625 C 268.773438 291.765625 270.253906 293.242188 270.253906 295.128906 C 270.253906 297.011719 268.773438 298.492188 266.890625 298.492188 Z M 266.890625 298.492188 " fill-opacity="1" fill-rule="nonzero"/><path fill="#b7c5ff" d="M 266.890625 311.675781 L 225.726562 311.675781 C 223.84375 311.675781 222.363281 310.195312 222.363281 308.3125 C 222.363281 306.429688 223.84375 304.949219 225.726562 304.949219 L 266.890625 304.949219 C 268.773438 304.949219 270.253906 306.429688 270.253906 308.3125 C 270.253906 310.195312 268.773438 311.675781 266.890625 311.675781 Z M 266.890625 311.675781 " fill-opacity="1" fill-rule="nonzero"/><path fill="#ff7eb8" d="M 300.253906 68.492188 C 299.378906 68.492188 298.503906 68.15625 297.898438 67.484375 L 290.5 60.082031 C 289.894531 59.476562 289.492188 58.601562 289.492188 57.726562 C 289.492188 56.855469 289.828125 55.980469 290.5 55.375 L 297.898438 47.972656 C 299.242188 46.628906 301.328125 46.628906 302.675781 47.972656 L 310.074219 55.375 C 310.679688 55.980469 311.082031 56.855469 311.082031 57.726562 C 311.082031 58.601562 310.746094 59.476562 310.074219 60.082031 L 302.675781 67.484375 C 302 68.15625 301.128906 68.492188 300.253906 68.492188 Z M 297.5625 57.726562 L 300.183594 60.351562 L 302.808594 57.726562 L 300.183594 55.105469 Z M 297.5625 57.726562 " fill-opacity="1" fill-rule="nonzero"/><path fill="#6583fe" d="M 73.445312 346.859375 C 72.570312 346.859375 71.695312 346.523438 71.089844 345.851562 L 63.691406 338.449219 C 63.085938 337.84375 62.683594 336.96875 62.683594 336.09375 C 62.683594 335.222656 63.019531 334.347656 63.691406 333.742188 L 71.089844 326.339844 C 72.433594 324.996094 74.519531 324.996094 75.867188 326.339844 L 83.265625 333.742188 C 83.871094 334.347656 84.273438 335.222656 84.273438 336.09375 C 84.273438 336.96875 83.9375 337.84375 83.265625 338.449219 L 75.867188 345.851562 C 75.191406 346.523438 74.320312 346.859375 73.445312 346.859375 Z M 70.753906 336.09375 L 73.375 338.71875 L 76 336.09375 L 73.375 333.472656 Z M 70.753906 336.09375 " fill-opacity="1" fill-rule="nonzero"/><path fill="#6583fe" d="M 268.570312 49.519531 C 267.699219 49.519531 266.824219 49.183594 266.21875 48.511719 L 258.820312 41.113281 C 258.214844 40.507812 257.808594 39.632812 257.808594 38.757812 C 257.808594 37.882812 258.144531 37.007812 258.820312 36.402344 L 266.21875 29.003906 C 267.5625 27.65625 269.648438 27.65625 270.992188 29.003906 L 278.390625 36.402344 C 279.738281 37.75 279.738281 39.835938 278.390625 41.179688 L 270.992188 48.578125 C 270.320312 49.253906 269.445312 49.519531 268.570312 49.519531 Z M 265.949219 38.757812 L 268.570312 41.382812 L 271.195312 38.757812 L 268.570312 36.132812 Z M 265.949219 38.757812 " fill-opacity="1" fill-rule="nonzero"/><path fill="#97ffd2" d="M 313.101562 347.53125 C 311.214844 347.53125 309.738281 346.050781 309.738281 344.167969 C 309.738281 341.949219 307.921875 340.132812 305.699219 340.132812 C 303.816406 340.132812 302.335938 338.652344 302.335938 336.769531 C 302.335938 334.882812 303.816406 333.40625 305.699219 333.40625 C 307.921875 333.40625 309.738281 331.589844 309.738281 329.367188 C 309.738281 327.484375 311.214844 326.003906 313.101562 326.003906 C 314.984375 326.003906 316.460938 327.484375 316.460938 329.367188 C 316.460938 331.589844 318.277344 333.40625 320.5 333.40625 C 322.382812 333.40625 323.863281 334.882812 323.863281 336.769531 C 323.863281 338.652344 322.382812 340.132812 320.5 340.132812 C 318.277344 340.132812 316.460938 341.949219 316.460938 344.167969 C 316.460938 346.050781 314.984375 347.53125 313.101562 347.53125 Z M 313.101562 347.53125 " fill-opacity="1" fill-rule="nonzero"/></svg>