<svg xmlns="http://www.w3.org/2000/svg" xmlns:xlink="http://www.w3.org/1999/xlink" width="500" zoomAndPan="magnify" viewBox="0 0 375 374.999991" height="500" preserveAspectRatio="xMidYMid meet" version="1.0"><defs><clipPath id="ff886a5c24"><path d="M 14.085938 22 L 282 22 L 282 295 L 14.085938 295 Z M 14.085938 22 " clip-rule="nonzero"/></clipPath><clipPath id="4535566161"><path d="M 14.085938 15.964844 L 282 15.964844 L 282 207 L 14.085938 207 Z M 14.085938 15.964844 " clip-rule="nonzero"/></clipPath><clipPath id="abc979b496"><path d="M 31 15.964844 L 265 15.964844 L 265 180 L 31 180 Z M 31 15.964844 " clip-rule="nonzero"/></clipPath><clipPath id="caeeb06e7c"><path d="M 82 55 L 361.152344 55 L 361.152344 349 L 82 349 Z M 82 55 " clip-rule="nonzero"/></clipPath><clipPath id="d785aa905e"><path d="M 111 164 L 347 164 L 347 358.714844 L 111 358.714844 Z M 111 164 " clip-rule="nonzero"/></clipPath><clipPath id="cf1b7c3970"><path d="M 14.085938 15.964844 L 361.335938 15.964844 L 361.335938 358.714844 L 14.085938 358.714844 Z M 14.085938 15.964844 " clip-rule="nonzero"/></clipPath><clipPath id="882a713efd"><path d="M 14.085938 154 L 102 154 L 102 184 L 14.085938 184 Z M 14.085938 154 " clip-rule="nonzero"/></clipPath><clipPath id="10ae96e016"><path d="M 188 16.558594 L 361.152344 16.558594 L 361.152344 339 L 188 339 Z M 188 16.558594 " clip-rule="nonzero"/></clipPath><clipPath id="839328a62b"><path d="M 188 16.558594 L 361.152344 16.558594 L 361.152344 258 L 188 258 Z M 188 16.558594 " clip-rule="nonzero"/></clipPath><clipPath id="8ddcc7b9b5"><path d="M 191 22 L 361.152344 22 L 361.152344 284 L 191 284 Z M 191 22 " clip-rule="nonzero"/></clipPath><clipPath id="c78754195c"><path d="M 202 40 L 361.152344 40 L 361.152344 298 L 202 298 Z M 202 40 " clip-rule="nonzero"/></clipPath><clipPath id="532dd8fbf9"><path d="M 217 70 L 361.152344 70 L 361.152344 313 L 217 313 Z M 217 70 " clip-rule="nonzero"/></clipPath><clipPath id="433a1f9674"><path d="M 187 73 L 361.152344 73 L 361.152344 320 L 187 320 Z M 187 73 " clip-rule="nonzero"/></clipPath></defs><g clip-path="url(#ff886a5c24)"><path stroke-linecap="butt" transform="matrix(0.364376, 0, 0, -0.363746, 14.085086, 358.480786)" fill="none" stroke-linejoin="miter" d="M 450.001494 549.996832 C 450.001494 500.307653 409.692822 460.004327 360.003807 460.004327 C 310.314792 460.004327 269.995399 500.307653 269.995399 549.996832 C 269.995399 599.686011 310.314792 640.000076 360.003807 640.000076 C 409.692822 640.000076 450.001494 599.686011 450.001494 549.996832 Z M 450.001494 549.996832 " stroke="#4d4d4d" stroke-width="20" stroke-opacity="1" stroke-miterlimit="10"/></g><path stroke-linecap="butt" transform="matrix(0.364376, 0, 0, -0.363746, 14.085086, 358.480786)" fill="none" stroke-linejoin="miter" d="M 329.997431 564.999163 L 360.003807 535.005241 L 404.99729 580.001493 " stroke="#4d4d4d" stroke-width="20" stroke-opacity="1" stroke-miterlimit="10"/><g clip-path="url(#4535566161)"><path stroke-linecap="butt" transform="matrix(0.364376, 0, 0, -0.363746, 14.085086, 358.480786)" fill="none" stroke-linejoin="miter" d="M 450.001494 790.001903 C 450.001494 740.312724 409.692822 699.998659 360.003807 699.998659 C 310.314792 699.998659 269.995399 740.312724 269.995399 790.001903 C 269.995399 839.691082 310.314792 880.005147 360.003807 880.005147 C 409.692822 880.005147 450.001494 839.691082 450.001494 790.001903 Z M 450.001494 790.001903 " stroke="#4d4d4d" stroke-width="20" stroke-opacity="1" stroke-miterlimit="10"/></g><g clip-path="url(#abc979b496)"><path stroke-linecap="butt" transform="matrix(0.364376, 0, 0, -0.363746, 14.085086, 358.480786)" fill="none" stroke-linejoin="miter" d="M 329.997431 805.004234 L 360.003807 774.999573 L 404.99729 819.995825 " stroke="#4d4d4d" stroke-width="20" stroke-opacity="1" stroke-miterlimit="10"/></g><path stroke-linecap="butt" transform="matrix(0.364376, 0, 0, -0.363746, 14.085086, 358.480786)" fill="none" stroke-linejoin="miter" d="M 500.001401 799.999877 L 579.996963 799.999877 " stroke="#4d4d4d" stroke-width="20" stroke-opacity="1" stroke-miterlimit="10"/><path stroke-linecap="butt" transform="matrix(0.364376, 0, 0, -0.363746, 14.085086, 358.480786)" fill="none" stroke-linejoin="miter" d="M 489.999275 740.001294 L 710.003151 740.001294 " stroke="#4d4d4d" stroke-width="20" stroke-opacity="1" stroke-miterlimit="10"/><path stroke-linecap="butt" transform="matrix(0.364376, 0, 0, -0.363746, 14.085086, 358.480786)" fill="none" stroke-linejoin="miter" d="M 489.999275 680.002711 L 710.003151 680.002711 " stroke="#4d4d4d" stroke-width="20" stroke-opacity="1" stroke-miterlimit="10"/><path stroke-linecap="butt" transform="matrix(0.364376, 0, 0, -0.363746, 14.085086, 358.480786)" fill="none" stroke-linejoin="miter" d="M 489.999275 620.004128 L 710.003151 620.004128 " stroke="#4d4d4d" stroke-width="20" stroke-opacity="1" stroke-miterlimit="10"/><path stroke-linecap="butt" transform="matrix(0.364376, 0, 0, -0.363746, 14.085086, 358.480786)" fill="none" stroke-linejoin="miter" d="M 279.997525 399.995005 L 429.997244 399.995005 " stroke="#4d4d4d" stroke-width="20" stroke-opacity="1" stroke-miterlimit="10"/><path stroke-linecap="butt" transform="matrix(0.364376, 0, 0, -0.363746, 14.085086, 358.480786)" fill="none" stroke-linejoin="miter" d="M 279.997525 339.996422 L 439.999369 339.996422 " stroke="#4d4d4d" stroke-width="20" stroke-opacity="1" stroke-miterlimit="10"/><path stroke-linecap="butt" transform="matrix(0.364376, 0, 0, -0.363746, 14.085086, 358.480786)" fill="none" stroke-linejoin="miter" d="M 279.997525 279.997839 L 519.994931 279.997839 " stroke="#4d4d4d" stroke-width="20" stroke-opacity="1" stroke-miterlimit="10"/><g clip-path="url(#caeeb06e7c)"><path stroke-linecap="butt" transform="matrix(0.364376, 0, 0, -0.363746, 14.085086, 358.480817)" fill="none" stroke-linejoin="miter" d="M 710.003208 429.999718 C 710.003208 363.708108 656.294041 310.002561 589.999135 310.002561 C 523.714948 310.002561 469.995062 363.708108 469.995062 429.999718 C 469.995062 496.291328 523.714948 549.996874 589.999135 549.996874 C 656.294041 549.996874 710.003208 496.291328 710.003208 429.999718 Z M 710.003208 429.999718 " stroke="#4d4d4d" stroke-width="20" stroke-opacity="1" stroke-miterlimit="10"/></g><path stroke-linecap="butt" transform="matrix(0.364376, 0, 0, -0.363746, 14.085086, 358.480786)" fill="none" stroke-linejoin="miter" d="M 589.999088 310.0025 L 589.999088 250.003917 " stroke="#4d4d4d" stroke-width="20" stroke-opacity="1" stroke-miterlimit="10"/><g clip-path="url(#d785aa905e)"><path stroke-linecap="butt" transform="matrix(0.364376, 0, 0, -0.363746, 14.085086, 358.480786)" fill="none" stroke-linejoin="miter" d="M 589.999088 9.998846 C 567.893641 9.998846 550.001307 30.155879 550.001307 54.995099 L 550.001307 204.996926 C 550.001307 229.846885 567.893641 250.003917 589.999088 250.003917 C 612.104535 250.003917 629.996869 229.846885 629.996869 204.996926 L 629.996869 54.995099 C 629.996869 30.155879 612.104535 9.998846 589.999088 9.998846 Z M 589.999088 9.998846 " stroke="#4d4d4d" stroke-width="20" stroke-opacity="1" stroke-miterlimit="10"/></g><path stroke-linecap="butt" transform="matrix(0.364376, 0, 0, -0.363746, 14.085086, 358.480786)" fill="none" stroke-linejoin="miter" d="M 589.924045 200.003308 L 589.924045 179.996621 " stroke="#4d4d4d" stroke-width="20" stroke-opacity="1" stroke-miterlimit="10"/><path stroke-linecap="butt" transform="matrix(0.364376, 0, 0, -0.363746, 14.085086, 358.480786)" fill="none" stroke-linejoin="miter" d="M 589.924045 140.004725 L 589.924045 119.998038 " stroke="#4d4d4d" stroke-width="20" stroke-opacity="1" stroke-miterlimit="10"/><path stroke-linecap="butt" transform="matrix(0.364376, 0, 0, -0.363746, 14.085086, 358.480786)" fill="none" stroke-linejoin="miter" d="M 589.924045 79.995403 L 589.924045 59.999455 " stroke="#4d4d4d" stroke-width="20" stroke-opacity="1" stroke-miterlimit="10"/><path stroke-linecap="butt" transform="matrix(0.364376, 0, 0, -0.363746, 14.085086, 358.480786)" fill="none" stroke-linejoin="miter" d="M 519.994931 439.99764 C 519.994931 473.127339 546.870953 499.996223 579.996963 499.996223 " stroke="#4d4d4d" stroke-width="20" stroke-opacity="1" stroke-miterlimit="10"/><g clip-path="url(#cf1b7c3970)"><path stroke-linecap="butt" transform="matrix(0.364376, 0, 0, -0.363746, 14.085086, 358.480786)" fill="none" stroke-linejoin="miter" d="M 679.996775 210.001282 L 760.003058 210.001282 L 760.003058 799.999877 L 619.994744 929.995017 L 229.997618 929.995017 L 229.997618 210.001282 L 500.001401 210.001282 " stroke="#4d4d4d" stroke-width="20" stroke-opacity="1" stroke-miterlimit="10"/></g><path stroke-linecap="round" transform="matrix(0.364376, 0, 0, -0.363746, 14.085086, 358.480786)" fill="none" stroke-linejoin="round" d="M 619.994744 799.999877 L 760.003058 799.999877 L 619.994744 929.995017 Z M 619.994744 799.999877 " stroke="#4d4d4d" stroke-width="20" stroke-opacity="1" stroke-miterlimit="10"/><path stroke-linecap="butt" transform="matrix(0.364376, 0, 0, -0.363746, 14.085086, 358.480786)" fill="none" stroke-linejoin="miter" d="M 229.997618 730.00332 L 169.995587 730.00332 L 169.995587 790.001903 L 229.997618 790.001903 Z M 229.997618 730.00332 " stroke="#4d4d4d" stroke-width="20" stroke-opacity="1" stroke-miterlimit="10"/><path stroke-linecap="butt" transform="matrix(0.364376, 0, 0, -0.363746, 14.085086, 358.480786)" fill="none" stroke-linejoin="miter" d="M 229.997618 609.995415 L 69.995774 609.995415 L 69.995774 670.004737 L 229.997618 670.004737 Z M 229.997618 609.995415 " stroke="#4d4d4d" stroke-width="20" stroke-opacity="1" stroke-miterlimit="10"/><g clip-path="url(#882a713efd)"><path stroke-linecap="butt" transform="matrix(0.364376, 0, 0, -0.363746, 14.085086, 358.480786)" fill="none" stroke-linejoin="miter" d="M 229.997618 489.998249 L 10.004463 489.998249 L 10.004463 549.996832 L 229.997618 549.996832 Z M 229.997618 489.998249 " stroke="#4d4d4d" stroke-width="20" stroke-opacity="1" stroke-miterlimit="10"/></g><path stroke-linecap="butt" transform="matrix(0.364376, 0, 0, -0.363746, 14.085086, 358.480786)" fill="none" stroke-linejoin="miter" d="M 229.997618 370.001083 L 110.004275 370.001083 L 110.004275 429.999666 L 229.997618 429.999666 Z M 229.997618 370.001083 " stroke="#4d4d4d" stroke-width="20" stroke-opacity="1" stroke-miterlimit="10"/><g clip-path="url(#10ae96e016)"><path stroke-linecap="butt" transform="matrix(0.364376, 0, 0, -0.363746, 14.085086, 358.480817)" fill="none" stroke-linejoin="miter" d="M 762.500969 337.150656 C 864.258934 351.680471 942.496358 439.213747 942.496358 545.003257 C 942.496358 650.782029 864.258934 738.315304 762.500969 752.855858 " stroke="#4d4d4d" stroke-width="20" stroke-opacity="1" stroke-miterlimit="10"/></g><g clip-path="url(#839328a62b)"><path stroke-linecap="butt" transform="matrix(0.364376, 0, 0, -0.363746, 14.085086, 358.480817)" fill="none" stroke-linejoin="miter" d="M 762.500969 559.994848 L 882.505042 680.002743 " stroke="#4d4d4d" stroke-width="20" stroke-opacity="1" stroke-miterlimit="10"/></g><g clip-path="url(#8ddcc7b9b5)"><path stroke-linecap="butt" transform="matrix(0.364376, 0, 0, -0.363746, 14.085086, 358.480817)" fill="none" stroke-linejoin="miter" d="M 770.005244 489.998296 L 920.004975 640.000111 " stroke="#4d4d4d" stroke-width="20" stroke-opacity="1" stroke-miterlimit="10"/></g><g clip-path="url(#c78754195c)"><path stroke-linecap="butt" transform="matrix(0.364376, 0, 0, -0.363746, 14.085086, 358.480817)" fill="none" stroke-linejoin="miter" d="M 800.000902 449.995664 L 939.998507 589.999506 " stroke="#4d4d4d" stroke-width="20" stroke-opacity="1" stroke-miterlimit="10"/></g><g clip-path="url(#532dd8fbf9)"><path stroke-linecap="butt" transform="matrix(0.364376, 0, 0, -0.363746, 14.085086, 358.480817)" fill="none" stroke-linejoin="miter" d="M 839.998686 410.003772 L 939.998507 510.004982 " stroke="#4d4d4d" stroke-width="20" stroke-opacity="1" stroke-miterlimit="10"/></g><g clip-path="url(#433a1f9674)"><path stroke-linecap="butt" transform="matrix(0.364376, 0, 0, -0.363746, 14.085086, 358.480817)" fill="none" stroke-linejoin="miter" d="M 760.003118 499.996269 L 870.005065 389.997086 " stroke="#4d4d4d" stroke-width="20" stroke-opacity="1" stroke-miterlimit="10"/></g></svg>